<?xml version="1.0" standalone="no"?>
<!DOCTYPE svg PUBLIC "-//W3C//DTD SVG 1.1//EN" "http://www.w3.org/Graphics/SVG/1.1/DTD/svg11.dtd" >
<svg xmlns="http://www.w3.org/2000/svg" xmlns:xlink="http://www.w3.org/1999/xlink" version="1.1">
<metadata>
Created by FontForge 20190801 at Fri Oct 15 03:29:08 2021
 By www-data
Typeface (c) (Kong Font). 2021. All Rights Reserved (fontkong@gmail.com)
</metadata>
<defs>
<font id="DanielDavis" horiz-adv-x="527" >
  <font-face 
    font-family="DanielDavis"
    font-weight="400"
    font-stretch="normal"
    units-per-em="2048"
    panose-1="2 0 6 0 0 0 0 0 0 0"
    ascent="1638"
    descent="-410"
    x-height="281"
    cap-height="1036"
    bbox="-740 -752 1984 1434"
    underline-thickness="150"
    underline-position="-292"
    unicode-range="U+000D-E009"
  />
<missing-glyph horiz-adv-x="1024" 
d="M100 0v1434h824v-1434h-824zM150 50h724v1334h-724v-1334zM325 1148q31 28 58 43q53 30 112 30q92 0 148 -47.5t56 -127.5q0 -49 -23 -98.5t-87 -129.5q-63 -80 -99 -132t-36 -99q0 -38 24 -133h-32q-35 97 -35 148q0 76 81.5 218t81.5 217q0 57 -33 90t-91 33
q-38 0 -69 -17q-26 -15 -56 -40v45zM389 334l57 58q11 10 20 10q10 0 22 -11l56 -60q9 -11 9 -20q0 -11 -10 -22l-56 -62q-14 -14 -21 -14q-11 0 -20 10l-61 71q-7 9 -7 18q0 10 11 22z" />
    <glyph glyph-name="uniE000" unicode="st" horiz-adv-x="638" 
d="M250 -384q-18 0 -35 9q-48 32 -48 121q0 3 1 52.5t27 153.5t48 165q57 166 82 226q16 41 16 46l-1 1q-3 0 -20 -24q-22 -31 -72 -90q-78 -92 -160 -159q-20 -16 -20 -23q0 -4 3 -12q17 -52 17 -116q0 -61 -32 -121t-96 -85q-31 -12 -56 -12q-28 0 -50 14q-28 17 -28 55
q6 115 168 255q-28 87 -28 139q0 88 49 139q39 39 76 39q24 0 34 -19q6 -8 6 -16q0 -30 -30 -38q-58 -17 -58 -101q0 -41 14 -86q143 129 221.5 229.5t117 183.5t62.5 157q27 84 72 172l-71 27q-295 124 -500 124q-28 0 -119 -5.5t-219 -115.5q-66 -66 -66 -82q1 -4 6 -6
q-9 -10 -11 -17q-4 -14 -19 -14h-10q-9 0 -21 17q-8 11 -8 28q0 10 5.5 33t50.5 73q98 103 213 135q78 22 158 22q37 0 115 -10q137 -18 372 -121q112 -48 138 -48q11 0 16 5l4 2q6 5 16 5q11 0 18 -11q5 -7 5 -21l-1 -16q135 -46 220 -46q29 0 52 5q74 17 74 65q0 10 -3 22
l-1 7q0 18 22 18q20 0 20 -19q-11 -80 -74 -104q-43 -16 -97 -16q-94 0 -219 41q-5 -16 -39 -103q-199 -496 -284 -802q-40 -143 -40 -219q0 -62 36 -62q14 0 29 11q22 16 80 96q141 195 196 284q32 54 52.5 77.5t48.5 25.5q10 0 10 -10q0 -11 -10 -11q-29 -4 -69 -63
t-88 -143t-99 -163q-98 -150 -169 -150zM-100 -210q11 0 36.5 9t55.5 58q26 46 27 90q0 43 -15 93q-142 -136 -142 -211q0 -15 7 -24q12 -15 31 -15z" />
    <glyph glyph-name="uniE001" unicode="tt" horiz-adv-x="569" 
d="M239 -429h-3q-50 0 -74 119q-9 46 -9 97q0 68 21.5 172t83.5 309q12 39 24 82q-50 -136 -89 -251q-63 -185 -107 -284q-33 -76 -60 -76q-8 0 -15 6q-44 48 -44 153q0 28 9 120.5t63.5 278t115.5 346.5t96 240q-50 22 -111 54q-86 45 -178 81q-82 32 -157 32
q-8 0 -52.5 -2.5t-100.5 -79.5q-14 -24 -15.5 -40.5t-9 -25t-32.5 -9.5q-34 2 -34 41q0 4 2.5 30.5t54.5 76t154 57.5h9q77 0 155 -32.5t163 -80.5q77 -43 161 -80q2 5 2 12.5t2 13.5q9 20 29 20q16 0 30 -11.5t14 -30.5q0 -11 -2.5 -16.5t-2.5 -9.5q0 -5 9 -10
q14 -7 87 -17l5 15q25 99 47 123l3 1q11 7 23 7q24 0 24 -36q0 -17 -6 -45q-10 -48 -18 -63q0 -10 26 -10q12 0 46.5 4.5t104 26t116.5 54.5q36 25 36 55q0 9 -4 19t-4 18q0 11 8 18q10 10 25 10l13 -1q16 -3 16 -37q0 -39 -32 -73q-57 -60 -190 -94q-76 -20 -135 -20l-20 1
q-5 0 -11 -2t-66 -221q-170 -580 -208 -756q-19 -85 -19 -141q0 -58 21 -84q11 -14 26 -14q54 0 162 186q95 161 171 336q3 5 8 5q4 0 7 -3.5t3 -7.5l-1 -4q-53 -122 -118 -248t-130.5 -213t-117.5 -91zM31 -196q71 106 274 674q115 325 115 350q0 7 -16 9q-26 3 -60 14
q-12 4 -18 5q-6 0 -10 -7.5t-15 -37.5q-44 -106 -115.5 -316t-122.5 -413q-38 -147 -38 -226q0 -31 6 -52z" />
    <glyph glyph-name="uniE002" unicode="ss" horiz-adv-x="375" 
d="M-99 -284q-74 0 -74 107q0 72 53 146q47 67 108 114l-11 18q-60 85 -62 162q1 54 28.5 92t79.5 44q35 0 49 -19q11 -14 11 -28q0 -27 -29 -27l-9 1l1 -1l-28 -3q-27 -19 -27 -53q0 -6 3 -28.5t38 -86.5q10 -21 19 -21q6 0 18.5 5.5t45.5 25t94 53.5v18q0 127 79 187
q33 21 58 21q49 0 61 -53q2 -10 2 -19q0 -26 -17 -52q-41 -48 -101 -83l-7 -5q4 -60 18.5 -117.5t14.5 -110.5v-6q-6 -56 -36 -83.5t-67 -27.5q-33 0 -52 25q-2 4 -2 6q0 13 13 13q3 0 6 -2q12 -6 23 -6q13 0 28.5 13t16.5 41q-1 44 -17 108q-13 53 -15 83q-2 17 -6 17
t-34 -19q-67 -38 -87 -52q-16 -11 -16 -19q0 -6 6.5 -16.5t13.5 -31.5q12 -42 12 -81q0 -50 -28 -112t-89 -105q-47 -32 -86 -32zM285 261q101 63 101 110q0 14 -11 20q-5 3 -12 3q-58 0 -77 -120zM-86 -238q37 0 89 79q29 49 29 103q0 51 -26 107q-134 -123 -134 -229
q0 -44 28 -57q7 -3 14 -3z" />
    <glyph glyph-name="uniE003" unicode="mm" horiz-adv-x="1436" 
d="M526 -182q-3 0 -28.5 4t-50.5 65q-14 43 -14 92q0 51 22.5 135.5t59.5 174.5q34 83 34 104q0 11 -9 11q-34 -8 -73.5 -50t-79.5 -92.5t-75 -87.5q-41 -45 -70 -45q-23 0 -36 39q-3 13 -3 29q0 10 -2 10q-3 0 -30 -48q-33 -58 -51 -93q-34 -70 -69 -70q-13 0 -29 8
q-33 22 -38 62l-1 29q0 24 4 47q12 69 36.5 99.5t50.5 30.5q21 0 30 -14q4 -6 4 -12q0 -11 -10 -23l2 2q-45 -90 -45 -142q0 -6 1 -11q3 -14 5 -14q27 22 81 108q51 83 66 83q14 0 23 -48q3 -29 14 -29q5 0 15.5 6t41.5 38t85 96q106 121 160 121q51 0 51 -68
q-5 -99 -43 -188q-47 -122 -47 -217q0 -45 10 -71q7 -20 19 -20q27 0 92 114q45 80 68 184q19 88 58 88q2 0 11 -1t18 -17q4 -7 4 -15t-4 -17q-17 -55 -17 -112q0 -21 2 -43q27 18 54 61q54 78 112 111q4 2 8 2q17 0 26 -50q6 -35 14 -35q11 0 76 89q166 227 237 227
q21 0 37 -16q18 -22 18 -59q0 -66 -61.5 -223t-61.5 -220q0 -44 29 -62h2q15 0 51.5 44.5t78.5 110t69 118.5q4 6 11 6q15 0 15 -12l-1 -5q-54 -137 -148 -257q-50 -59 -90 -59q-72 0 -87 106q-1 11 -1 23q0 96 86 309q45 114 45 138q0 14 -13 14q-25 0 -63 -38t-78 -94
t-64 -92q-12 -19 -17 -25q-49 -65 -75 -65q-6 0 -20.5 9.5t-25.5 80.5q-26 -15 -47.5 -44t-42.5 -63q-24 -41 -52 -77q-17 -19 -40 -19q-6 0 -25 4t-31 61q-97 -231 -168 -231z" />
    <glyph glyph-name="uniE004" unicode="oo" horiz-adv-x="702" 
d="M486 -61h-7q-52 0 -86 42.5t-34 107.5q0 3 1 40.5t60 110.5q-103 3 -176 14l1 -19q0 -55 -26 -115t-65 -111q-54 -67 -97 -67q-8 0 -36.5 10t-39.5 85q-2 15 -2 31q0 62 36 135q47 81 104 81q19 0 33 -10q22 -15 22 -39v-6l1 3q-4 -29 -20 -29l-14 2q-17 1 -17 3
q-24 -3 -43 -43q-28 -59 -28 -120q0 -31 9 -54q4 -7 12 -7q10 0 34 20t55.5 69t47.5 102q8 26 8 48q0 23 -9 43q-3 6 -3 10q0 15 45 15q27 0 66 -4q45 -5 87 -5q43 0 85 5q15 0 22 -8t7 -15t-26 -49q-57 -77 -57 -143q0 -67 58 -67q65 0 110 74q23 36 23 86q0 67 -39 105
q-23 22 -54 22q-8 0 -20 -2q-8 0 -11.5 4.5t-3.5 10.5v5q2 9 40 9q44 0 82 -40t38 -115q0 -73 -56 -150q-60 -73 -117 -75z" />
    <glyph glyph-name="uniE005" unicode="gg" horiz-adv-x="923" 
d="M76 -551q-40 0 -81 29q-48 35 -48 115q0 167 288 362q3 45 3 77q0 62 -2 102v3q-108 -146 -174 -146q-2 0 -32.5 1.5t-45.5 74.5q-4 20 -4 42q0 55 28 118q65 126 174 126q38 0 68 -20q34 -23 34 -58q0 -15 -6 -32q36 -28 36 -205l-1 -31q87 57 150 137q4 49 30 101
t73 75q33 15 59 15q18 0 43 -12.5t36 -46.5q6 -17 6 -32t-6 -29q-9 -23 -35 -23q-14 0 -14 6t-1.5 9t-2.5 7l1 3q0 40 -31 40q-26 0 -50 -34.5t-34 -79.5q-4 -16 -4 -29q0 -40 25 -40q22 0 64 34q107 97 141 184q6 11 14 11q3 0 12 -4t23 -26t21 -52q11 -57 11 -87l-1 -22
q0 -16 7 -16t39 22q54 35 61 35q11 0 11 -13q0 -10 -73 -48q-21 -11 -30 -18q-14 -11 -15 -51.5t-19 -153.5q-44 -232 -122 -320q-64 -72 -124 -72q-97 7 -119 112q-6 23 -6 49q0 218 314 412q2 42 2 78v24q0 42 3 71l1 17q0 6 -1 6q-2 0 -12.5 -18t-31.5 -49
q-114 -151 -191 -151q-21 0 -44.5 18t-29.5 61q-66 -76 -151 -133q-2 -87 -19.5 -199.5t-60 -205t-122.5 -116.5q-17 -4 -34 -4zM74 34q16 0 47 22t67 69.5t47 77.5q3 24 9 33l-10 11q-27 31 -53 31q-48 -2 -85 -54q-53 -73 -53 -141q0 -49 31 -49zM565 -471
q47 0 102.5 87.5t89.5 316.5q6 43 9 86q-164 -107 -224 -216q-51 -91 -51 -160q0 -13 7 -58q7 -50 67 -56zM69 -498q50 2 97 97.5t67 320.5q-69 -46 -129 -101t-93 -129q-17 -46 -17 -83q0 -28 9 -52q20 -53 66 -53z" />
    <glyph glyph-name="uniE006" unicode="ll" horiz-adv-x="606" 
d="M414 -297q-28 0 -65 53.5t-48 257.5q-2 40 -2 84q0 180 36 422q-15 -39 -27 -75q-61 -180 -129 -311q-69 -125 -117 -125q-46 0 -68 81q-21 72 -21 186l3 100q3 103 44 275q15 77 33 127q17 43 45 43q34 -4 34 -31q0 -24 -17 -77q-13 -45 -29 -116q-45 -212 -45 -390
q0 -17 2 -70t29 -68q3 -2 8 -2q65 0 233 468q46 129 54 178q23 158 67 159q24 0 24 -54q0 -35 -16 -117q-13 -64 -36 -216q-32 -237 -32 -409q0 -66 10.5 -195t48.5 -129q16 4 53 63q92 148 142 326q2 8 10 8q13 0 13 -10l-1 -4q-125 -432 -236 -432z" />
    <glyph glyph-name="uniE007" unicode="est" horiz-adv-x="968" 
d="M715 -320q-20 0 -34 56q-9 34 -9 93q0 96 30.5 306.5t177.5 664.5q-168 -214 -387 -563q-14 -24 -24 -38q-20 -32 -20 -40q0 -6 8 -19t22 -43q26 -67 26 -115q0 -33 -21 -76t-74 -43q-48 0 -67 58q-5 14 -5 32q0 58 48 154l2 5q0 3 -3 7q-6 8 -11 18q-1 5 -3 5l-2 -2
q-31 -31 -41 -40q-147 -121 -239 -121q-59 0 -87 40q-31 44 -31 105q0 9 3.5 50t46.5 103q48 70 130 74q67 0 67 -64q0 -49 -45 -109.5t-128 -80.5q9 -72 64 -72q1 0 30.5 1t99.5 44.5t120 95.5q-26 55 -26 94q0 22 15 53q17 38 65 38q32 0 47 -30q4 -9 4 -21q0 -33 -35 -88
q-5 -5 -5 -7q0 -3 6 -14l2 -5q234 362 458 664q-194 71 -325 107q-138 39 -276 39q-127 0 -247 -58q-127 -69 -177 -148q-14 -20 -14 -37q0 -8 3 -15t5 -11t3 -5q0 -2 -1 -2q-9 -2 -16 -2q-42 0 -42 54q0 44 41 108.5t146 116.5q101 50 265 50q7 0 96.5 -1t340.5 -96
q95 -37 140 -56q57 -25 68 -25q10 0 13.5 18t29.5 55q6 11 17 12q11 0 20 -7.5t10 -18.5q0 -8 -12 -58q-7 -26 -7 -29q142 -49 227 -49q75 0 111 24t36 59q0 23 -14.5 34t-14.5 24q0 25 31 30q13 0 23 -15q13 -23 13 -48q0 -17 -11 -49t-69 -58q-38 -18 -96 -18q-30 0 -66 5
q-113 18 -156 41q-10 5 -14 5q-6 0 -12 -25q-104 -325 -162 -600q-67 -319 -67 -413q1 -7 5 -7q23 0 263 378q6 7 14 7q8 -1 12 -8q3 -3 3 -7q0 -3 -3 -8q-102 -163 -165 -256t-119 -186q-14 -21 -25 -21zM413 231q26 40 26 61q0 17 -14 17q-21 0 -21 -30q0 -24 9 -48z
M56 145l6 1q39 15 68 43q51 49 51 85q0 6 -3 11q-7 10 -18 10q-22 0 -55 -40q-21 -25 -36 -52q-19 -33 -19 -49q0 -9 6 -9zM405 -91q15 0 27.5 21t12.5 45q0 46 -40 110q-33 -73 -33 -114q0 -5 1.5 -28.5t22.5 -31.5q5 -2 9 -2z" />
    <glyph glyph-name="uniE008" unicode="and" horiz-adv-x="1346" 
d="M1153 -201q-13 0 -45.5 12t-54.5 123q-5 36 -5 76q0 59 14.5 152t42 196t43.5 152l6 24q-3 -6 -85 -219q-49 -129 -75.5 -186t-61.5 -92q-46 -46 -77 -46q-13 0 -25 9.5t-19.5 27t-10 28t-3.5 10.5q-1 -3 -10 -19q-27 -51 -46 -80q-33 -51 -73 -51q-22 0 -42 18
q-32 28 -32 100q0 69 35 184q21 66 21 81q0 7 -3 7q-12 0 -47 -67q-65 -125 -119 -125q-8 0 -17 2q-37 14 -42 68q-31 -54 -49.5 -89.5t-33.5 -60.5q-34 -50 -72 -50q-9 0 -37 8t-44 110q-1 39 -2 39q-2 0 -10 -11.5t-37 -44.5q-6 -12 -40 -43q-30 -27 -56 -27q-18 0 -36 17
q-26 31 -26 72q0 17 9.5 58t54.5 94.5t97 66.5q9 2 17 2q43 0 75 -50q7 5 15 5q5 0 11 -3q11 -6 11 -20v-5q-10 -51 -10 -106q0 -41 6 -68t16 -27q19 0 109 139l34 52v1q17 69 49 69q13 0 17 -20l3 -74q0 -31 11 -31q3 0 8 0.5t23.5 23.5t40.5 54.5t43 56.5q27 31 50 31
q44 0 44 -76q0 -53 -23 -123q-22 -59 -22 -124q0 -11 1 -20.5t2 -15.5t1.5 -10t1.5 -6t1 -2.5t1 -0.5l-1 2q18 3 43 31q42 49 77 115q10 82 58 138q59 70 118 70q39 0 59 -42q65 157 104 257q91 238 92 266q9 19 29 20q24 0 24 -61q0 -83 -72 -335q-84 -265 -84 -420
q0 -57 9 -110t28 -53q17 0 57 47q88 105 145 229q3 5 9 5q10 -1 10 -11q0 -11 -76 -147q-48 -87 -85 -138q-31 -39 -67 -39zM868 42q17 0 41 26.5t48 65t39 71.5q-2 0 -3 -1q-5 -2 -7 -2q-3 0 -5 12q-5 8 -5 13t2 16q0 3 -2.5 6.5t-4 5.5t-2.5 2t-1 -1t3 -3h-2q-4 0 -15 -3
l-25 -19q-49 -41 -63 -131q-2 -16 -2 -27q0 -31 4 -31zM55 65q26 0 92 78q32 37 47 62l-2 2q-5 0 -11 13l3 -1q0 1 -2 2l-10 9l-2 2q0 1 -4 6q-6 2 -6.5 2.5t-6.5 0.5q-34 0 -61 -42.5t-39 -85.5q-6 -22 -6 -34q0 -14 8 -14z" />
    <glyph glyph-name="uniE009" unicode="att" horiz-adv-x="1035" 
d="M532 -323q-32 0 -32 85q0 169 128 633q-95 -233 -188 -347q-82 -93 -155 -93q-3 0 -42 2t-58 123q-2 17 -2 24t-1 7q-14 -28 -49 -78q-45 -56 -80 -56q-1 0 -19.5 1t-34.5 34.5t-16 68.5q0 27 14.5 75t60.5 97t98 50q39 -3 63 -35q17 -23 17 -51q0 -12 -3 -25
q-13 -46 -13 -84q0 -39 13 -70q18 -42 56 -42q18 0 63.5 18.5t151 194.5t238.5 559l-44 20q-83 42 -174 79q-132 53 -240 53q-145 0 -257 -88q-51 -41 -84 -74q-36 -36 -43 -36q-6 0 -6 12q8 73 84.5 134t150.5 85.5t147 24.5q187 0 482 -164q17 50 36 98q8 20 27 20
q31 0 31 -28q0 -12 -31 -121q63 -33 134 -59q19 66 45 129q5 18 25 18q27 0 27 -25q-7 -71 -27 -141q33 -5 62 -5q59 0 114.5 27t78.5 85q10 25 10 50q0 35 -18 70q-2 5 -2 10q0 6 5 13t15 8q12 0 18 -10q16 -33 16 -69q0 -137 -151 -195q-58 -19 -100 -19q-22 0 -33 3
q-7 2 -11 2t-7.5 -1.5t-9 -16t-16.5 -58.5q-54 -191 -88.5 -341.5t-54.5 -339.5q-3 -38 -5.5 -56.5t-3 -28t-0.5 -14.5q0 -22 14 -22q4 0 15.5 3t30.5 42q5 8 12 8q14 -2 14 -16l-1 -6q-25 -52 -61 -66q-8 -3 -15 -3q-26 0 -45.5 39t-19.5 134q0 23 4 104q4 100 72 366
q4 11 4 13h-1q-45 -111 -213 -509q-85 -209 -104 -223q-9 -6 -18 -6zM559 -212q47 87 131.5 282t158 373t87.5 215q2 9 4.5 15.5t2.5 9.5q0 6 -22 11.5t-91 32.5q-6 3 -10.5 6t-7.5 3q-6 0 -27 -76q-171 -600 -194 -728q-5 -42 -32 -144zM60 26q15 0 55 46q42 50 66 111
q-14 39 -34 39q-28 0 -59 -57q-40 -72 -40 -117q0 -22 12 -22z" />
    <glyph glyph-name=".notdef" horiz-adv-x="1024" 
d="M100 0v1434h824v-1434h-824zM150 50h724v1334h-724v-1334zM325 1148q31 28 58 43q53 30 112 30q92 0 148 -47.5t56 -127.5q0 -49 -23 -98.5t-87 -129.5q-63 -80 -99 -132t-36 -99q0 -38 24 -133h-32q-35 97 -35 148q0 76 81.5 218t81.5 217q0 57 -33 90t-91 33
q-38 0 -69 -17q-26 -15 -56 -40v45zM389 334l57 58q11 10 20 10q10 0 22 -11l56 -60q9 -11 9 -20q0 -11 -10 -22l-56 -62q-14 -14 -21 -14q-11 0 -20 10l-61 71q-7 9 -7 18q0 10 11 22z" />
    <glyph glyph-name=".null" horiz-adv-x="0" 
 />
    <glyph glyph-name=".null" horiz-adv-x="0" 
 />
    <glyph glyph-name="uni000D" unicode="&#xd;" horiz-adv-x="512" 
 />
    <glyph glyph-name="space" unicode=" " horiz-adv-x="308" 
 />
    <glyph glyph-name="space" unicode="&#xa0;" horiz-adv-x="308" 
 />
    <glyph glyph-name="exclam" unicode="!" horiz-adv-x="260" 
d="M27 51q-3 0 -9 2q-12 6 -12 130q0 214 38 400q16 78 33 119q26 65 51 65q15 0 23.5 -14.5t8.5 -23.5q0 -22 -20 -81q-86 -245 -98 -583q-1 -14 -15 -14zM32 -88h-5q-13 0 -21 13q-6 8 -6 18q0 29 34 36q15 0 25 -14q5 -7 5 -15q0 -9 -6 -19q-9 -15 -26 -19z" />
    <glyph glyph-name="quotedbl" unicode="&#x22;" horiz-adv-x="255" 
d="M14 653q-14 0 -14 14t5 26q4 8 4 16q0 9 -1.5 16t-1.5 35q1 12 16 21q11 5 20 5q12 0 20.5 -11t8.5 -29q0 -10 -5.5 -33t-41.5 -57q-5 -3 -10 -3zM93 654q-19 0 -19 21q0 10 10 45q11 56 41 56q30 -1 30 -32q0 -20 -13 -45q-25 -45 -49 -45z" />
    <glyph glyph-name="numbersign" unicode="#" horiz-adv-x="570" 
d="M147 -46q-14 0 -18 21q-3 15 -3 94q0 33 -3.5 37t-11.5 4q-7 0 -19 -2.5t-29 -4.5l-10 -1q-13 -2 -25 -2q-26 0 -26 10q0 7 5 12q0 6 95 21l23 3l2 98q-70 -11 -97 -23l-11 -3q-5 0 -8 1q-11 4 -11 13q0 4 3 7q22 26 88 29q37 2 37 10q0 41 7 81q6 47 37 47q2 0 12.5 -1
t19.5 -21q3 -10 3 -31l-6 -31q-2 -13 -4 -23.5t-2 -15.5t1 -6l60 2q32 0 40 1t8 11l-1 8q-2 13 -2 40t12 75q8 26 33 26q12 0 25 -8t14 -28v-19q0 -55 -17 -89q-4 -8 -4 -12t31 -6q18 0 53 -2q8 -1 8 -10q0 -8 -8 -8q-44 2 -87 2l-20 -80l-2 -18v-2l68 -1q61 -3 63 -19
q0 -15 -45 -15h-59q-22 0 -28 -1q-12 -3 -19 -44q-5 -30 -23 -95q-3 -10 -12 -10q-15 0 -15 17q8 50 13 77t6 39q0 12 -4.5 13t-10.5 1l-15 -1q-30 -3 -53 -3q-30 0 -32.5 -10.5t-3.5 -28.5q0 -42 -5 -83.5t-17 -41.5zM181 152l13 1q30 5 68 5h8q11 0 18 2q13 5 13 99
l-35 -1q-39 -1 -56.5 -4t-22.5 -15.5t-6 -40.5l-4 -42q0 -4 4 -4z" />
    <glyph glyph-name="dollar" unicode="$" horiz-adv-x="570" 
d="M166 -264q-6 0 -8 10q-2 7 -2 25q0 27 7 63h-16q-125 0 -147 49q0 9 7.5 14t18.5 6q10 0 16 -8q26 -35 106 -36l8 -1h9q2 1 6 18q12 62 29 112q9 30 9 42q0 6 -3.5 11.5t-33.5 35.5q-91 103 -91 174q0 2 2 39.5t61 76.5t129 45h9t3.5 1.5t1.5 3.5q8 30 19 43q12 17 26 17
q6 0 11.5 -3t5.5 -8q0 -11 -2 -20q-4 -20 -7 -20q0 3 -4 11q-2 0 -9 -26q56 -6 86 -25q47 -30 54 -70l3 -9q0 -4 -15 -4q-24 0 -45 16l-5 4q-33 33 -88 40l-54 -236q-9 -43 -9 -61q0 -9 3 -16.5t12 -18t24 -39.5q20 -39 20 -69q0 -76 -126 -87q-9 -46 -11 -92l-1 -3
q-5 -5 -9 -5zM226 94q15 74 24 136.5t23 131.5q-85 -15 -106 -58q-11 -23 -11 -48q0 -69 70 -162zM192 -141q87 10 87 56q0 42 -45 94l-3 -9q-23 -70 -39 -141z" />
    <glyph glyph-name="percent" unicode="%" horiz-adv-x="588" 
d="M61 -244q-32 0 -48 24q-13 19 -13 45q0 83 135 259q211 278 304 379q-64 -9 -119 -9q-81 0 -130 14q-4 -43 -50 -66q-27 -13 -52 -13q-18 0 -36 7q-31 18 -31 44q0 4 3.5 23t45.5 32q9 3 17 3q35 0 35 -32q-3 -15 -16 -30l-3 -5q0 -1 1 -1l15 6q18 7 28 21q7 8 7 16
q0 6 -3 11q-24 15 -24 26q0 9 16 9q22 0 39 -24q46 -20 129 -20q93 0 158 16h4q15 0 15 -12q0 -2 -2 -4q-49 -64 -126 -174q-70 -100 -161 -224q-20 -26 -56 -81q-81 -120 -81 -175q0 -10 3 -19h2q8 0 42 21t81.5 57.5t83.5 73.5l-1 5q0 11 19 15q9 10 18 10q14 0 14 -9
q65 -10 65 -53q0 -20 -21 -35q-16 -10 -34 -10q-42 0 -59 36q-58 -65 -142 -124q-47 -33 -72 -33zM88 433q1 0 1 2q0 3 -1 7.5t-1 5.5t-1 1q-3 0 -3 -9q0 -2 1 -3.5t2 -2.5l1 -1h1zM333 -96q7 0 12 4q8 7 8 14q0 6 -6 11q-10 11 -32 11l-11 -1q-2 -6 -2 -11q0 -8 6 -16
q9 -12 25 -12z" />
    <glyph glyph-name="ampersand" unicode="&#x26;" horiz-adv-x="528" 
d="M415 -83q-9 0 -33.5 10t-94.5 74q-51 -67 -131 -67q-57 0 -106.5 39.5t-49.5 123.5q0 81 79 192q-57 131 -57 231q0 168 122 250q69 48 134 48q95 -8 116 -94l1 -18q0 -108 -176 -318q-38 -45 -74 -92q30 -57 82.5 -133.5t65.5 -76.5q2 0 3 2q15 47 15 88q0 26 -8 26
q-2 0 -5.5 -3t-7.5 -3q-3 0 -10 3t-7 12q0 5 5 9q13 9 24 9q18 0 30 -26q6 -15 6 -37q0 -41 -22 -110q64 -66 84 -83q28 -28 28 -45q0 -10 -13 -11zM124 344q21 24 48 53q70 73 131.5 157t61.5 158v5q-11 74 -83 74q-52 0 -111 -47t-83 -148q-7 -29 -7 -62q0 -83 43 -190z
M171 -24q34 0 64 20q25 17 26 27q0 9 -20.5 28t-55 62.5t-80.5 125.5q-53 -86 -53 -144q2 -73 78 -112q21 -7 41 -7z" />
    <glyph glyph-name="quotesingle" unicode="'" horiz-adv-x="183" 
d="M19 687q-19 0 -19 14q0 12 11.5 14.5t11.5 15.5t-6 32q-7 15 -7 44q0 12 5 28q8 22 31 22q37 0 37 -65q0 -41 -18 -75q-16 -30 -46 -30z" />
    <glyph glyph-name="parenleft" unicode="(" horiz-adv-x="377" 
d="M235 -550l-4 -1q-7 0 -12 7q-145 228 -190 492q-29 173 -29 339q0 87 15.5 253t72 344t112.5 235q19 19 33 19q30 0 43 -77l1 -8q0 -15 -15.5 -28.5t-27.5 -40.5q1 4 2 9.5t3 13t3 13.5t1 8t-1 2q-3 0 -17 -32q-148 -337 -148 -703q0 -42 10 -254.5t160 -550.5
q3 -7 3 -14q0 -21 -15 -26z" />
    <glyph glyph-name="parenright" unicode=")" horiz-adv-x="431" 
d="M90 -551q-23 0 -23 20q0 11 13 28q73 90 123 202q56 127 56 333q0 171 -49 432q-74 419 -194 576q-16 22 -16 47q0 8 4 30.5t36 22.5q27 0 69.5 -65.5t96.5 -244t92 -408.5q33 -198 33 -380l-1 -57q-18 -316 -122 -452q-64 -84 -118 -84z" />
    <glyph glyph-name="asterisk" unicode="*" horiz-adv-x="264" 
d="M82 697q-11 0 -13 31q-20 -27 -38 -27q-19 0 -20 22v1q0 23 32 63v1l-9 1q-23 3 -23 8v5q1 2 4 2q13 0 18 -1h6q0 1 -4 5q-9 8 -35 43v6l4 2q6 0 39 -25q12 -10 16 -10q1 0 1.5 1t0.5 5q0 7 -3 21l-2 21q7 0 23 -50q38 30 61 30q9 0 16 -5.5t8 -15.5q0 -10 -5 -15h-1
q0 7 -5 9l-7 -3h-2l-15 -20q18 0 26 -2t8 -8q0 -11 -39 -11l-10 1l15 -11q30 -21 30 -33q0 -4 -2 -8q-6 -10 -14 -10q-16 0 -51 35l1 -25q0 -33 -11 -33z" />
    <glyph glyph-name="plus" unicode="+" horiz-adv-x="329" 
d="M102 -89h-3q-3 1 -7 7t-4 48q0 32 -5 98q-53 0 -62 -8q-3 -3 -4 -8q0 -5 1.5 -7.5t5.5 -2.5h4q0 -2 -7 -2q-19 0 -21 23v1q0 28 79 40q-4 33 -7.5 52t-4.5 31q0 16 0.5 25t8.5 17.5t20 8.5q30 0 43 -82q3 -22 3 -33t2 -13t8 -2q77 0 77 -22q0 -18 -27 -18l-44 1
q-4 1 -12 1q-3 -1 -3 -16q0 -57 -17 -108q-11 -31 -24 -31z" />
    <glyph glyph-name="comma" unicode="," horiz-adv-x="178" 
d="M16 -297q-2 0 -9 0.5t-7 11.5q0 6 8 10q11 13 11 31q-7 35 -7 59q0 18 4 30q8 25 23 25l9 -1q9 -1 21 -23q9 -16 9 -41q0 -30 -10 -52.5t-23 -35.5l-3 -2l1 1q-17 -13 -27 -13z" />
    <glyph glyph-name="hyphen" unicode="-" horiz-adv-x="526" 
d="M412 3l-184 2q-182 3 -207 6q-21 6 -21 25q0 31 29 33q1 2 15 2q35 0 163 -13q162 -18 209 -28q10 -2 10 -12q0 -13 -14 -15z" />
    <glyph glyph-name="hyphen" unicode="&#xad;" horiz-adv-x="526" 
d="M412 3l-184 2q-182 3 -207 6q-21 6 -21 25q0 31 29 33q1 2 15 2q35 0 163 -13q162 -18 209 -28q10 -2 10 -12q0 -13 -14 -15z" />
    <glyph glyph-name="period" unicode="." horiz-adv-x="177" 
d="M36 -286q-3 0 -13.5 1t-22.5 28v6q0 41 38 41h8q31 -15 31 -35q0 -17 -13 -29t-28 -12z" />
    <glyph glyph-name="slash" unicode="/" horiz-adv-x="618" 
d="M20 -216q-9 0 -14.5 6t-5.5 14q0 19 202 534q193 493 256 588q13 16 28 16q16 0 26 -15q6 -8 6 -17q0 -18 -20 -64l-87 -189q-282 -613 -341 -783l-17 -44q-20 -46 -33 -46z" />
    <glyph glyph-name="zero" unicode="0" horiz-adv-x="454" 
d="M158 -244q-73 2 -115.5 80t-42.5 200q0 118 66 255q59 117 109 117q18 0 26 -10t8 -20t-12 -39l-17 -43l1 16q0 17 -5 34q-14 -16 -28 -47q-79 -162 -79 -291q0 -93 29.5 -147.5t68.5 -54.5l10 1q61 19 102.5 131t41.5 251q0 134 -55 227q-20 33 -54 50q-20 11 -41 11
q-49 0 -75 -50q-17 -32 -27 -65l-2 -5q-6 -15 -19 -15q-9 0 -15.5 6t-6.5 14l1 7q15 49 42 91q36 56 102 56q63 0 109.5 -59.5t64.5 -168.5q9 -55 9 -113q0 -57 -13.5 -147.5t-70.5 -188.5q-53 -83 -112 -83z" />
    <glyph glyph-name="one" unicode="1" horiz-adv-x="309" 
d="M90 -244q-25 0 -27 26q0 55 25 258q24 191 44 299q8 43 8 56q0 6 -3 6q-5 0 -20 -13q-29 -28 -111 -62h-1q-5 0 -5 5l1 4l48 36q56 36 103 100q13 45 34 45q5 0 12 -4t9 -12t2 -24q0 -74 -37 -340q-42 -309 -56 -361q-6 -19 -26 -19z" />
    <glyph glyph-name="two" unicode="2" horiz-adv-x="593" 
d="M32 -244q-32 0 -32 28v3q10 44 57.5 56t93.5 12l3 1q89 71 158.5 197.5t87.5 276.5l1 27q0 74 -36 79l-11 1q-37 0 -81.5 -38t-53.5 -82v-6q0 -5 1.5 -9.5t3.5 -7.5t2 -5q0 -1 -4.5 -4t-11.5 -3q-11 0 -22.5 12.5t-11.5 42.5l1 19q12 72 67.5 116t115.5 44q65 0 97 -66
q16 -31 16 -83q0 -53 -17 -127q-49 -201 -198 -359q-10 -10 -16.5 -15.5t-6.5 -7.5q0 -1 15 -1q10 1 29 1q82 0 203 -19q11 -3 11 -12q0 -18 -18 -18q-103 16 -198 16q-43 0 -84 -3q-34 -26 -80.5 -45.5t-80.5 -20.5z" />
    <glyph glyph-name="three" unicode="3" horiz-adv-x="485" 
d="M225 -244q-82 0 -206 79q-19 14 -19 35q0 25 18 41q9 8 20 8q9 0 19 -5q116 -69 181 -69q14 0 53 10t47 77l1 21q0 55 -34 116t-101 77q-20 4 -20 31q0 14 8 24q98 112 98 180q0 50 -55 50q-42 0 -110 -41h-2q-4 -6 -14 -6q-6 0 -14 6q-17 13 -17 30q0 14 19 38t73 45
q34 13 68 13q20 0 55.5 -9t56.5 -77q7 -26 7 -52q0 -42 -23 -94.5t-71 -100.5q82 -64 109 -159q13 -44 13 -85q0 -157 -133 -181q-13 -2 -27 -2z" />
    <glyph glyph-name="four" unicode="4" horiz-adv-x="444" 
d="M301 -244q-2 0 -10 1t-21 31q-20 49 -20 180q0 89 16 178l-48 -8q-9 -1 -13.5 -2.5t-22.5 -26.5q-8 -12 -26 -32q-55 -56 -105 -56q-31 0 -44 20q-7 9 -7 21q0 57 122 92q89 133 133 261q15 43 34 86q9 15 22 15q12 0 22 -8t11 -24q0 -11 -5 -39q-7 -36 -7 -47l-2 5
q-37 -130 -92 -206q-12 -16 -12 -22q0 -3 5 -3q16 0 43 8l8 26q7 18 24 18q9 0 17.5 -7.5t8.5 -14.5l-1 -26q-6 -35 -8 -181q1 -83 6 -129q4 -40 4 -76q-1 -13 -10.5 -23.5t-21.5 -10.5zM56 83l6 2q9 5 20 16q-26 -14 -26 -18z" />
    <glyph glyph-name="five" unicode="5" horiz-adv-x="508" 
d="M153 -244q-36 0 -66 11q-42 16 -42 51q2 38 39 38q17 0 38 -5q27 -6 57 -6q13 0 42.5 1.5t76.5 46.5q46 49 46 116v36q-1 44 -86 76q-54 18 -100 58.5t-58 147.5v23q0 77 31 109l4 8q0 2 -4 2q-80 -10 -80 -12q0 -3 31 -22l-11 4q-30 13 -58 16q-13 3 -13 17v6t6 8
q20 12 76.5 21t125.5 9q136 0 136 -33q0 -23 -17 -23l-50 4q-39 4 -79 6q-1 -7 -6 -22q-18 -46 -18 -92q0 -72 43 -108q30 -26 68 -45q54 -23 93 -68q30 -37 30 -116q0 -129 -74 -194q-79 -69 -181 -69z" />
    <glyph glyph-name="six" unicode="6" horiz-adv-x="373" 
d="M143 -244q-47 0 -87 59q-8 -5 -16 -5q-28 0 -28 27q0 18 11 52q-23 81 -23 157q0 47 15.5 128.5t68.5 171t105 134.5q41 36 64 36q20 0 20 -22q0 -26 -23 -80l-1 -2q0 1 1.5 6.5t3 13t1.5 11.5q0 8 -3 8q-7 0 -26 -25q-94 -120 -125 -244q-22 -88 -22 -142q0 -51 5 -51h1
q56 53 97 53q17 0 31 -8q40 -23 40 -103q0 -20 -2 -44q-24 -131 -108 -131zM159 -182q8 0 23.5 7t32.5 70q6 31 6 54q0 56 -36 56q-34 0 -80 -68q-8 -13 -8 -30q0 -44 34 -76q13 -13 28 -13z" />
    <glyph glyph-name="seven" unicode="7" horiz-adv-x="493" 
d="M154 -244q-29 0 -29 30q21 152 55 255q19 65 19 80q0 8 -4 9q-54 5 -81 15q-40 13 -40 29q0 2 3 6t9 4q8 0 70 -11q24 -4 38 -4q19 0 26 13t16 44q14 59 91 226q-55 2 -99 2q-72 0 -119 -6q-31 -2 -54 -2q-34 0 -43 4q-12 9 -12 18q0 26 99 40q45 8 105 8q189 0 189 -35
q0 -23 -21 -69q-7 -15 -13 -31q-70 -181 -70 -200q0 -6 2.5 -7.5t6.5 -1.5q19 0 19 -16q0 -19 -35 -24q-9 -3 -21 -43q-25 -76 -54 -212q-15 -64 -24 -98q-8 -23 -29 -23z" />
    <glyph glyph-name="eight" unicode="8" horiz-adv-x="424" 
d="M101 -244h-3q-98 9 -98 146q0 59 28 142t101 141q-56 88 -56 157q0 32 11 68q42 106 126 106q37 0 69 -27q45 -40 45 -128q-1 -101 -87 -242q-8 -11 -18 -19q29 -70 29 -134q0 -17 -6.5 -64.5t-47.5 -96.5t-93 -49zM190 189q80 132 80 207q0 83 -62 83q-24 0 -56 -22
t-41 -88l-1 -19q0 -61 50 -146l8 1q14 0 22 -16zM121 -167q60 0 84 101q5 20 5 42q0 48 -23 104h-4q-9 0 -16.5 9t-7.5 25q-82 -113 -82 -204q0 -31 8 -63q17 -14 36 -14z" />
    <glyph glyph-name="nine" unicode="9" horiz-adv-x="436" 
d="M148 -244q-101 12 -145 92q-3 8 -3 15q0 6 5 15t18 9q10 0 18 -11q19 -31 64 -52q18 -8 37 -8q27 0 65 24t66 146q18 80 18 216q0 73 -5 163q-32 -77 -77.5 -144.5t-92.5 -86.5q-10 -4 -20 -4q-35 0 -65 53q-19 41 -19 87q0 113 87 199q46 47 98 47q37 0 61 -29
q14 -17 14 -40q0 -7 -4 -28t-58 -58l3 10q15 36 15 61q0 6 -10 6q-17 0 -49 -22q-38 -26 -59 -67q-24 -47 -24 -88q0 -61 25 -61q4 0 26 9t69.5 79.5t75.5 152.5q6 17 12 17q22 0 36 -155q6 -61 6 -131q0 -31 -2 -99.5t-24 -156.5q-41 -160 -162 -160z" />
    <glyph glyph-name="colon" unicode=":" horiz-adv-x="170" 
d="M29 78q-14 0 -21.5 10.5t-7.5 20.5q0 25 27 33q4 2 9 2q11 0 22 -12q10 -14 10 -24q0 -7 -8 -18.5t-31 -11.5zM41 -20q-30 0 -30 30q0 31 30 31t30 -31q0 -30 -30 -30z" />
    <glyph glyph-name="semicolon" unicode=";" horiz-adv-x="185" 
d="M48 141q-10 0 -20 6q-18 16 -18 32q0 22 20 34q8 4 17 4t20 -5q18 -16 18 -32q0 -22 -20 -34q-8 -5 -17 -5zM27 -23q-13 0 -22 8q-5 6 -5 13q0 19 20 19q11 4 11 27v15q0 8 2 19t17 11q10 0 18 -12q12 -17 12 -44q0 -20 -12 -35q-16 -21 -41 -21z" />
    <glyph glyph-name="less" unicode="&#x3c;" horiz-adv-x="387" 
d="M260 -85q-19 0 -65 72q-85 109 -126 109q-20 0 -32.5 -6.5t-19.5 -6.5q-17 0 -17 20q0 15 65 82q50 51 104 95q50 40 73 40h3q18 -4 18 -21q0 -2 -0.5 -5.5t-21.5 -28.5q-9 -10 -16.5 -19t-11.5 -12q-77 -78 -103 -97q-18 -14 -18 -18q0 -3 12 -7q42 -16 115 -86
q68 -65 68 -86q0 -6 -5 -13q-6 -12 -22 -12z" />
    <glyph glyph-name="equal" unicode="=" horiz-adv-x="536" 
d="M214 71h-47q-135 0 -135 9q-14 9 -14 27v11q2 23 64 23q26 0 85 -5q149 -10 257 -31q12 -3 12 -14q0 -4 -4 -10t-12 -7q-12 0 -72 -1.5t-134 -1.5zM392 -64h-41l-91 1q-214 4 -245 17q-15 6 -15 24q0 10 11 17q16 7 76 7q72 0 197 -7q85 -5 109 -8t24 -26q0 -24 -25 -25z
" />
    <glyph glyph-name="greater" unicode="&#x3e;" horiz-adv-x="416" 
d="M26 -174h-2q-12 0 -18 7.5t-6 18.5q0 7 4 23.5t33.5 57.5t93.5 102q44 40 65 52.5t21 20.5q0 7 -27 28q-34 26 -121 117q-39 39 -61 76q-4 9 -4 16q0 9 7.5 18.5t25.5 9.5q13 0 21 -9q13 -10 54 -49.5t89 -87t80.5 -82t33.5 -39t1 -10.5q0 -18 -14 -25q-4 -2 -9 -2
q-12 0 -26 11q-9 6 -15 6q-13 0 -49 -39q-63 -70 -100 -131q-56 -88 -77 -90z" />
    <glyph glyph-name="question" unicode="?" horiz-adv-x="544" 
d="M67 -18q-4 0 -12 3q-19 5 -19 57q0 45 31.5 94.5t96 115t128.5 154.5t97 216q10 50 10 89q0 62 -26 98q-36 48 -84 48q-10 0 -21 -2q-90 -23 -133 -92q-54 -85 -54 -197q0 -51 11 -91q16 -57 44 -57h1q2 0 2 -3q0 -31 -38 -31t-64 39q-37 68 -37 148q0 23 8.5 88.5
t71 150t158.5 104.5q16 3 32 3q53 0 105.5 -36.5t66.5 -128.5q2 -16 2 -33q0 -218 -286 -539q-46 -51 -59 -91q-9 -27 -9 -55q0 -13 2 -27v-2q0 -23 -25 -23zM59 -155q-20 0 -32 25q-5 9 -5 18q0 7 5 18t32 15q6 0 9 -1q27 -10 27 -37q0 -17 -14 -27q-11 -11 -22 -11z" />
    <glyph glyph-name="at" unicode="@" horiz-adv-x="716" 
d="M265 -271q-52 0 -120 29t-117 135q-28 70 -28 142q0 177 135 319q112 117 257 117q76 0 133.5 -40.5t78.5 -116.5q12 -40 12 -79q0 -125 -92 -190q11 -3 11 -26q0 -109 -56.5 -182t-144.5 -98q-35 -10 -69 -10zM287 -222q54 0 103 33.5t81 94.5t33 124q0 3 -4 3
q-3 0 -10 -2q-12 -3 -31 -3q-42 0 -74 48q-41 -94 -105 -94q-39 0 -65 43q-15 26 -15 64q0 42 17 98q48 142 130 142q49 0 70 -45q5 -11 5 -22q0 -18 -14 -35q3 -5 3 -32q-4 -39 -8 -57q6 -43 35 -60q12 -7 26 -7q19 0 39 14q67 53 67 143q0 48 -28 100t-102 71q-19 4 -39 4
q-57 0 -127.5 -37t-128.5 -121q-68 -97 -68 -213q0 -100 49.5 -168t134.5 -84q14 -2 26 -2zM298 41q17 0 35.5 26t24.5 46.5t7 44t11 63.5q0 4 -3 5q-8 8 -8 18v5q-6 7 -13 7q-10 0 -27 -20.5t-33 -66t-16 -90.5q1 -38 22 -38z" />
    <glyph glyph-name="A" unicode="A" horiz-adv-x="995" 
d="M842 -404h-4q0 1 -1 1q-14 0 -19 20q-8 26 -8 127q0 165 14 627q-122 -4 -244 -10q-187 -418 -342 -697q-6 -9 -14 -9q-10 0 -17 9q-4 5 -4 11q0 4 2 8q69 162 175 377q57 118 143 299q-186 -9 -269 -16q-50 -6 -93 -17q-55 -14 -138 -29q-6 0 -13.5 3.5t-8.5 10.5v1
q0 17 57 34q70 22 245 35q76 21 129 40l71 25q-87 -38 -126 -51q-25 -8 -25 -10t8 -2q9 0 29 2q44 3 150 7q169 354 321 715q7 17 26 17q20 0 22 -24l-1 -237q3 0 7 76l3 41q0 -54 -7 -308l-8 -272q75 1 226 1q7 0 9 -6q2 -2 2 -5q0 -9 -11 -11l-227 -5l-10 -393
q-7 -209 -14 -299q-7 -75 -21 -83q-6 -3 -14 -3zM595 393l230 5q8 231 16 363q7 93 7 138q0 43 -6 43q-14 0 -81 -167q-56 -137 -166 -382z" />
    <glyph glyph-name="B" unicode="B" horiz-adv-x="1034" 
d="M421 -495q-102 0 -204.5 42t-159.5 137q-39 64 -39 134q18 166 162 255q41 25 66.5 35t40 13t20.5 8t7 23q-12 8 -12 20q0 13 16 21q24 347 24 472v10q0 94 8 115q11 25 31 25q1 0 13.5 -0.5t20.5 -24.5q5 0 5 -53q-3 -359 -43 -489q-4 -17 -4 -25q0 -4 3 -4t8 2
q64 21 114 24q42 0 80 23q235 141 306 290q43 91 43 172q0 185 -177 288q-85 50 -184 50q-206 -28 -320 -170q-58 -76 -90 -173q-20 -61 -20 -120q0 -34 7 -68h3q11 0 17 -16q3 -9 3 -19t-4.5 -26.5t-29.5 -25.5l-7 -1q-42 0 -59 87q-5 27 -5 56q0 73 32 162q86 199 251 288
q110 59 224 59q58 0 117 -15q146 -44 221 -158q57 -85 57 -190q0 -37 -17 -132t-176 -248q-108 -94 -138 -107q-12 -6 -12 -8t12 -3q18 -2 63 -14q166 -51 227 -154q42 -70 42 -146q-15 -163 -133.5 -270t-291.5 -141q-62 -10 -118 -10zM396 -444q11 0 90.5 3t208.5 74.5
t181 204.5q16 45 16 87q0 66 -52 143.5t-234 112.5q-34 5 -58 5q-41 0 -78 -21q-42 -22 -91 -22h-18q0 -4 12 -4l19 1q17 2 39 2q37 0 106 -7.5t172 -72.5q6 -4 6 -10q0 -14 -12 -14q-3 0 -7 2q-129 83 -264 83q-38 0 -76 -7q-18 -96 -38 -190q-3 -11 -12 -11q-16 0 -16 16
v2q12 87 20 173q-131 -37 -201 -120q-67 -79 -67 -166v-7q10 -136 119 -199q100 -58 235 -58z" />
    <glyph glyph-name="C" unicode="C" horiz-adv-x="943" 
d="M411 -521q-40 0 -118.5 21t-162 139t-106.5 312q-7 55 -7 115q0 308 143 612q66 142 153.5 256.5t182.5 161.5q41 20 81 20q51 0 101 -34q80 -65 80 -177q0 -77 -53 -126q-4 -3 -8 -3q-11 0 -11 11q2 30 2 56q0 190 -104 190q-108 0 -243 -189q-116 -169 -183 -382
q-72 -231 -72 -447q0 -188 66 -328t219 -173q22 -3 44 -3q100 0 210 74.5t201 217t120 305.5q1 6 8 6q10 0 10 -11q-33 -177 -133.5 -336.5t-252.5 -243.5q-86 -44 -167 -44z" />
    <glyph glyph-name="D" unicode="D" horiz-adv-x="1245" 
d="M339 -477q-111 0 -205 61q-121 86 -121 226q0 82 51.5 178t173.5 175.5t296 98.5q8 206 27 403q6 38 37 38q34 0 37 -38v-2q0 -52 -41 -395q0 -1 15 -1h4q189 0 370 -120q7 -5 7 -12q0 -9 -7 -14q-3 -2 -6 -2q-4 0 -8 3q-166 115 -366 115h-13q-24 -194 -31 -266
q-6 -58 -12 -97q-3 -13 -15 -13q-18 0 -18 17q2 59 5 100q8 118 14 256q-186 -22 -305 -111t-162 -202q-21 -56 -21 -108q0 -53 32.5 -125t172.5 -108q45 -10 91 -10q95 0 219.5 51.5t262 176t241 283.5t149.5 324q26 95 26 184q0 65 -24 167.5t-161 196.5q-118 75 -255 75
q-12 0 -93.5 -4t-209 -86.5t-184.5 -225.5q-26 -66 -26 -128q0 -54 34 -91q27 -25 50 -25q29 0 57 25q10 8 13 8t3 -8q0 -44 -47 -66q-32 -12 -59 -12q-40 0 -79 35q-43 38 -43 135q0 84 51 184q84 150 237 228q138 71 290 71q203 -5 329 -117q142 -127 163 -299
q4 -38 4 -77q0 -135 -62 -298t-192.5 -326.5t-291 -276.5t-320.5 -143q-43 -8 -84 -8z" />
    <glyph glyph-name="E" unicode="E" horiz-adv-x="1053" 
d="M561 -505q-57 0 -96 57q-66 97 -66 318q0 44 3 94q9 113 18 160q5 25 5 38q0 12 -8 12q-10 0 -32 -10q-17 -7 -43 -15q-1 -1 -13 -4.5t-27 -8.5q-48 -15 -57 -15q-7 0 -14.5 6t-7.5 20q0 11 13 19.5t53 20.5q71 20 139 35q9 3 22 64q43 215 181 486l8 14q6 10 6 14t-4 4
q-9 0 -86 -23l-32 -10q-82 -24 -193.5 -64.5t-182.5 -76.5q-32 -17 -32 -22q0 -1 3 -1q8 0 41 10l32 9h1q-93 -81 -142 -81q-40 0 -40 31q0 7 8 35t98 73q55 24 209 72.5t346 88.5q24 44 47 44q26 0 36 -28q287 50 457 50q97 0 142 -20q28 -12 28 -25q0 -8 -10 -8l-6 1
q-66 25 -164 25q-185 0 -445 -54q-2 -25 -11.5 -42t-24.5 -38q-27 -32 -69 -113q-47 -89 -112 -305q-21 -67 -21 -81q0 -9 9 -9q6 0 17 3q25 9 71 9h10q12 0 12 -14q0 -4 -6 -7q-15 -7 -29.5 -11.5t-36.5 -9.5t-59 -14q-53 -257 -53 -414q0 -50 13.5 -153.5t107.5 -103.5
q86 0 214 145.5t271 432.5q3 5 8 5q4 0 6.5 -3.5t2.5 -6.5l-1 -4q-313 -601 -514 -601z" />
    <glyph glyph-name="F" unicode="F" horiz-adv-x="954" 
d="M680 -598q-72 0 -72 156q0 14 2 61.5t29.5 177t90.5 318.5l3 10q0 2 -3 2q-6 0 -22 -2q-106 -4 -106 -8q0 -1 16 -7l1 -2q0 -2 -3 -2l-19 1q-15 0 -23.5 -3t-14.5 -3t-10 5q-9 10 -9 20q0 23 31 33q35 7 176 7l10 32q51 145 98 308q66 228 66 379q0 159 -69 223
q-58 55 -141 55q-34 0 -118.5 -20t-216 -131.5t-215.5 -277.5q-74 -146 -74 -313l1 -44q7 -59 39 -90q38 -37 79 -37q30 0 49 21q4 4 5 4t1 -2q0 -14 -25 -41q-30 -31 -73 -31q-151 11 -151 211q0 143 71 302q71 153 190 269t252 172q94 41 177 41q180 -14 233 -153
q33 -74 33 -193q0 -237 -129 -619q-19 -57 -19 -66v-1h13q37 0 37 -17q0 -12 -22 -14q-18 -2 -41 -2q-144 -455 -144 -623q0 -66 30 -77q14 -4 14 -11q0 -12 -21 -17z" />
    <glyph glyph-name="G" unicode="G" horiz-adv-x="944" 
d="M397 -613q-161 32 -176 176q0 99 120 228.5t415 261.5q11 88 11 176l-1 51q0 84 -22 95q-5 3 -14 3q-25 0 -77 -27l-62 -32q-76 -42 -178 -86q-115 -49 -214 -49q-90 0 -150 70q-40 53 -40 128q0 17 6.5 75t67.5 163t161 193q168 142 297 165q38 7 73 7q81 0 152.5 -44.5
t101.5 -126.5q16 -42 16 -80q0 -35 -14 -67q-4 -9 -16 -9q-15 0 -18 14q-44 175 -137 217q-46 21 -96 21q-52 0 -135.5 -33.5t-180.5 -118.5t-147 -165q-79 -127 -79 -224q0 -89 69 -126q33 -17 81 -17q55 0 129 22q114 41 212 98q131 75 186 75q49 0 74 -56q22 -49 22 -166
q0 -51 -4 -115q122 48 132 48q4 0 7 -4t3 -9q-1 -6 -8 -9q-85 -26 -135 -47q-30 -299 -124 -456q-133 -220 -308 -220zM379 -556q49 0 119 40t143.5 173t111.5 371q-1 1 -3 1q-12 0 -90 -40.5t-183.5 -119t-174.5 -177.5q-45 -71 -45 -127q13 -92 83 -115q19 -6 39 -6z" />
    <glyph glyph-name="H" unicode="H" horiz-adv-x="907" 
d="M707 -570q-25 0 -25 113q0 244 108 882q-112 -85 -220 -125q-94 -35 -237 -73q-41 -180 -112 -414q-17 -54 -36 -119q-3 -9 -11 -10q-18 0 -18 18q43 173 84 420l11 80q-117 -40 -161 -79q-41 -36 -41 -60q0 -2 1.5 -15.5t28.5 -13.5h1q0 -3 -7 -5.5t-16 -2.5
q-14 0 -27 14q-15 19 -15 39q0 57 110 119q65 37 141 60l16 83q70 338 70 488q0 134 -53 134q-6 0 -13 -2q-35 -12 -49 -44q-8 -20 -8 -38q0 -45 34 -45h8q0 -5 -13.5 -15t-28.5 -10q-6 0 -13 2q-59 18 -59 84q0 29 18.5 68t68.5 64q27 12 52 12q41 0 77 -31q58 -49 58 -189
q0 -53 -31 -244q-28 -167 -55 -295q116 27 234 72t221 131l2 15q56 329 80 408q41 118 88 118q13 0 18 -18l4 -20q20 -74 20 -149q0 -62 -23.5 -143.5t-107.5 -181.5q-61 -360 -97 -550q-36 -194 -51 -301q-13 -94 -13 -216q0 -4 -4 -9t-9 -6zM894 588q83 126 83 263
q0 53 -14 95q-13 -26 -22 -69q-8 -38 -47 -289z" />
    <glyph glyph-name="I" unicode="I" horiz-adv-x="585" 
d="M248 -561q-2 0 -7 3q-7 5 -7 43q0 136 120 566l2 9q129 446 129 665q0 64 -10 118q-28 122 -106 137q-7 1 -15 1q-72 0 -160 -132q-116 -189 -116 -407q0 -104 18 -146q13 -31 30 -31q7 0 14.5 7.5t7.5 18.5l1 -1q1 -2 2 -6t1 -7q0 -8 -4 -16q-10 -19 -34 -28
q-9 -3 -18 -3q-16 0 -34 9q-58 39 -58 199q0 106 20 188q53 201 146 305.5t190 104.5q91 0 147 -101q46 -83 46 -234q0 -39 -3 -83q-19 -193 -68 -380.5t-98 -342.5q-41 -132 -78 -276q-43 -180 -58 -180z" />
    <glyph glyph-name="J" unicode="J" horiz-adv-x="723" 
d="M167 -578q-95 0 -137 86q-15 31 -15 61t15 60q6 9 15 9q11 0 18 -9q3 -4 3 -9q0 -4 -3 -10q-9 -20 -9 -40q0 -29 26 -68.5t95 -39.5t154.5 101.5t168.5 354.5q78 259 94 513q9 135 9 275q0 121 -7 246q-46 4 -92 10q-63 10 -123 12q-92 -1 -180 -39q-104 -46 -104 -93
q0 -8 4.5 -16t12 -12.5t12.5 -4.5h5q4 0 4 -3q0 -8 -9 -19q-13 -15 -36 -15q-41 0 -61 42q-8 16 -8 33q0 35 39 86t194 81q42 6 81 6q71 0 178 -24q44 -10 83 -16q4 28 22 42q13 10 28 10l10 -1q27 -9 27 -34q0 -12 -9 -21q76 5 118 32.5t42 52.5q0 22 -41 22l-19 -1
q-13 0 -13 12q0 4 3 12t28 8q66 0 66 -45q0 -31 -42.5 -69.5t-143.5 -48.5q10 -126 10 -252q0 -190 -30.5 -441t-166.5 -538q-151 -298 -316 -298z" />
    <glyph glyph-name="K" unicode="K" horiz-adv-x="535" 
d="M586 -665q-13 0 -26 2q-70 12 -126.5 64.5t-103.5 126.5t-89 153q-53 101 -106 174q-2 -106 -2 -211q0 -80 1 -159q0 -14 -14 -14t-15 14q-15 201 -15 297q0 25 1 43q0 40 -1.5 61t-8.5 32t-25 19l-5 -2q-27 -9 -36 -9q-15 0 -15 15q3 48 55 48q16 0 34 -7q1 0 1 22
q0 64 7 236q19 466 94 742q9 26 36 26q8 0 19 -4q20 -7 20 -61q0 -24 -3 -53q-1 -9 -1 -14t-2 -5q-3 0 -4 1q-6 6 -7 8q-33 -174 -63 -409t-44 -454q92 77 185 217t173 290t133 256q44 90 58 113q13 16 31 16q4 0 18 -3t16 -31q-2 -24 -12 -46q-6 -14 -10 -30v-1h-3
q-1 0 -3 3q-314 -636 -547 -800q-40 -29 -42 -50q64 -58 108 -131.5t81 -152.5q30 -62 62 -120q75 -128 142 -160q40 -19 73 -19q22 0 54.5 16t44.5 55q4 8 12 8q13 0 13 -11l-1 -4q-16 -54 -65 -78q-37 -19 -77 -19z" />
    <glyph glyph-name="L" unicode="L" horiz-adv-x="836" 
d="M744 -542q-13 0 -65 3t-152 64q-75 50 -141 112l-37 33q-86 -103 -181 -103q-13 0 -26 2q-128 24 -128 129q0 37 29.5 84t114.5 54h12q80 0 193 -86q115 172 199.5 376.5t143 401t96.5 342.5q45 175 66 216q11 15 25 15q15 0 24.5 -9t9.5 -22q0 -34 -59.5 -259
t-179 -525.5t-296.5 -559.5l45 -39q52 -48 109 -94q120 -92 230 -92q69 0 124.5 35t70.5 100q3 7 9 7q11 0 11 -15q0 -17 -17 -49q-31 -57 -98 -91q-57 -30 -132 -30zM165 -398q7 0 43.5 3t112.5 88q-103 81 -168 81q-12 0 -47.5 -7.5t-50.5 -51.5q-3 -10 -3 -20
q0 -30 27 -59q32 -34 86 -34z" />
    <glyph glyph-name="M" unicode="M" horiz-adv-x="1292" 
d="M1099 -635q-35 0 -67 28q-57 63 -57 199q0 29 9 138q15 194 196 813q137 460 137 579q0 69 -34 69q-28 0 -80 -42q-136 -114 -229 -267.5t-156 -317.5t-109 -310q-51 -166 -99 -269q-45 -98 -103 -98q-33 0 -36 29q-33 302 -36 428q-4 88 -11 126q-10 56 -58 56
q-62 0 -141 -138.5t-114 -266t-35 -283.5q0 -92 20 -189t89 -141q3 -2 3 -8q0 -7 -7 -7q-85 12 -126 88q-50 93 -50 248q0 80 15 177.5t47 183.5q24 64 65.5 141.5t93.5 142t107 89.5q21 9 41 9q33 0 64 -25q73 -73 89 -566l2 -31q29 21 65.5 106t81.5 211q62 173 146 368
t196 349q97 134 207 214q50 36 88 36q10 0 19 -2q55 -24 55 -122l-3 -73q-5 -115 -152 -596q-123 -394 -154 -614q-20 -146 -20 -250q0 -161 50 -161q20 0 29 12l4 10v1q0 8 6 12.5t12 4.5q1 0 6.5 -1.5t5.5 -20.5q0 -52 -45 -65q-14 -4 -27 -4z" />
    <glyph glyph-name="N" unicode="N" horiz-adv-x="949" 
d="M19 -587q-19 0 -19 19q13 431 69.5 789t136.5 615q14 40 39 40q11 0 20 -9t9 -26q0 -5 -1.5 -10.5t-41.5 -176t-89.5 -433t-81.5 -546.5q25 98 54 195q139 434 294.5 710t288.5 404q124 121 194 121h8q76 -10 89 -96q4 -26 4 -58q0 -125 -88 -459q-38 -146 -69 -291
q-37 -173 -37 -316q0 -36 3 -94t22 -108q15 -40 46 -40q8 0 18 3l5 1q11 0 11 -13q0 -11 -9 -14q-18 -6 -34 -6q-33 0 -63.5 32.5t-47.5 102.5q-19 79 -19 172q0 41 9 135q14 167 110 541q74 282 74 371q0 85 -45 85q-33 0 -95 -42q-257 -181 -476 -695
q-99 -231 -168 -463.5t-101 -425.5q-3 -14 -19 -14z" />
    <glyph glyph-name="O" unicode="O" horiz-adv-x="1035" 
d="M390 -455h-10q-139 0 -228 141q-80 128 -80 368q0 37 2 76q-61 132 -61 272q0 30 9 132.5t92.5 254.5t212 246t280.5 96q133 -3 239.5 -116.5t140.5 -326.5q9 -58 9 -122q0 -172 -64 -391q-99 -310 -247.5 -467t-294.5 -163zM397 -407q129 0 266 160q112 132 192 324.5
t98 399.5q4 42 4 83q0 160 -59 300q-105 228 -302 228q-59 0 -151 -34t-194.5 -146.5t-155.5 -268.5q-37 -107 -37 -224q0 -54 8 -110l5 -30q8 -48 10 -48t7 27q22 144 102 306q53 99 107 113q16 4 29 4q33 0 54 -21t21 -44q0 -13 -6 -26q-1 -4 -3 -4q-3 0 -9 9t-15 14
q-9 0 -15.5 2.5t-14.5 3.5q-8 0 -20 -5q-49 -29 -105 -180t-65 -336q77 -100 177 -100q123 0 209 151q40 72 57 143q7 29 7 51q0 33 -15 51q-5 5 -5 11q0 3 2 9q4 9 15 9q6 0 12 -5q23 -27 23 -73q0 -32 -19 -101.5t-91 -162t-170 -120.5q-22 -6 -44 -6q-77 0 -158 75
q5 -120 37.5 -223t94.5 -161q49 -45 117 -45z" />
    <glyph glyph-name="P" unicode="P" horiz-adv-x="883" 
d="M255 -511q-6 0 -13.5 5t-7.5 15l1 50q0 238 -50 419q-80 32 -117 92q-35 56 -35 118q1 73 35 124q-49 149 -49 270q0 48 17 146.5t104.5 194t204.5 129.5q63 19 125 19q53 0 136 -22t160 -118q95 -129 95 -278q0 -13 -5 -101.5t-88.5 -238.5t-204 -248.5t-241.5 -107.5
l-7 -76q-36 -372 -40 -372q-4 -20 -20 -20zM326 14q124 19 241 130.5t188 266.5q59 129 59 253q0 25 -2 49q-23 166 -120.5 245.5t-221.5 79.5q-3 0 -68 -0.5t-174.5 -80t-153.5 -233.5q-18 -62 -18 -136q0 -109 40 -244l3 1q3 5 25 19q4 2 7 2q4 0 8.5 -3.5t4.5 -11.5
q0 -6 -6 -10q-30 -16 -30 -31q0 -14 20 -60q26 -58 78 -226q8 -2 15 -5q13 -5 22 -5q4 0 9.5 2.5t8.5 34.5t5 108q1 133 22 483q3 24 23 33q8 4 16 4q35 0 35 -46v-10q-6 -258 -36 -609zM165 42l1 1l-5 16q-21 52 -80 215q-13 -34 -13 -68q0 -104 91 -161zM248 -176
q3 50 5 79t2 41q0 13 -3.5 16.5t-11.5 4t-18 2.5q17 -67 26 -143z" />
    <glyph glyph-name="Q" unicode="Q" horiz-adv-x="935" 
d="M830 -579q-38 0 -105 22t-170 141q-106 -66 -199 -66q-34 0 -109 20.5t-149 136.5q-86 133 -86 312q0 143 66 291q-78 138 -78 273q0 34 15 135t129 208q104 99 254 99l28 -1q160 -18 257 -129.5t137 -277.5q30 -125 30 -260q0 -44 -7.5 -158t-67.5 -275t-161 -261
q10 -21 69 -83q80 -86 164 -86q26 0 69.5 17.5t86.5 88.5q4 6 10 6q12 -1 12 -11l-2 -7q-40 -80 -111 -116q-38 -19 -82 -19zM366 -436q73 0 161 53q-78 88 -118 100q-30 11 -30 31q0 5 3.5 17.5t28.5 18.5l10 1q63 0 166 -121q76 74 132 210t78 301q11 77 11 153
q0 86 -19.5 208t-107.5 243q-124 157 -282 157q-107 0 -204 -73.5t-131 -221.5q-9 -48 -9 -93q0 -94 30 -175q15 -38 22 -38l2 1q129 210 257 210q19 0 35 -7q44 -20 44 -65q0 -5 -1 -11t-8 -6q-4 0 -7 2q-23 20 -49 20q-23 0 -63 -23t-89 -84.5t-75 -116.5
q108 -133 248 -133q88 0 153 52q7 5 14 5q3 0 10 -3q11 -5 11 -18q0 -7 -7 -13q-81 -65 -185 -65q-72 0 -139 30q-84 41 -115 85q-7 9 -11 9q-5 0 -12 -29q-31 -100 -31 -199q0 -31 7.5 -111t65.5 -173.5t151 -120.5q25 -7 53 -7z" />
    <glyph glyph-name="R" unicode="R" horiz-adv-x="800" 
d="M175 -640q-19 0 -56.5 73t-73.5 222q-45 180 -45 382q0 171 43 353q49 181 119 181q10 0 30.5 -11.5t20.5 -55.5q0 -40 -38 -79h-2l1 5q3 9 4 26q0 16 -12 35q-40 -44 -70 -207q-21 -116 -21 -266q0 -60 7.5 -207.5t92.5 -394.5q34 44 41 108q5 45 5 119l-1 70
q-1 47 -1 108q0 123 5 306q-43 10 -43 33q0 10 11 22t35 16q20 323 105 490q114 223 267 223q55 0 117 -46q65 -50 65 -185q0 -124 -108 -284q-73 -100 -163.5 -167t-164.5 -92q71 -64 123 -144t98 -164q177 -321 277 -321q2 0 43.5 2t77.5 163q4 15 20 15q8 0 15.5 -5.5
t7.5 -15.5l-1 -6q-34 -150 -115 -191q-21 -11 -45 -11q-65 0 -149 85q-91 98 -188 283q-45 85 -94.5 162t-116.5 137q-13 -2 -22 -2h-5q-6 0 -11.5 -2.5t-7.5 -15.5q-4 -19 -4 -133q0 -159 3 -228q3 -52 3 -99q0 -67 -8 -142t-64 -141q-3 -3 -7 -3zM288 177q6 0 32 5t93 54
t133.5 120t108.5 147q56 111 56 193q0 17 -8 71.5t-72 86.5q-25 13 -53 13q-42 0 -107 -39.5t-130.5 -189.5t-83.5 -421v-2q0 -38 31 -38z" />
    <glyph glyph-name="S" unicode="S" horiz-adv-x="628" 
d="M272 -524q-74 0 -144 41.5t-106 125.5q-22 51 -22 104q0 101 43 101q15 0 26.5 -10t11.5 -26l-1 -10q-6 -32 -6 -61q0 -76 54 -132.5t149 -56.5q92 0 160 74q59 64 59 190q0 119 -62 258q-48 107 -110 218q-53 97 -100 198q-93 194 -93 339q0 24 5 80t48.5 117t124.5 75
q16 2 31 2q82 0 157 -54t117 -142q29 -61 29 -116q0 -42 -13 -62q-10 -16 -18 -16q-4 0 -6 5q-27 50 -34 84q-12 49 -39 95q-41 68 -101 103q-46 27 -90 27q-13 0 -48.5 -7t-67.5 -78q-20 -54 -20 -114q0 -33 12 -99q22 -120 166 -384q52 -98 98 -194q87 -188 87 -333
q0 -160 -96 -258q-83 -84 -201 -84z" />
    <glyph glyph-name="T" unicode="T" horiz-adv-x="871" 
d="M637 -498q-13 0 -13 13q37 289 63 576q17 210 86 899q-91 12 -169 12q-112 0 -229.5 -32t-199 -108t-102.5 -157q-2 -10 -2 -17q0 -14 5 -25l1 -5l-11 2l11 -4v-1q3 0 8 -4t11 -6.5t12 -2.5q8 0 20 12l1 -4q0 -3 -3 -9q-14 -31 -62 -31q-39 0 -55 35q-9 20 -9 45
q0 35 23.5 96.5t113 135t248.5 107.5q74 16 164 16q104 0 229 -21q11 50 40 50q32 0 32 -45q0 -9 4 -14q8 -14 176 -44q98 -19 148 -19q48 0 89 11q78 22 78 118v10q0 31 33 31q31 0 31 -31q-4 -71 -76 -123q-57 -41 -151 -41q-26 0 -54 3q-206 30 -272 48q-9 0 -9.5 -6
t-0.5 -12q-43 -441 -107 -844q-40 -262 -84 -600q-3 -14 -18 -14z" />
    <glyph glyph-name="U" unicode="U" horiz-adv-x="814" 
d="M770 -571q-10 0 -20 3q-81 30 -104 179q-15 95 -15 214q0 305 100 886q13 74 18 111l5 31q0 5 -1 5q-5 0 -60 -132q-70 -170 -119 -294q-156 -380 -277 -546q-108 -148 -180 -148q-97 11 -112 199q-5 50 -5 111q0 240 66 522q64 270 127 378q25 44 48 44q11 0 21 -9
q31 -33 31 -75q0 -10 -3 -25.5t-8.5 -25t-7.5 -9.5l-2 1q-4 27 -22 46q-102 -261 -139 -494.5t-37 -390.5t8 -189q8 -41 47 -41q48 3 115 86q114 150 194.5 322.5t145.5 346.5q102 258 137 334q36 85 51 131q8 21 30 21q6 0 14 -3q18 -6 18 -76q0 -95 -49 -378
q-82 -461 -82 -722q0 -142 17 -249q11 -72 21 -99q17 -30 42 -30q10 0 20 6.5t10 20t12 13.5t14 -13q0 -34 -29 -50q-19 -12 -40 -12z" />
    <glyph glyph-name="V" unicode="V" horiz-adv-x="800" 
d="M219 -527q-58 3 -82 46q-21 41 -28 87l-1 4q-17 90 -17 180q0 193 96 517q40 141 68 277q23 113 23 222l-1 46q-4 57 -28 99q-20 33 -58 33q-9 0 -19 -2q-47 -13 -75 -49.5t-28 -70.5q0 -24 23 -24h7q5 0 5 -4q0 -7 -9 -15q-13 -12 -31 -12q-10 0 -22 5q-42 23 -42 67
q0 12 9 50.5t69 89.5q49 41 112 41q14 0 29 -2q107 -25 126 -143q8 -46 8 -100q0 -160 -101 -552q-38 -147 -66 -280.5t-29 -234.5q0 -91 12 -154q15 -80 58 -80q32 0 84 48q143 142 294 535q65 171 125 344q69 201 133 361q109 272 194 272q29 0 57 -27q8 -10 8 -20
q0 -19 -21 -28q-4 -2 -9 -2q-10 0 -18.5 7t-16.5 7q-24 0 -61 -62q-63 -104 -208 -492q-77 -203 -161.5 -407t-171.5 -357q-124 -220 -236 -220z" />
    <glyph glyph-name="W" unicode="W" horiz-adv-x="1282" 
d="M531 -598q-172 31 -215 239q-26 114 -26 270q0 11 0.5 101t36.5 246q-106 -125 -182 -125q-10 0 -54.5 10t-75.5 126q-15 58 -15 125q0 68 22.5 182t123.5 241q10 11 23 11q5 0 17.5 -3.5t26.5 -25t14 -50.5q0 -25 -10.5 -48t-17.5 -23q-2 0 -3 6v6q0 26 -17 46
q-104 -159 -104 -357q0 -197 80 -197q20 0 56.5 21t85.5 85.5t79 130.5q8 14 22 14t24 -11q7 -7 7 -17l-1 -8q-66 -237 -66 -493q0 -30 3.5 -114t39 -182.5t108.5 -123.5q18 -6 39 -6q63 0 151 59q106 75 210.5 235t176 367.5t77.5 425.5v8q0 246 -64 364q-67 125 -154 125
q-76 0 -125 -85q-33 -70 -37 -107q-4 -22 -9.5 -33.5t-24.5 -11.5q-32 0 -32 40q0 23 13 66q41 133 130 173q38 17 76 17q167 0 239 -227q42 -152 42 -309q0 -65 -16 -210.5t-100 -349t-198.5 -356t-234.5 -222.5q-75 -45 -141 -45z" />
    <glyph glyph-name="X" unicode="X" horiz-adv-x="505" 
d="M595 -532q-108 0 -182 128q-97 180 -154 489q-138 -165 -187 -280q-28 -66 -28 -94q0 -20 14 -20h1q1 0 1 -1t-7 -5t-15 -4q-12 0 -21 7q-17 15 -17 43q0 38 20 90q40 106 119 201q52 63 109 123q-21 131 -42 278q-26 195 -57.5 364t-75.5 251q-3 6 -3 14q0 25 16 39
q6 5 13 5t19.5 -6.5t33.5 -46.5q49 -96 90 -345q44 -268 56 -372.5t22 -104.5q5 0 21 21q8 11 20 25q86 104 135 207q63 132 63 203q0 39 -20 39t-20 17q0 20 21 20q55 0 55 -71q0 -6 -3.5 -53t-72.5 -184t-195 -285q6 -56 45 -253q60 -300 161 -384q30 -25 66 -25
q35 0 75 22l4 1q10 0 10 -9l-1 -5q-29 -39 -89 -39z" />
    <glyph glyph-name="Y" unicode="Y" horiz-adv-x="1205" 
d="M450 -658q-67 0 -112 40q-53 48 -53 128q23 161 169 291t458 238q113 415 113 868q0 19 -0.5 64t-22.5 57q-3 2 -8 2q-22 0 -67 -56q-57 -72 -142 -196q-241 -352 -403 -511q-126 -124 -225 -124q-85 0 -123 72q-34 66 -34 164q0 29 8 115.5t70 237.5t165 270
q50 51 89 51q4 0 26.5 -3t37.5 -36q6 -12 6 -23q0 -18 -16 -32q-2 -2 -5 -2q-5 0 -5 6l1 8q0 7 -7 14q-11 11 -22 11q-45 0 -139 -167q-36 -65 -49 -95q-97 -211 -97 -375q0 -49 16 -108.5t89 -59.5q72 0 198 113q111 104 208.5 234.5t179.5 254.5q79 118 142 199
q75 96 120 96q36 0 57 -72q11 -37 16 -177q1 -29 1 -61q0 -355 -92 -712q206 59 223 59q11 0 11 -13q0 -9 -9 -12q-117 -29 -233 -65q-96 -329 -222.5 -490t-243.5 -192q-40 -11 -74 -11zM433 -604q24 0 84.5 17t177.5 155q135 171 208 439q-256 -94 -389 -207
q-182 -156 -182 -294q0 -44 23 -74q28 -36 78 -36z" />
    <glyph glyph-name="Z" unicode="Z" horiz-adv-x="816" 
d="M25 -488q-15 0 -23 13q-2 4 -2 8q0 6 4 14q22 37 411 557q407 544 565 730q129 143 174 176q22 18 22 23q0 2 -6 2l-18 -2q-21 -3 -60 -3q-66 0 -99 3q-223 19 -311 19q-152 0 -212 -83q-26 -36 -26 -74q0 -78 78 -104q9 -2 9 -4q0 -4 -27 -4q-48 0 -83 40t-35 96
q0 12 5 54t95 100q63 34 155 34q99 0 258 -27q146 -24 227 -24q76 0 119 28q5 3 10 3q2 0 7.5 -2.5t8 -8t2.5 -8.5q0 -4 -3 -8q-43 -57 -93 -109q-82 -86 -200 -236q-88 -111 -257 -329q-545 -706 -593 -761q-18 -21 -18 -24q0 -1 2 -1q3 0 15 5q27 12 97 24q41 5 78 5
q85 0 205 -37q108 -34 174 -34q171 0 208 126q5 12 16 12q7 0 12.5 -5t5.5 -12v-5q-23 -83 -102 -121q-66 -32 -140 -32q-45 0 -138 25q-152 42 -255 42q-39 0 -103 -8.5t-142 -66.5q-8 -6 -17 -6z" />
    <glyph glyph-name="bracketleft" unicode="[" horiz-adv-x="406" 
d="M18 -752q-9 0 -13.5 28t-4.5 110q0 152 18 691q28 824 28 848q0 80 10 138q13 80 81 80q40 0 106 -27q24 -12 43.5 -29t19.5 -28q0 -16 -46 -18l-50 5l-75 4q-14 0 -19 -2q-5 -11 -23 -578q-28 -876 -45 -1143l57 29q52 28 70 28q21 0 21 -23q0 -28 -77 -64
q-34 -14 -91 -46q-5 -3 -10 -3z" />
    <glyph glyph-name="backslash" unicode="\" horiz-adv-x="531" 
d="M415 -322q-11 0 -16 11q-36 83 -208 552q-184 499 -191 555q0 14 10 25t27 11q11 0 20 -10q40 -58 314 -929q61 -194 61 -200q0 -15 -17 -15z" />
    <glyph glyph-name="bracketright" unicode="]" horiz-adv-x="392" 
d="M151 -751q-35 0 -71 17q-31 13 -53 13q-13 2 -21 20q-6 11 -6 24q0 6 2 19t24 19h8q22 0 61 -19q35 -21 56 -21q8 0 22 8.5t20.5 118.5t10.5 371q3 381 34 1244q-5 2 -12 2t-20.5 -2.5t-28.5 -9.5t-15 -15l1 -10q0 -18 -11 -18q-10 0 -23 13q-17 20 -17 47q0 15 11 29
q30 30 80 42q13 3 24 3q33 0 53 -27q13 -32 13 -217q0 -458 -39 -1255q-13 -256 -17 -289q-21 -99 -66 -106z" />
    <glyph glyph-name="asciicircum" unicode="^" horiz-adv-x="342" 
d="M213 727q-9 0 -23 11t-28 37t-20 49q-62 -68 -117 -68q-25 0 -25 12q0 9 8 14h3.5t3.5 1q16 16 31 28q63 55 88 109q11 24 24 24q6 0 13 -2q15 -4 18 -12.5t3 -20.5l-1 -17q0 -62 36 -107q16 -21 16 -32q0 -10 -13 -20q-8 -6 -17 -6z" />
    <glyph glyph-name="underscore" unicode="_" horiz-adv-x="468" 
d="M40 -205q-6 0 -19.5 1.5t-19.5 24.5l-1 11q0 29 42 36l29 3q81 6 127 6q32 0 77 -3q93 -5 93 -32q0 -29 -60 -29q-122 0 -209 -13q-37 -5 -59 -5z" />
    <glyph glyph-name="grave" unicode="`" horiz-adv-x="207" 
d="M93 732q-13 0 -34 14.5t-40 46.5t-19 78q3 60 38 60q8 0 16 -5q11 -6 13 -19q20 -110 34 -140q6 -14 6 -23q0 -12 -14 -12z" />
    <glyph glyph-name="a" unicode="a" 
d="M304 -239q-84 9 -92 140v8q0 85 38 189q8 22 8 27v2q-5 0 -47 -49q-108 -116 -166 -116h-7q-56 9 -56 81q2 87 70 176q64 74 124 81q13 2 25 2q44 0 82.5 -26t50.5 -59q3 -8 3 -15q0 -20 -25 -25q9 -14 9 -36q0 -31 -15 -100q-20 -87 -20 -138q0 -40 13 -75q7 -14 19 -14
q14 0 43 29.5t71 97t73 121.5l22 38q4 5 8 5q9 -2 9 -10l-1 -4q-78 -168 -100 -209q-71 -121 -139 -121zM57 -4l7 1q52 18 147 127q51 60 67 65q0 5 -30 22q-25 13 -49 13q-46 0 -90 -53q-32 -37 -50.5 -79.5t-19.5 -70.5q0 -25 18 -25z" />
    <glyph glyph-name="b" unicode="b" horiz-adv-x="494" 
d="M118 -233q-59 0 -90 39q-16 21 -16 49q0 36 25 85q-44 51 -53 266q-2 41 -2 82q0 181 32 383q22 132 50 202q47 115 97 115q23 0 34 -23q4 -8 4 -14q0 -9 -6 -16q-1 -1 -3 -1q-18 0 -35 -33q-20 -38 -42 -122q-59 -254 -59 -645q0 -158 1 -167q23 34 54 113
q39 108 99 201q37 50 76 50q78 -22 93 -156q2 -26 2 -47q0 -9 1 -10l28 1q33 0 93 -15q7 -3 8 -9q0 -14 -14 -14q-48 13 -98 13l-20 -1q-20 -161 -90 -238q-79 -88 -169 -88zM105 16q89 73 210 96q2 22 2 43q0 111 -37 134q-5 3 -10 3q-59 0 -165 -276zM109 -177
q16 0 51.5 12.5t84 76t67.5 172.5q-76 -17 -140 -60.5t-94 -94.5q-16 -27 -16 -52q0 -20 11 -38q13 -16 36 -16z" />
    <glyph glyph-name="c" unicode="c" horiz-adv-x="333" 
d="M113 -145q-83 6 -113 130q-14 62 -14 114t21.5 117t77.5 95q23 13 45 13q32 0 63 -27q29 -30 29 -66q0 -24 -11 -38q-6 -8 -15 -8q-19 0 -36 30t-30 30q-8 0 -17 -6q-40 -30 -58 -108q-12 -50 -12 -99q0 -27 7 -77t52 -68q8 -3 16 -3q44 0 116 74q63 68 101 152q3 6 9 6
q10 -1 10 -11l-1 -5q-51 -117 -121 -185q-62 -60 -119 -60z" />
    <glyph glyph-name="d" unicode="d" horiz-adv-x="607" 
d="M397 -248q-10 0 -32.5 6t-45.5 40q-35 62 -35 174q0 19 4 98.5t29.5 213t39.5 187.5l4 18l-77 -253q10 -28 10 -52q0 -36 -24 -36q-6 0 -15 3q-73 -186 -136 -226q-27 -18 -50 -18q-29 0 -50 31q-33 48 -33 131q4 116 65 206q49 63 112 63q65 -1 108 -71q129 423 184 635
q19 72 37 116q8 20 28 20q10 0 18 -5q12 -6 12 -22q0 -28 -51 -249q-31 -132 -64 -288q-79 -367 -79 -540v-56q0 -52 38 -72q7 -2 13 -2q32 0 72 53q63 83 129 247q3 6 11 6q10 0 10 -8q0 -7 -46 -110q-85 -188 -136 -224q-25 -16 -50 -16zM68 -66q24 0 64 44q69 86 106 191
q-9 14 -16 28q-35 66 -61 66q-20 0 -48 -30q-53 -63 -71 -151q-8 -40 -8 -70q0 -38 12 -62q8 -16 22 -16z" />
    <glyph glyph-name="e" unicode="e" horiz-adv-x="391" 
d="M141 -104h-11q-65 0 -111 63q-34 53 -34 113q0 17 8 65t54 110.5t102 82.5q16 5 30 5q38 0 69 -35q21 -31 21 -65q0 -25 -18.5 -69.5t-76.5 -85.5q-42 -29 -85 -29q-17 0 -34 4q0 -121 95 -121q45 0 111.5 37.5t130.5 140.5q3 4 8 4q8 -1 8 -8l-1 -5q-49 -87 -121 -144.5
t-145 -62.5zM69 100q88 13 126 54t38 78q0 1 -0.5 20.5t-32.5 24.5h-4q-30 0 -79 -58q-15 -18 -30 -46q-24 -47 -24 -64q0 -9 6 -9z" />
    <glyph glyph-name="f" unicode="f" horiz-adv-x="338" 
d="M101 -576q-22 0 -49 26q-79 89 -79 384q0 196 43.5 444t154.5 450q53 88 91 88q6 0 16 -4q15 -7 15 -33q0 -12 -7 -22q-91 -125 -145 -311t-74 -341q47 -27 113 -27q8 0 51 2t105 27h2q10 0 10 -11q0 -5 -4 -7q-78 -32 -158 -32q-40 0 -80 8q90 -142 90 -363
q0 -175 -53 -251q-19 -27 -42 -27zM99 -515q51 0 65 193q2 23 2 46q0 109 -39 231q-25 82 -62 120q-4 -4 -9 -78q-10 -122 -10 -247q0 -143 16.5 -204t36.5 -61z" />
    <glyph glyph-name="g" unicode="g" horiz-adv-x="558" 
d="M106 -655q-95 4 -129 109q-9 29 -9 62q0 61 38.5 159.5t186.5 235.5q105 91 132 104q12 7 18 12.5t6 28.5q0 44 3 86q2 24 2 41q0 39 -10 39h-7q-7 -1 -75 -87q-32 -39 -81 -95q-55 -61 -103 -61q-38 0 -61 26q-31 37 -31 89q0 13 6 53.5t52.5 97.5t120.5 71l22 2
q31 0 53 -16q33 -23 33 -60q0 -14 -7 -25q-16 -23 -38 -23q-17 0 -17 16v5l-2 5q-3 5 -6 15q-5 8 -16 8q-14 0 -34 -10q-62 -32 -90 -97q-14 -34 -14 -62q0 -54 40 -54q26 0 68 45q37 39 76 90q98 131 137 131q17 0 29 -16q26 -34 26 -185v-11q98 49 134 49q20 0 20 -11
t-10 -13q-76 -19 -145 -56q-12 -281 -72 -439.5t-138 -216.5q-57 -42 -108 -42zM91 -590q57 0 126 100t113 349q10 68 15 136q-200 -140 -275 -271q-64 -113 -64 -192q15 -112 76 -121z" />
    <glyph glyph-name="h" unicode="h" horiz-adv-x="519" 
d="M52 -212q-16 0 -37.5 58t-29.5 213q-2 35 -2 73q0 354 129 673q18 55 59 95q12 9 24 9q4 0 15 -2.5t19 -22.5q4 -8 4 -15q0 -11 -16 -33q-19 -20 -42 -76q-74 -201 -106 -430q-23 -167 -23 -317q0 -153 16 -153q3 0 11 6q15 11 78 166q83 213 123 231q9 3 17 3
q25 0 36 -34.5t15 -98.5q4 -51 13 -103q17 -85 42 -85q5 0 23.5 13t70.5 104l29 48q6 7 14 7q14 -1 14 -15q0 -3 -2 -7q-22 -39 -38 -70q-30 -60 -52 -91q-26 -37 -65 -37q-46 0 -71.5 49.5t-35 118t-10.5 110.5q-1 25 -2 25q-21 -20 -37.5 -52.5t-38.5 -84.5
q-34 -85 -120 -254q-12 -21 -24 -21z" />
    <glyph glyph-name="i" unicode="i" horiz-adv-x="259" 
d="M68 334q-9 0 -19 5q-20 13 -20 36q0 18 13 29q8 7 20 7q10 0 22 -5q21 -17 21 -35q0 -2 -1 -12.5t-18 -19.5q-9 -5 -18 -5zM82 -61q-25 0 -50.5 26.5t-35.5 91.5q-6 36 -6 72q0 29 4 57q19 122 70 122q22 0 32 -24q3 -7 3 -14q0 -15 -11 -31q-5 -7 -6 -7t-2 -1
q-10 -41 -16 -106q-3 -29 -3 -55q0 -105 42 -105q32 0 88 60q44 47 68 88q3 5 8 5q10 -2 10 -9q0 -3 -2 -6q-87 -123 -145 -151q-27 -13 -48 -13z" />
    <glyph glyph-name="j" unicode="j" horiz-adv-x="204" 
d="M26 453q-28 0 -39 26q-2 5 -2 11q0 13 11 29q11 11 25 11q35 0 39 -39q-1 -38 -34 -38zM-219 -603q-40 0 -70 29q-39 38 -39 94l1 13q16 113 102 194.5t185 145.5l20 14q11 128 11 303q0 145 -8 161t-8 26t7 21q15 18 30 18q11 0 32 -15q23 -19 23 -181q0 -172 -14 -280
q92 67 152 165q4 6 11 6q12 -1 12 -12l-2 -7q-54 -99 -178 -193q-37 -248 -100 -363t-129 -133q-20 -6 -38 -6zM-218 -550q45 0 102.5 83t90.5 314q-54 -38 -112.5 -85t-99.5 -104t-45 -122q0 -72 51 -84q6 -2 13 -2z" />
    <glyph glyph-name="k" unicode="k" horiz-adv-x="508" 
d="M40 -209q-1 0 -14 1t-23 48q-17 113 -17 229q0 240 58 461q39 148 85 218q64 90 116 90q22 0 22 -16q0 -9 -11 -23q-76 -87 -118 -223q-73 -233 -81 -547q-1 -48 -3 -80l-1 -77q0 -17 1 -17t3.5 7.5t6 14.5t35.5 88q26 67 26 84q0 4 -2 5q-13 3 -13 18q0 19 18 19h18
q83 192 153 192q25 0 32 -33q2 -8 2 -16q0 -46 -51 -114q-25 -30 -44 -43t-29 -15.5t-15 -2.5h-4q0 -1 2 -2q11 -8 42 -46q36 -52 53 -70q28 -32 50 -32q25 0 59 34t65.5 83.5t47.5 85.5q2 4 6 4q8 -2 8 -8v-2q-18 -65 -67.5 -140.5t-107.5 -89.5h-8q-54 0 -108 78
q-6 10 -13 18q-45 67 -60 67q-15 -1 -33 -72q-16 -54 -51 -149q-12 -27 -35 -27zM174 97q68 22 109 104q13 28 13 40q0 10 -7 10q-6 0 -31 -14t-84 -140z" />
    <glyph glyph-name="l" unicode="l" horiz-adv-x="295" 
d="M94 -150q-42 0 -72 71q-42 98 -42 336q0 261 51 463q33 136 76 136q15 0 22 -15q1 -2 2 -2q7 -9 7 -22q0 -14 -12 -56q-38 -148 -60 -319q-22 -177 -22 -325q0 -119 21 -185q13 -42 39 -42q19 0 45 23q89 87 148 196q2 3 5 3q9 0 9 -6l-1 -5q-109 -206 -178 -241
q-20 -10 -38 -10z" />
    <glyph glyph-name="m" unicode="m" horiz-adv-x="790" 
d="M575 -195q-35 0 -54 45q-14 33 -14 84q0 108 70 333q23 71 23 92q0 9 -7 9q-8 0 -23 -9q-35 -22 -71.5 -71t-73.5 -107q-101 -163 -145 -163q-23 0 -41 35q-8 18 -10.5 30.5t-5.5 12.5q-5 0 -33 -54l-31 -58q-53 -94 -95 -94q-1 0 -22.5 0.5t-42.5 64.5q-14 42 -14 96
q0 28 4 60q9 68 25 100q20 40 45 40q9 0 19 -8t13 -24q0 -14 -10 -49q-19 -59 -19 -122q0 -10 1 -32t4 -46t7 -29h2q20 0 75 102q47 88 71 88q22 0 52 -58q3 -6 9 -6q20 0 89 111q36 55 78 112q91 126 158 126q10 0 34.5 -7.5t24.5 -63.5q-7 -93 -39 -183q-45 -137 -48 -256
q0 -59 15 -59l2 1q62 38 115.5 121t78.5 144q3 6 10 6q10 0 10 -7l-1 -4q-130 -303 -235 -303z" />
    <glyph glyph-name="n" unicode="n" horiz-adv-x="498" 
d="M72 -131q-40 4 -60 60q-23 63 -23 167q0 59 10 120q16 107 63 107q17 0 28 -17q13 -22 13 -33q-1 -11 -9 -23q-32 -48 -32 -160q0 -21 1.5 -57.5t6 -74t10.5 -41.5h1q16 0 66 121q42 104 105 222q20 31 41 31q10 0 32 -16q27 -22 38 -145q14 -164 48 -164q10 0 26.5 17
t35 55.5t26.5 68.5q3 7 9 7q10 0 10 -12q-19 -114 -69 -156q-24 -21 -49 -21q-24 0 -60 32q-48 41 -56 233q-3 33 -5 46q-35 -35 -59 -90.5t-43 -113.5q-22 -68 -46 -115.5t-59 -47.5z" />
    <glyph glyph-name="o" unicode="o" horiz-adv-x="388" 
d="M112 -60h-4q-67 0 -104 64q-19 34 -19 78q0 41 16 89q19 45 43 67q19 19 28 36q39 69 89 69q82 -14 109 -93q13 -31 13 -67q0 -53 -27 -117q74 1 135 45l4 1q7 0 7 -9q0 -4 -3 -6q-69 -50 -154 -53q-63 -102 -133 -104zM230 69q29 56 29 104q0 97 -67 128q-12 6 -23 6
q-31 0 -56 -41q35 -8 35 -31q0 -10 -8.5 -21.5t-24.5 -13.5h3l-1 -1q-11 0 -11 -17q0 -9 8.5 -29.5t39.5 -48t76 -35.5zM119 -16q35 0 79 41q14 14 14 20q0 5 -18 7q-65 6 -111 76q-8 17 -9 17q-2 0 -4 -6q-10 -31 -10 -73q0 -56 32 -75q13 -7 27 -7z" />
    <glyph glyph-name="p" unicode="p" horiz-adv-x="538" 
d="M-103 -651q-6 0 -14 4.5t-8 33.5q0 86 17.5 234.5t52.5 314t81 282.5q49 125 98 125q15 0 23.5 -10.5t8.5 -24.5q0 -18 -19 -33q-51 -49 -141 -459q-36 -164 -53 -275q53 160 84 276q34 130 79 248.5t141 273.5q42 62 90 62q64 -9 90 -87q11 -33 11 -79q0 -61 -20 -144
l20 -1q52 0 101 22l6 2q6 0 6 -7q0 -9 -17 -17q-26 -13 -85 -13l-35 1q-69 -217 -184 -217q-92 13 -109 94q-3 12 -3 24q0 42 39 77q45 41 164 41l27 -1q22 78 22 154l-1 38q-9 68 -39 68q-54 0 -142 -168q-42 -83 -66 -152t-52 -173q-39 -145 -152 -499q-6 -15 -21 -15z
M212 -90q33 0 75 53q37 54 57 119h-10q-101 0 -140 -37q-36 -33 -36 -70q0 -6 4 -30.5t41 -33.5z" />
    <glyph glyph-name="q" unicode="q" horiz-adv-x="506" 
d="M226 -620q-86 13 -86 196q0 132 78 347q83 222 83 242q0 5 -2 5q-7 0 -43 -48q-103 -142 -175 -165q-10 -3 -19 -3q-35 0 -62 47q-18 34 -18 90q0 55 26 116q58 120 148 120q66 0 87 -60q5 -15 5 -28q0 -36 -31 -49q-10 -5 -17 -5q-19 0 -19 19q0 11 1 12l1 2l1 -1
q-12 35 -32 35q-6 0 -23 -7t-43 -53q-34 -62 -34 -135q0 -62 27 -62q26 0 67 37.5t83 90t66 85.5q15 20 17.5 20.5t5.5 0.5q23 0 35.5 -20.5t12.5 -44.5q0 -47 -33 -146l20 -1q45 0 88.5 24.5t66.5 75.5q3 5 8 5q9 -2 9 -10l-1 -4q-27 -58 -81 -88q-47 -26 -101 -26h-15
q42 -124 42 -252q0 -40 -4 -80q-20 -175 -73 -240q-34 -42 -66 -42zM239 -571q22 0 53.5 49.5t45.5 173.5q3 29 3 61q0 104 -32 238l-6 -18q-86 -233 -98 -353q-4 -36 -4 -64q0 -87 38 -87z" />
    <glyph glyph-name="r" unicode="r" horiz-adv-x="286" 
d="M103 -109q-40 0 -67 46q-52 101 -52 212q0 98 28 152q17 33 37 33q14 0 30 -16q9 -13 9 -23q0 -13 -9 -28q-19 -30 -19 -118q0 -26 6 -73.5t21 -91.5t19 -44q28 22 41.5 77.5t21.5 118.5q9 78 25 128q12 34 35 34q16 0 29 -10q23 -17 38 -17h1q8 0 13 9t12 9q10 0 16 -8
q3 -4 3 -9q0 -3 -2 -8q-9 -22 -35 -25q-29 0 -66 26q-12 9 -18 9q-11 0 -15 -43l-19 -133q-20 -201 -83 -207z" />
    <glyph glyph-name="s" unicode="s" horiz-adv-x="228" 
d="M-9 -261h-3q-50 0 -56 56v8q0 59 93 168l-13 47q-43 127 -43 204q0 6 1 35.5t33 60.5q21 16 42 16q11 0 22 -5q28 -11 28 -43q0 -34 -30 -34q-7 0 -14 4q-6 -24 -6 -48q0 -22 7 -55.5t37 -122.5q60 48 134 73l4 1q7 0 7 -10q0 -7 -6 -9q-74 -26 -134 -74q14 -59 14 -105
q0 -59 -32 -111.5t-85 -55.5zM-21 -233q25 0 46 42q13 25 13 68q0 32 -7 72q-22 -27 -44 -65q-31 -53 -31 -85t23 -32z" />
    <glyph glyph-name="t" unicode="t" horiz-adv-x="361" 
d="M47 -351q-24 0 -41 22q-38 49 -38 177q0 25 5 125t74 343t203 515l-94 27q-239 76 -364 76q-39 0 -106 -9.5t-135 -88.5q-43 -53 -43 -80q0 -6 2 -10t3 -5l1 -1q-8 -13 -18 -13q-22 0 -32 38q-2 8 -2 17q0 69 83 137q92 69 216 69q143 0 364 -83q106 -39 138 -39
q10 0 18 3.5t17 3.5q26 0 34 -32q83 -20 146 -20q54 0 92 15q58 23 58 63q0 17 -11 37q-5 9 -5 16q0 8 9 18t26 10q28 -1 28 -47q0 -63 -79 -105q-56 -30 -141 -30q-58 0 -130 14q-2 -3 -12 -23.5t-23 -48t-23.5 -51t-14.5 -31.5q-90 -207 -145.5 -406t-71.5 -347
q-6 -52 -6 -92q0 -73 19 -106q10 -19 27 -19q29 0 92.5 73t193.5 348q3 5 7 5h3q8 0 8 -10l-1 -5q-212 -450 -331 -450z" />
    <glyph glyph-name="u" unicode="u" horiz-adv-x="511" 
d="M329 -208q-67 1 -89 132q-7 39 -7 82q0 60 13 128q-42 -69 -103 -137q-39 -39 -72 -39q-19 0 -36 14q-45 38 -45 152q0 72 20 117q23 53 57 53q9 0 16 -4q14 -9 14 -28q0 -13 -12 -44q-27 -71 -27 -133q0 -86 25 -86t72 57q66 78 112 163q13 42 24 63q16 30 32 30
q10 0 16 -10.5t6 -23.5q0 -34 -12 -84q-33 -152 -33 -249q0 -47 9 -74q15 -44 42 -44q8 0 33 11.5t65.5 85t60.5 181.5q1 6 6 7q5 0 8.5 -2.5t3.5 -7.5v-2q-101 -308 -199 -308z" />
    <glyph glyph-name="v" unicode="v" horiz-adv-x="420" 
d="M112 -173q-11 0 -33 24q-40 43 -98 297l-6 23q-12 44 -12 73q0 24 21 34q8 3 16 3q34 0 50 -95l17 -86q40 -200 52 -220q37 51 76.5 149.5t58.5 158.5v7q0 38 11 61t26 23q17 0 17 -59l-1 -22q0 -29 11 -68q19 -57 63 -57q18 0 35 13q2 2 4 2q8 0 8 -7q0 -2 -3 -5
q-25 -19 -55 -19q-6 0 -29 3.5t-49 29.5q-16 18 -22.5 32.5t-7.5 20t-2 5.5t-3 -9q-13 -70 -94 -255q-27 -57 -51 -57z" />
    <glyph glyph-name="w" unicode="w" horiz-adv-x="624" 
d="M292 -151q-42 0 -85 38.5t-54 132.5q-41 -50 -87 -50q-37 0 -60 37q-16 26 -16 70q0 27 6.5 62t25.5 75t44 60q11 9 21 9q13 0 25 -13q29 -34 29 -65q0 -25 -24 -53h-1q-1 0 -2 2q-4 16 -20 29q-4 0 -17.5 -38t-23.5 -103v-7q0 -32 29 -32q14 0 35.5 14.5t33.5 56.5
q5 14 18 14q15 0 18 -14q35 -174 113 -174q83 0 145 174q-52 32 -77 86q-30 64 -30 136q0 79 35 112q24 24 51 24q72 -6 99 -117q5 -25 5 -55q0 -74 -31 -180q19 -4 37 -4t44.5 6.5t49.5 38.5q5 5 11 5q11 -1 11 -10q0 -4 -2 -7q-45 -59 -117 -59q-20 0 -33 4l-7 1
q-3 0 -7 -12t-19 -44q-76 -150 -173 -150zM452 98q22 80 22 149q0 25 -7 81q-8 69 -50 69q-37 0 -51 -51q-7 -25 -7 -53q0 -133 93 -195z" />
    <glyph glyph-name="x" unicode="x" horiz-adv-x="342" 
d="M-155 -304q-36 1 -52 38q-5 12 -5 28q0 33 28 90.5t141 153.5q18 15 30 23.5t16.5 13.5t4.5 12q-1 7 -6 21q-9 26 -24 94q-16 72 -16 114q0 47 31 47q15 0 25 -13.5t14 -28t8 -39.5q7 -39 34 -148q60 55 60 86q0 15 -7.5 27t-7.5 18q0 9 10 9q9 0 20.5 -11t11.5 -35
q0 -53 -78 -130l5 -16q17 -69 38 -127q29 -82 66 -82q47 0 106 128q28 61 46 136q1 6 7 6q9 0 9 -8v-3q-78 -292 -179 -292q-86 0 -158 199q-114 -111 -165 -207q-14 -27 -14 -45q0 -19 16 -29q5 -2 10 -2q14 0 32 18l-6 -8q-24 -38 -51 -38z" />
    <glyph glyph-name="y" unicode="y" horiz-adv-x="542" 
d="M175 -621q-96 5 -122 104q-9 29 -9 62q0 77 59.5 199.5t276.5 281.5v29q0 43 -2 84l-3 58q0 43 -10 43q-4 0 -14 -8q-17 -12 -79 -98q-43 -60 -90 -115q-60 -69 -106 -69q-37 0 -59 36q-29 46 -29 127q0 45 10 93q16 78 57 78q5 0 16 -2t18 -23q2 -10 2 -18q0 -6 -2 -14
l-10 -19q-19 -63 -19 -130q0 -80 30 -80q22 0 68 48q74 78 136 174q33 49 54 68q14 12 31 12q50 0 67 -74q12 -58 12 -151q74 43 86 43q13 0 13 -13q0 -4 -6 -8q-54 -21 -73 -34q-14 -10 -18 -25.5t-4 -48.5q-1 -38 -10 -117q-36 -272 -119 -386q-78 -107 -152 -107z
M159 -561q41 0 95.5 63.5t96.5 250.5q24 121 29 244q-173 -131 -240 -251q-61 -108 -61 -186q0 -8 4 -53.5t54 -63.5q11 -4 22 -4z" />
    <glyph glyph-name="z" unicode="z" horiz-adv-x="322" 
d="M-100 -196q-12 0 -19 7t-7 15q0 12 45 113q118 269 170 321l8 7l-92 2q-112 0 -123 -24q14 -7 14 -11v-1q-12 -28 -35 -28q-4 0 -20 3.5t-30 31.5q-4 9 -4 18q0 21 22 45q31 27 85 27q58 0 154 -24q43 -10 69 -13q25 11 42 11q14 0 14 -10q0 -9 -7 -14
q-46 -31 -87.5 -105t-82.5 -165q-13 -29 -27 -57v-1h5q9 3 28 3q5 0 22 -0.5t62 -24.5q31 -22 59 -22q3 0 19.5 0.5t60.5 50.5q59 60 77 142q1 7 8 8q6 0 10 -3.5t4 -6.5t-2 -7q-104 -215 -183 -215q-34 0 -70 20q-39 22 -68 22q-26 0 -57 -19q-41 -96 -64 -96z" />
    <glyph glyph-name="braceleft" unicode="{" horiz-adv-x="492" 
d="M222 -639h-4q-28 0 -53 19q-104 85 -131 513q-6 72 -10 91l-5 -1q-5 0 -12 6.5t-7 22.5q0 12 10 29q25 53 36 140t18 198q22 298 65 505q65 269 161 269q31 0 57 -36q45 -59 45 -177q0 -52 -13 -96q-19 -66 -29 -66q-1 0 -1 3v6q0 26 -7.5 82.5t-22.5 108t-35 51.5
q-35 -9 -62 -107q-44 -152 -74 -388q-52 -364 -78 -467q-3 -14 -3 -19q0 -3 2 -5q9 -9 17 -32q15 -44 31 -188q44 -412 101 -412q15 0 33 23q6 8 11 8q3 0 10 -4t7 -21q0 -8 -5 -18q-23 -37 -52 -38z" />
    <glyph glyph-name="bar" unicode="|" horiz-adv-x="183" 
d="M55 -260q-6 0 -16 5q-17 7 -17 180q0 101 -16 568q-6 195 -6 240q0 92 9.5 111.5t31.5 19.5q14 0 23 -16q13 -23 13 -108q0 -10 1 -18l5 -955q-3 -27 -28 -27z" />
    <glyph glyph-name="braceright" unicode="}" horiz-adv-x="293" 
d="M98 -635q-9 0 -21 12t-12 35q0 19 16 28q23 13 28 90t5 185v39q0 124 11 233q-49 12 -65 93q-11 63 -11 148q0 106 17 322q17 205 17 320q0 91 -15 151q-8 25 -15 25q-12 0 -18 -39q-4 -22 -4 -47l1 -21q-4 0 -16 34q-16 42 -16 74q0 63 28 89q16 16 34 16
q11 0 32.5 -9.5t41.5 -69.5q22 -83 22 -212q0 -162 -28 -444q-19 -211 -19 -289q0 -81 22 -81h2q10 38 26 38q4 0 11.5 -6.5t14.5 -52.5q6 -40 6 -121q0 -120 -12 -286q-9 -123 -27 -180q-25 -74 -56 -74z" />
    <glyph glyph-name="asciitilde" unicode="~" horiz-adv-x="597" 
d="M25 -12q-12 0 -18.5 10.5t-6.5 24.5q0 11 5.5 32.5t37.5 49.5q30 22 65 22q44 0 130 -37q79 -36 134 -36q53 0 87 66q6 10 16 10t16 -6.5t6 -14.5v-5q-31 -83 -120 -93q-23 -3 -45 -3q-67 0 -137 24q-66 22 -81 22q-19 0 -38 -22l-1 -2q-9 -13 -24.5 -27.5t-25.5 -14.5z
" />
    <glyph glyph-name="exclamdown" unicode="&#xa1;" horiz-adv-x="269" 
d="M132 333q-31 0 -38 37q0 23 17 32q10 6 20 6q8 0 20.5 -5t17.5 -33q-1 -22 -17 -31q-10 -6 -20 -6zM13 -283q-13 0 -13 32q0 31 25 181q29 203 54 288q16 56 40 56q13 0 28 -15q11 -9 11 -25q0 -17 -21 -89q-27 -90 -92 -365q-15 -63 -32 -63z" />
    <glyph glyph-name="cent" unicode="&#xa2;" horiz-adv-x="327" 
d="M67 -272h-2q-8 0 -8 11q7 59 11 85l4 31q0 6 -7 8q-12 6 -20 16q-44 58 -45 174q0 120 36 220.5t105 114.5q5 47 13 93q4 18 16 18q5 0 11.5 -5.5t6.5 -32.5q0 -15 -3 -57q-3 -19 -6 -19q-1 0 -3 5q0 -3 -2 -9q53 -36 53 -124q0 -27 -7 -42q-12 -25 -27 -25h-10
q-9 1 -12 29l-1 3q-1 9 -16 46q-45 -285 -55 -363q37 13 57 62q5 11 13 11q14 -3 14 -20q0 -5 -2 -11q-13 -35 -37.5 -60.5t-52.5 -28.5q-19 -130 -24 -130zM79 -91l48 356q-77 -108 -77 -250q0 -85 29 -106z" />
    <glyph glyph-name="sterling" unicode="&#xa3;" horiz-adv-x="517" 
d="M287 -244q-44 0 -91 33q-29 20 -53 20t-57 -37q-6 -7 -13 -7q-1 0 -5.5 1.5t-9.5 8t-5 14.5q0 3 27 158l21 128q-26 15 -55 16q-5 0 -16.5 -3.5t-20.5 -3.5t-9 6q0 3 2 7q12 21 39 21q34 0 65 -15q46 290 135 376q43 33 80 33q11 0 40 -7.5t48 -48.5q8 -15 8 -31
q0 -32 -20 -53q-17 -25 -35 -25l-9 1l1 5q1 5 3 10.5t3.5 10.5t2.5 6.5t1 4.5q0 11 -8 25q-12 23 -35 23q-40 0 -74 -87q-52 -140 -81 -274q24 -11 48 -11t42 23q3 4 7 4h4q8 0 8 -11l-1 -5q-20 -38 -67 -38q-25 0 -48 11q-13 -47 -25 -96l-27 -107q29 19 55 19q31 0 77 -25
q40 -19 69 -19q53 0 75 54q3 5 7 5q7 0 10.5 -4t3.5 -8v-3q-10 -51 -50 -82q-31 -23 -67 -23z" />
    <glyph glyph-name="currency" unicode="&#xa4;" horiz-adv-x="309" 
d="M38 -54q-9 0 -9 7v3l14 33q-43 32 -43 105q0 45 19 87q-7 8 -7 14.5t-7 9.5h-4q1 11 11 11q7 0 22 -7q5 7 5.5 11.5t0.5 7t0.5 5.5t3.5 6q6 6 23 12.5t35 6.5q18 -1 25 -15q16 -7 29 -18l9 17q22 49 38 49q2 0 4 -1t2 -2q0 -3 -3.5 -3t-11.5 -20l-9 -20q-10 -21 -15 -29
v-2q0 -2 3 -5.5t7 -9.5q22 -32 22 -75q0 -5 -2 -31.5t-37 -71.5q8 -16 8 -26q0 -12 -10 -12q-11 0 -21 15q-25 -21 -56 -21q-7 0 -12.5 1t-8 2t-3.5 1q-4 -2 -9 -15q-9 -20 -13 -20zM103 121l38 75q-4 2 -9.5 5t-10 5t-6.5 2h-1q-32 -44 -32 -55q0 -6 10 -17zM148 49
q29 37 29 78q0 31 -23 57l-18 -37q-18 -32 -18 -42q0 -4 1.5 -9t9 -16t19.5 -31zM67 42q18 39 18 44q0 1 -0.5 3t-4 6t-6.5 8.5t-5 4.5q-6 0 -6 -31q0 -21 4 -35zM100 17q21 2 21 10q0 7 -13 26l-10 15l-20 -44q7 -7 17 -7h5z" />
    <glyph glyph-name="yen" unicode="&#xa5;" horiz-adv-x="803" 
d="M191 -244q-3 0 -16.5 1t-28.5 19q-9 12 -9 33q0 13 5.5 41.5t51.5 100.5q-7 4 -7 8q0 9 13 11h3.5t3 0.5t9.5 12.5q13 20 19 27l1 2l-1 -1h-3q-24 -7 -38 -7q-3 0 -12 0.5t-9 8.5t50 13q13 1 21.5 3.5t27.5 27.5t91 103q101 106 168 165q72 65 99 104q-81 -36 -207 -130
q-56 -41 -111 -77q-119 -78 -199 -78q-21 0 -59 10t-52 74q-2 17 -2 34q0 58 34 122.5t94 104.5q40 27 77 27q34 0 56 -17q6 -6 6 -12t-4 -9l-3 -2q-2 2 -4 3h-9q-48 0 -91 -42.5t-71 -101.5q-24 -53 -24 -97q0 -4 1.5 -30.5t49.5 -33.5q5 -1 11 -1q82 0 293 154
q78 55 145 96t110 41q32 -4 32 -23q0 -37 -161 -191q-105 -99 -203 -213h2q20 1 33 1q10 0 15 -1t6 -4q0 -3 -4.5 -4.5t-21.5 -2.5l-41 -3l-25 -33q1 -1 4 -1q5 0 17 2l28 6q17 0 17 -11q0 -4 -6.5 -7.5t-78.5 -16.5q-6 -2 -52 -74q-44 -69 -44 -99q0 -10 6 -13h8q7 0 7 3
q0 5 4 7t13 2q9 -1 9 -11q0 -8 -12.5 -14.5t-31.5 -6.5z" />
    <glyph glyph-name="brokenbar" unicode="&#xa6;" horiz-adv-x="237" 
d="M44 151q-14 0 -14 65q0 58 14 159q15 118 30 147q12 23 39 23q24 0 24 -40q0 -24 -8 -58l-15 -55q-2 23 -5 23q-5 0 -22 -113q-6 -47 -12 -86q-11 -65 -31 -65zM19 -341q-19 0 -19 81q0 84 18 181q19 103 43 103q18 0 22 -20q0 -24 -16 -161q-19 -154 -31 -173
q-10 -11 -17 -11z" />
    <glyph glyph-name="section" unicode="&#xa7;" horiz-adv-x="466" 
d="M78 -282h-2q-23 0 -23 26q0 21 18 26q49 12 49 36q0 25 -40 78q-80 112 -80 202q0 94 60 147q26 22 53 22q17 0 35 -9q-44 99 -44 167q0 20 10.5 67.5t65.5 72.5q24 11 49 11q105 0 134 -130q4 -19 4 -35q0 -15 -6 -31q-8 -27 -26 -27q-14 0 -24 36q-40 109 -85 109
q-2 0 -22 -2t-28 -74l-1 -18q0 -71 47 -191q25 -65 25 -107q0 -24 -15 -55q-19 -39 -94 -39q-34 0 -63 10q18 -62 52 -101q40 -51 40 -89q0 -11 -3 -24q-19 -66 -86 -78zM169 63q37 0 37 36q0 35 -33 98q-4 -13 -15 -21h-1l-3 3q-8 2 -12 2.5t-10 1.5h-2q-27 0 -44 -44
q-12 -30 -12 -46q0 -4 1 -5q62 -25 94 -25z" />
    <glyph glyph-name="dieresis" unicode="&#xa8;" horiz-adv-x="281" 
d="M137 635q-22 0 -29 18q-3 6 -3 13q0 25 24 35q9 4 17 4q10 0 20 -7q15 -9 15 -28q0 -10 -7 -18q-11 -17 -37 -17zM35 625q-35 0 -35 42v6q10 31 36 31q35 0 35 -41q0 -38 -36 -38z" />
    <glyph glyph-name="copyright" unicode="&#xa9;" horiz-adv-x="492" 
d="M160 -198q-30 0 -60 12q-100 49 -100 173t97 232q79 83 164 83q26 0 55 -14t30 -55q46 -64 46 -138q0 -9 -3.5 -55t-48 -116t-109.5 -104q-35 -18 -71 -18zM159 -158q64 0 129 65t72 172q0 44 -16.5 88t-50.5 64q-15 9 -33 9q-24 0 -54 -16q-82 -50 -120 -136
q-28 -64 -28 -120q0 -21 9.5 -68t83.5 -58h8zM202 -63q-13 0 -29 6q-52 32 -52 101q0 68 32 112q33 39 62 39q54 0 60 -69v-5q0 -43 -50 -75q-9 -5 -14 -5q-9 0 -9 14q0 11 7 34q5 19 5 25q0 4 -3 4q-4 0 -15 -12q-32 -48 -32 -86q0 -4 1.5 -26t24.5 -34q7 -4 13 -4
q17 0 36 24q2 3 6 3q7 0 7 -7q0 -21 -24 -33q-12 -6 -26 -6z" />
    <glyph glyph-name="ordfeminine" unicode="&#xaa;" horiz-adv-x="309" 
d="M35 642q-18 0 -26.5 18.5t-8.5 40.5q0 8 3 28.5t25 43.5q18 16 41 16q2 0 17 -1t31 -27q12 -3 12 -26q0 -28 18 -39q5 -3 11 -3q14 0 19 10.5t14 10.5q8 0 13.5 -5.5t5.5 -12.5l-1 -4q-14 -34 -51 -34t-55 40q-39 -56 -68 -56zM40 676q5 0 19 16l4 3q15 15 15 23
q0 5 -5 10q-2 2 -5 2q-10 0 -23 -22q-10 -17 -10 -28q0 -4 5 -4z" />
    <glyph glyph-name="guillemotleft" unicode="&#xab;" horiz-adv-x="421" 
d="M137 -41q-8 0 -17 6q-30 27 -52 62q-25 39 -61 67q-7 4 -7 7q0 4 10 14q21 16 88 128q30 49 55 49q21 0 21 -24q0 -5 -2.5 -26t-60.5 -80q-6 -5 -10 -10q-33 -31 -57 -44q32 -14 66 -47q55 -54 55 -78q0 -5 -5.5 -14.5t-22.5 -9.5zM271 -2q-10 0 -20 8q-51 50 -70 81
q-16 26 -30 32q-7 2 -7 12q0 7 7 8q19 6 47 45q25 36 62 69q26 19 42 19q19 0 19 -16q0 -15 -21 -44q-36 -42 -59.5 -60.5t-33 -23.5t-9.5 -7t9 -8q20 -7 84 -68q8 -9 8 -19q0 -20 -20 -27z" />
    <glyph glyph-name="logicalnot" unicode="&#xac;" horiz-adv-x="516" 
d="M387 -8q-22 0 -28 28q-4 18 -4 50q0 31 3 41h-39q-120 0 -232 -20q-39 -7 -58 -7q-29 0 -29 28q0 29 28.5 31.5t66.5 2.5q94 0 271 -7q11 13 20 13q8 0 17 -16q13 -22 13 -69q0 -32 -7.5 -53.5t-21.5 -21.5z" />
    <glyph glyph-name="registered" unicode="&#xae;" horiz-adv-x="516" 
d="M184 -126q-54 0 -105 38q-79 60 -79 187q0 53 26.5 111.5t88.5 97.5q58 36 119 36q3 0 36 -1t73 -52q73 -61 73 -149q0 -1 -0.5 -46t-55 -121t-141.5 -98q-18 -3 -35 -3zM176 -99q59 0 120 47.5t84 123.5q7 22 7 44q0 52 -40 101q-30 33 -75 45q-24 7 -30 18h-3
q-70 0 -115 -43q-70 -67 -70 -172q0 -29 7 -56q35 -108 115 -108zM163 -25q-40 0 -52 103q-2 17 -2 33q0 50 21 94q20 31 44 31q3 0 18.5 -2t23.5 -28q2 -8 2 -15q0 -13 -13 -33l-11 -22q-2 6 -3 7q-4 0 -7 -33q-2 -27 -4 -81q14 24 27 52q15 35 36 69q30 42 47 42
q20 0 20 -25q0 -5 -2 -23t-34 -50q50 -19 50 -34q0 -11 -9 -18q-5 -3 -10 -3t-10 2q-33 17 -69 28q-1 0 -1 1q-2 0 -21 -48q-21 -47 -41 -47zM246 117q1 0 6 5t14.5 19t16.5 30q-4 -1 -20 -22q-18 -26 -18 -30q0 -2 1 -2z" />
    <glyph glyph-name="macron" unicode="&#xaf;" horiz-adv-x="415" 
d="M44 640q-12 0 -28 11t-16 31q0 12 8 23.5t26 11.5q21 -1 41 -4q50 -6 142 -11l57 -4q41 -4 41 -23q0 -5 -12 -10t-90 -5h-37q-47 -2 -73 -7t-38.5 -9t-20.5 -4z" />
    <glyph glyph-name="degree" unicode="&#xb0;" horiz-adv-x="251" 
d="M71 596q-26 0 -47 19q-24 25 -24 50v14q0 13 15 32q18 23 39 23q13 0 22 -14q13 8 25 8q35 0 48 -42q2 -7 2 -14q0 -21 -15 -42q-27 -34 -65 -34zM89 630q17 0 27 13q13 16 13 34q0 3 -1 14.5t-25 11.5q-8 -2 -15 -9t-13 -7q-4 0 -8 4q-12 -7 -12 -28q0 -33 34 -33z" />
    <glyph glyph-name="plusminus" unicode="&#xb1;" horiz-adv-x="287" 
d="M82 56h-2q-17 3 -17 27l6 56q0 11 -5 11q-2 0 -6 -1t-14 -1q-9 0 -23 5q-4 2 -5 6q0 5 3 7q20 9 51 9q3 68 39 68q8 0 21.5 -8t14.5 -28q0 -11 -2.5 -18t-2.5 -9v-1.5t5 -0.5l31 -1q11 0 11 -12q0 -2 -1.5 -7t-57.5 -7q-11 -31 -17 -52.5t-11.5 -32t-17.5 -10.5zM129 -33
l-20 1l-71 1q-18 0 -25 5q-13 9 -13 22q0 3 3 14t32 15q24 1 57 1q81 0 81 -33q0 -20 -20 -24q-11 -2 -24 -2z" />
    <glyph glyph-name="twosuperior" unicode="&#xb2;" horiz-adv-x="263" 
d="M15 557q-11 0 -15 14q0 8 4 12q20 17 43 22q40 13 66 68q15 31 15 47q0 8 -7 8q-2 0 -11 -2t-44 -46q-12 -15 -26 -15q-22 0 -31 24q-2 6 -2 13q0 11 5 23q12 24 26.5 36.5t29.5 17.5t27 5q16 0 33 -6q35 -16 35 -44q-1 -28 -21 -66.5t-28 -45.5l-2 -4q51 0 51 -24
q0 -21 -22 -24l-73 -2q-2 -1 -3.5 -2t-17.5 -3q-27 -6 -32 -6z" />
    <glyph glyph-name="threesuperior" unicode="&#xb3;" horiz-adv-x="254" 
d="M81 535q-27 0 -63 16q-18 9 -18 31q0 7 3 14q10 22 27 22t32.5 -6t25.5 -6h4q12 3 12 8q0 3 -7 3q-6 0 -18 -5l-7 -1q-4 0 -10 2.5t-6 11.5q0 5 5 10q20 20 35 42q18 26 18 38q0 4 -4 4q-5 0 -15 -7q-19 -13 -19 -21q12 -2 12 -5l-3 -4q-5 -7 -24 -7q-36 0 -36 40
q0 28 23.5 43t50.5 15q6 0 26 -3t28 -34l1 -10q0 -30 -42 -81q36 -12 36 -44v-19q0 -17 -33 -38q-15 -9 -34 -9z" />
    <glyph glyph-name="acute" unicode="&#xb4;" horiz-adv-x="193" 
d="M21 681q-14 0 -20 14l-1 5q0 9 11 16.5t14.5 20t5.5 28.5q9 31 31 31q21 0 29 -24q2 -5 2 -11q0 -22 -25 -56q-20 -24 -47 -24z" />
    <glyph glyph-name="uni00B5" unicode="&#xb5;" horiz-adv-x="446" 
d="M24 -209q-14 0 -14 13q0 201 -7 332q-3 69 -3 117q0 49 3 77q5 39 26 39q10 0 24 -9q22 -14 22 -58q0 -2 -1 -26.5t-10.5 -81t-9.5 -97.5l1 -20q3 -35 31 -35q45 0 105 74q41 51 63 90q16 28 18 52.5t16 59.5q8 15 25 15q34 0 34 -46q0 -28 -5 -73q-13 -91 -18 -401
q0 -18 -19 -18q-12 0 -16 13q-34 137 -34 260q0 46 5 89q-89 -149 -174 -149q-15 0 -24 6q-4 2 -7 2q-6 0 -7 -12q-3 -19 -7 -112l-3 -88q-1 -13 -14 -13z" />
    <glyph glyph-name="paragraph" unicode="&#xb6;" horiz-adv-x="534" 
d="M216 -179q-6 0 -14.5 5.5t-8.5 62.5v18q0 2 -8 2q-4 -2 -27 -2q-39 0 -39 14q0 4 8 13t67 28v71q-19 -3 -37 -3q-55 0 -102 35q-55 42 -55 125q0 68 56 147q92 118 208 118q51 0 104 -34.5t65 -129.5l1 -18q0 -52 -22 -91t-53 -50q-9 -106 -14 -146q-3 -24 -3 -35v-6.5
t7 -3.5q3 1 7 1q14 0 14 -7q0 -9 -30 -11l-1 -4q-6 -97 -23 -97q-13 0 -13 13q0 42 2 66l1 14q0 4 -1 4q-25 -2 -39 -2.5t-22 -2.5t-8 -25q0 -69 -20 -69zM247 -64q10 0 60 4q2 54 2 100t-3 105q-3 43 -11 132l-1 11q0 19 12.5 27.5t25.5 8.5q34 0 37 -37q0 -30 -8 -122
q31 27 40 77q3 14 3 28q0 35 -17 70q-39 72 -111 72q-50 0 -105 -33.5t-92 -97.5q-28 -55 -28 -99q0 -33 16 -59q36 -58 127 -58l-1 72q0 55 5 119q6 76 42 76q30 0 30 -61l-1 -15q-8 -120 -15 -153q-3 -14 -3 -20t3 -6q4 0 16 6h4q5 -2 5 -5q0 -9 -30 -26l-4 -32
q-2 -28 -2 -40q0 -7 5 -7l12 3l-19 -15q-2 -14 -2 -23q1 -2 8 -2z" />
    <glyph glyph-name="periodcentered" unicode="&#xb7;" horiz-adv-x="175" 
d="M36 30q-5 0 -16.5 2.5t-18.5 24.5l-1 12q0 21 15 30q10 6 22 6q37 0 38 -37q-1 -21 -16 -31q-11 -7 -23 -7z" />
    <glyph glyph-name="periodcentered" unicode="&#x2219;" horiz-adv-x="175" 
d="M36 30q-5 0 -16.5 2.5t-18.5 24.5l-1 12q0 21 15 30q10 6 22 6q37 0 38 -37q-1 -21 -16 -31q-11 -7 -23 -7z" />
    <glyph glyph-name="cedilla" unicode="&#xb8;" horiz-adv-x="252" 
d="M57 -214q-23 0 -46 11q-14 10 -14 26q0 25 21 29q79 12 79 23q0 3 -16 7.5t-36 16.5q-26 15 -26 52q0 52 32 52h4q26 -4 26 -36l-1 -18q0 -20 9 -25q60 -32 60 -66q0 -3 -3.5 -23.5t-47.5 -39.5q-20 -9 -41 -9z" />
    <glyph glyph-name="onesuperior" unicode="&#xb9;" horiz-adv-x="179" 
d="M51 590q-20 0 -25 18q-3 25 -3 68l1 30q0 4 -1 4q-4 -3 -8 -3q-5 0 -10 4.5t-5 13.5q0 13 15 33q6 9 8 14q4 17 23 17q26 0 31 -40l2 -65q0 -52 -4 -76q-4 -18 -24 -18z" />
    <glyph glyph-name="ordmasculine" unicode="&#xba;" horiz-adv-x="225" 
d="M55 612l-12 1q-43 19 -43 75q0 24 11.5 51t38.5 29q7 9 18 9q35 0 53 -50q4 -15 4 -29q0 -32 -19 -57q-23 -29 -51 -29zM67 649q5 0 13 7.5t13 20t5 24.5q0 11 -6.5 26.5t-20.5 19.5q0 -6 -4.5 -14.5t-8.5 -23t-4 -35.5q2 -25 13 -25z" />
    <glyph glyph-name="guillemotright" unicode="&#xbb;" horiz-adv-x="407" 
d="M141 -160h-2q-7 0 -11 4.5t-4 9.5q0 8 29 57q44 76 93 149l21 31q-31 25 -55 58q-45 58 -45 77q0 2 1 2q0 9 4.5 18t13.5 9q14 0 45 -45q15 -23 49 -63q27 -30 27 -44q0 -17 -40 -75q-20 -28 -50 -74q-39 -61 -49 -82q-15 -32 -27 -32zM14 -139q-6 0 -10 5t-4 11
q0 10 41 55.5t84 106.5l2 4q8 9 8 15q0 3 -8 6q-13 4 -46 35q-53 54 -53 88q0 32 30 32q19 0 23 -8l2 -1q12 -16 72 -108q15 -23 15 -33q0 -7 -4 -17q-7 -19 -72 -105l-3 -4q-48 -63 -58.5 -72.5t-18.5 -9.5z" />
    <glyph glyph-name="onequarter" unicode="&#xbc;" horiz-adv-x="622" 
d="M20 -269q-10 0 -15 5.5t-5 11.5q0 5 218 502q213 485 216 494q7 8 19 8q24 0 24 -23q-6 -55 -83.5 -244.5t-178.5 -402.5q-167 -351 -195 -351zM126 345q-9 0 -21 7t-12 29q0 17 17 128t19 123q-23 -8 -38 -8q-10 0 -16 3q-16 8 -16 20v9q0 7 16 13q0 1 4 2q50 12 68 55
q7 21 28 21q10 0 18.5 -7.5t8.5 -22.5q0 -10 -10 -104q-23 -206 -34 -245q-10 -23 -32 -23zM474 -283q-24 0 -29 21q-2 26 -2 52q0 49 8 97q9 57 17 79q4 12 4 17q0 6 -8 6q-5 0 -15 -2q-18 -2 -54 -4q-16 -1 -26 -3t-21 -13l-16 -14q-30 -26 -44 -26q-23 0 -23 23
q0 12 17 29q92 106 126 187q9 22 21 41q9 13 23 13q13 -1 22 -11q6 -6 6 -15q0 -5 -2 -10q-11 -55 -30 -85q-13 -22 -18 -45l-2 -1q-2 0 -2 8q-15 -24 -31 -43h19q44 0 82 20q5 3 10 3t9 -4q7 -7 7 -17v-2q-15 -123 -15 -191v-15q0 -35 -3 -65t-30 -30z" />
    <glyph glyph-name="onehalf" unicode="&#xbd;" horiz-adv-x="630" 
d="M24 -259q-11 0 -17.5 7t-6.5 14q0 12 57 162q123 325 242 590q110 245 142 245q12 0 13 -31q1 0 1 -3q0 -39 -260 -628q-139 -316 -154 -345q-6 -11 -17 -11zM57 260q-25 0 -28 27q0 53 20 189q12 81 16.5 105t4.5 27t-1 3q-2 0 -7 -3q-13 -9 -23 -9q-17 0 -17 13
q0 8 9 14q33 22 63 99q5 20 25 20q27 0 29 -27q0 -12 -29 -220q-28 -196 -34.5 -217t-27.5 -21zM300 -183q-12 0 -21.5 7t-9.5 19q0 9 8 17q61 54 97.5 103t65.5 139q-25 20 -25 47q0 3 1.5 20t22.5 36q11 10 22 10t22 -8q25 -21 25 -59q0 -72 -46 -157t-84 -116
q-6 -5 -6 -7l38 1h66q32 -1 46 -8q8 -6 8 -18q0 -8 -8 -13q-17 -5 -85 -5q-81 0 -137 -8z" />
    <glyph glyph-name="threequarters" unicode="&#xbe;" horiz-adv-x="674" 
d="M143 -230q-25 0 -25 26q0 16 17 57l63 155q170 412 245 568q72 150 93 150q4 0 14 -15q1 -3 4 -3v-1q0 -56 -183 -474q-178 -406 -207 -452q-10 -11 -21 -11zM116 375q-22 0 -48 8q-68 29 -68 65q0 20 17 20q14 0 41 -23q33 -26 61 -26q34 0 50 24q6 9 6 18q0 32 -36 36
q-15 3 -27.5 10t-12.5 32q0 5 8 24q13 31 18 41l2 6h-1q-2 0 -5 -2q-11 -7 -21 -7q-17 0 -27.5 17.5t-10.5 32.5q0 16 14.5 38t51.5 31q10 2 19 2q26 0 48 -19q18 -19 18 -41q0 -31 -38 -86q-12 -19 -21 -37q56 -21 56 -71q0 -44 -37 -74q-24 -19 -57 -19zM139 633l2 5
q3 8 3 10t-2 2q-5 0 -12 -10q8 -2 8 -4.5t1 -2.5zM509 -212q-35 0 -35 80q0 53 32 151q-54 -39 -144 -61h-6q-15 0 -23 12q-4 7 -4 14q0 9 7 18q104 110 143 175q9 15 16.5 23t20.5 8q14 0 14 -15q0 -48 -94 -165q61 22 103 70q6 6 13 6q22 0 22 -23v-3q-25 -120 -30 -222
q0 -48 -21 -63q-7 -5 -14 -5z" />
    <glyph glyph-name="questiondown" unicode="&#xbf;" horiz-adv-x="495" 
d="M361 341q-9 0 -19 5q-17 15 -17 30q0 20 19 31q7 4 15 4q9 0 19 -5q17 -15 17 -30q0 -20 -19 -31q-7 -4 -15 -4zM113 -300q-113 0 -113 116q0 66 65 166q64 84 135 136q48 38 84 78.5t45 99.5q4 23 26 23q9 0 16.5 -5.5t7.5 -16.5l-1 -8q-15 -45 -51 -85.5t-81 -81.5
q-54 -47 -102.5 -103.5t-72.5 -130.5q-10 -32 -10 -54q0 -32 11 -41q3 -3 4 -3q26 -16 50 -16q25 0 59 26.5t74.5 80.5t78.5 78q6 3 12 3q3 0 8.5 -1.5t6.5 -16.5q0 -15 -15 -47t-54 -87q-83 -110 -183 -110z" />
    <glyph glyph-name="Agrave" unicode="&#xc0;" horiz-adv-x="995" 
d="M842 -404h-4q0 1 -1 1q-14 0 -19 20q-8 26 -8 127q0 165 14 627q-122 -4 -244 -10q-187 -418 -342 -697q-6 -9 -14 -9q-10 0 -17 9q-4 5 -4 11q0 4 2 8q69 162 175 377q57 118 143 299q-186 -9 -269 -16q-50 -6 -93 -17q-55 -14 -138 -29q-6 0 -13.5 3.5t-8.5 10.5v1
q0 17 57 34q70 22 245 35q76 21 129 40l71 25q-87 -38 -126 -51q-25 -8 -25 -10t8 -2q9 0 29 2q44 3 150 7q169 354 321 715q7 17 26 17q20 0 22 -24l-1 -237q3 0 7 76l3 41q0 -54 -7 -308l-8 -272q75 1 226 1q7 0 9 -6q2 -2 2 -5q0 -9 -11 -11l-227 -5l-10 -393
q-7 -209 -14 -299q-7 -75 -21 -83q-6 -3 -14 -3zM595 393l230 5q8 231 16 363q7 93 7 138q0 43 -6 43q-14 0 -81 -167q-56 -137 -166 -382zM896 1172h-10q-8 0 -24 16t-21 52v2q0 25 29 25q25 0 25 -27q0 -12 -1.5 -17t-1.5 -8q0 -8 6 -14q15 -11 15 -18q0 -11 -17 -11z" />
    <glyph glyph-name="Aacute" unicode="&#xc1;" horiz-adv-x="995" 
d="M842 -404h-4q0 1 -1 1q-14 0 -19 20q-8 26 -8 127q0 165 14 627q-122 -4 -244 -10q-187 -418 -342 -697q-6 -9 -14 -9q-10 0 -17 9q-4 5 -4 11q0 4 2 8q69 162 175 377q57 118 143 299q-186 -9 -269 -16q-50 -6 -93 -17q-55 -14 -138 -29q-6 0 -13.5 3.5t-8.5 10.5v1
q0 17 57 34q70 22 245 35q76 21 129 40l71 25q-87 -38 -126 -51q-25 -8 -25 -10t8 -2q9 0 29 2q44 3 150 7q169 354 321 715q7 17 26 17q20 0 22 -24l-1 -237q3 0 7 76l3 41q0 -54 -7 -308l-8 -272q75 1 226 1q7 0 9 -6q2 -2 2 -5q0 -9 -11 -11l-227 -5l-10 -393
q-7 -209 -14 -299q-7 -75 -21 -83q-6 -3 -14 -3zM595 393l230 5q8 231 16 363q7 93 7 138q0 43 -6 43q-14 0 -81 -167q-56 -137 -166 -382zM867 1174q-14 0 -14 8q0 6 9 16q16 16 16 35l-1 17q0 24 26 29q28 0 28 -36q0 -26 -14 -43q-23 -26 -50 -26z" />
    <glyph glyph-name="Acircumflex" unicode="&#xc2;" horiz-adv-x="995" 
d="M842 -404h-4q0 1 -1 1q-14 0 -19 20q-8 26 -8 127q0 165 14 627q-122 -4 -244 -10q-187 -418 -342 -697q-6 -9 -14 -9q-10 0 -17 9q-4 5 -4 11q0 4 2 8q69 162 175 377q57 118 143 299q-186 -9 -269 -16q-50 -6 -93 -17q-55 -14 -138 -29q-6 0 -13.5 3.5t-8.5 10.5v1
q0 17 57 34q70 22 245 35q76 21 129 40l71 25q-87 -38 -126 -51q-25 -8 -25 -10t8 -2q9 0 29 2q44 3 150 7q169 354 321 715q7 17 26 17q20 0 22 -24l-1 -237q3 0 7 76l3 41q0 -54 -7 -308l-8 -272q75 1 226 1q7 0 9 -6q2 -2 2 -5q0 -9 -11 -11l-227 -5l-10 -393
q-7 -209 -14 -299q-7 -75 -21 -83q-6 -3 -14 -3zM595 393l230 5q8 231 16 363q7 93 7 138q0 43 -6 43q-14 0 -81 -167q-56 -137 -166 -382zM850 1167q-6 0 -13 5.5t-7 14.5q0 27 36 59q15 13 25 13q9 0 11 -10q2 -6 6 -11q12 -14 25.5 -20.5t13.5 -13.5q0 -11 -12 -11
q-10 0 -32 18q-4 3 -6 5.5t-3 2.5l-1 -2q-3 -12 -20 -36q-10 -14 -23 -14z" />
    <glyph glyph-name="Atilde" unicode="&#xc3;" horiz-adv-x="995" 
d="M842 -404h-4q0 1 -1 1q-14 0 -19 20q-8 26 -8 127q0 165 14 627q-122 -4 -244 -10q-187 -418 -342 -697q-6 -9 -14 -9q-10 0 -17 9q-4 5 -4 11q0 4 2 8q69 162 175 377q57 118 143 299q-186 -9 -269 -16q-50 -6 -93 -17q-55 -14 -138 -29q-6 0 -13.5 3.5t-8.5 10.5v1
q0 17 57 34q70 22 245 35q76 21 129 40l71 25q-87 -38 -126 -51q-25 -8 -25 -10t8 -2q9 0 29 2q44 3 150 7q169 354 321 715q7 17 26 17q20 0 22 -24l-1 -237q3 0 7 76l3 41q0 -54 -7 -308l-8 -272q75 1 226 1q7 0 9 -6q2 -2 2 -5q0 -9 -11 -11l-227 -5l-10 -393
q-7 -209 -14 -299q-7 -75 -21 -83q-6 -3 -14 -3zM595 393l230 5q8 231 16 363q7 93 7 138q0 43 -6 43q-14 0 -81 -167q-56 -137 -166 -382zM834 1170h-10q-8 1 -18 14q-7 8 -7 18q0 5 2 15.5t29 21.5l1 1l-1 -2l2 1q7 4 15 4q16 0 46.5 -15.5t41.5 -15.5t13 11q1 7 8 8
q14 0 14 -9l-2 -5q-11 -23 -28 -23q-20 0 -41.5 8t-26.5 8q-3 0 -6 -1v-1q-1 0 -1 -1t-1.5 -4t-9.5 -18t-20 -15z" />
    <glyph glyph-name="Adieresis" unicode="&#xc4;" horiz-adv-x="995" 
d="M842 -404h-4q0 1 -1 1q-14 0 -19 20q-8 26 -8 127q0 165 14 627q-122 -4 -244 -10q-187 -418 -342 -697q-6 -9 -14 -9q-10 0 -17 9q-4 5 -4 11q0 4 2 8q69 162 175 377q57 118 143 299q-186 -9 -269 -16q-50 -6 -93 -17q-55 -14 -138 -29q-6 0 -13.5 3.5t-8.5 10.5v1
q0 17 57 34q70 22 245 35q76 21 129 40l71 25q-87 -38 -126 -51q-25 -8 -25 -10t8 -2q9 0 29 2q44 3 150 7q169 354 321 715q7 17 26 17q20 0 22 -24l-1 -237q3 0 7 76l3 41q0 -54 -7 -308l-8 -272q75 1 226 1q7 0 9 -6q2 -2 2 -5q0 -9 -11 -11l-227 -5l-10 -393
q-7 -209 -14 -299q-7 -75 -21 -83q-6 -3 -14 -3zM595 393l230 5q8 231 16 363q7 93 7 138q0 43 -6 43q-14 0 -81 -167q-56 -137 -166 -382zM925 1184q-21 1 -27 19l-2 8q0 14 19 30q10 7 18 7q5 0 13 -4q15 -9 15 -32q0 -28 -36 -28zM837 1172h-2q-18 0 -29 23q0 31 14 41.5
t28 10.5q29 0 32 -30q0 -20 -12.5 -32.5t-30.5 -12.5z" />
    <glyph glyph-name="Aring" unicode="&#xc5;" horiz-adv-x="995" 
d="M842 -404h-4q0 1 -1 1q-14 0 -19 20q-8 26 -8 127q0 165 14 627q-122 -4 -244 -10q-187 -418 -342 -697q-6 -9 -14 -9q-10 0 -17 9q-4 5 -4 11q0 4 2 8q69 162 175 377q57 118 143 299q-186 -9 -269 -16q-50 -6 -93 -17q-55 -14 -138 -29q-6 0 -13.5 3.5t-8.5 10.5v1
q0 17 57 34q70 22 245 35q76 21 129 40l71 25q-87 -38 -126 -51q-25 -8 -25 -10t8 -2q9 0 29 2q44 3 150 7q169 354 321 715q7 17 26 17q20 0 22 -24l-1 -237q3 0 7 76l3 41q0 -54 -7 -308l-8 -272q75 1 226 1q7 0 9 -6q2 -2 2 -5q0 -9 -11 -11l-227 -5l-10 -393
q-7 -209 -14 -299q-7 -75 -21 -83q-6 -3 -14 -3zM595 393l230 5q8 231 16 363q7 93 7 138q0 43 -6 43q-14 0 -81 -167q-56 -137 -166 -382zM882 1184q-25 0 -41 24q-9 14 -9 35q0 12 3 27q3 8 15 14.5t27 6.5l13 -1q11 0 27 -12q18 -18 18 -39q0 -22 -16 -38.5t-37 -16.5z
M893 1209q6 0 12.5 5.5t9.5 14t3 14.5q0 17 -17 19q-14 0 -20 -9.5t-6 -20.5q0 -15 13 -22q3 -1 5 -1z" />
    <glyph glyph-name="AE" unicode="&#xc6;" horiz-adv-x="1655" 
d="M1164 -478q-57 0 -96 57q-66 96 -66 317q0 45 3 95q8 113 18 160q5 23 5 36q0 14 -9 14t-32 -10q-16 -7 -43 -15q-13 -5 -23 -6q-14 -2 -20.5 -9t-8.5 -31.5t-3 -79.5q-1 -79 -9 -258l-1 -18q-3 -88 -10 -122q-6 -29 -27 -29q-12 0 -17 4q-10 7 -14 60q-2 35 -2 123
q0 115 14 588q-122 -4 -244 -10q-188 -419 -342 -697q-6 -10 -15 -10q-10 0 -16 10q-4 5 -4 11l2 8q69 162 174 377q58 118 144 299q-197 -9 -270 -16q-49 -5 -93 -17q-49 -13 -137 -29q-7 0 -14.5 3.5t-7.5 11.5q0 17 56 34q73 22 246 35q73 20 126 39l74 26
q-87 -38 -127 -51q-25 -8 -25 -10t9 -2t29 2q44 3 149 7q41 85 80 170q-5 9 -5 19q0 29 43 63q106 230 203 463q8 17 26 17q22 0 22 -23.5t2 -39.5q3 -39 3 -164q0 -57 -2 -146q291 92 361 92q3 0 5 4.5t7 11.5q21 30 39 30q26 0 36 -28q285 50 457 50q97 0 142 -20
q28 -12 28 -25q0 -8 -10 -8l-6 1q-66 25 -165 25q-124 0 -261 -22q-116 -18 -183 -33q-3 -29 -11.5 -44.5t-22.5 -31.5q-79 -79 -169 -374q-8 -27 -15 -47q-21 -69 -21 -80q0 -10 10 -10q6 0 17 3q24 9 71 9q15 0 18.5 -4.5t3.5 -8.5q-2 -13 -72 -29q-22 -5 -59 -15
q-54 -257 -54 -414q0 -49 14 -152.5t107 -103.5q87 0 214.5 145.5t270.5 432.5q3 5 8 5q10 -1 10 -10l-1 -4q-313 -601 -514 -601zM724 713q54 22 110 40q4 96 8 152q4 39 4 57q0 16 -3 16q-7 0 -46 -96q-26 -62 -73 -169zM901 427l181 1q60 198 169 404q-153 -36 -343 -108
q-3 -149 -7 -297zM593 420l230 5l9 270q-115 -48 -115 -58q0 -1 6 -2q5 0 18.5 2.5t28 7.5t23.5 10h1q0 -3 -18 -19q-55 -50 -98 -57q-11 0 -16 -9q-10 -16 -25 -51t-44 -99zM895 214q71 21 102 26q21 4 31 8t14 14.5t8 33.5q5 33 26 109l-176 -5z" />
    <glyph glyph-name="Ccedilla" unicode="&#xc7;" horiz-adv-x="921" 
d="M377 -600q-9 0 -20.5 6.5t-11.5 21.5q0 20 21 20q8 0 19 -3h-1q2 -2 9 -2l10 1q3 0 3 2q-5 11 -21.5 18.5t-16.5 23.5q0 7 2 19q-153 12 -241 127q-129 167 -129 466q0 99 22.5 254t106.5 345t219 328q116 111 207 111q8 0 59.5 -5.5t96.5 -86.5q27 -49 27 -103
q0 -34 -11 -69q-25 -71 -54 -71q-9 1 -9 9v2q2 31 2 58q0 188 -102 188q-43 0 -117.5 -51t-169.5 -199.5t-156 -356.5q-57 -190 -57 -407l1 -42q11 -221 90 -333q91 -131 238 -131q93 0 201.5 60.5t201.5 199t128 335.5q1 6 8 6q10 0 10 -11q-42 -210 -123 -335
q-139 -214 -331 -270l-88 -21q2 -4 11 -14q26 -26 26 -44q0 -7 -4 -18t-39 -25q-9 -3 -17 -3z" />
    <glyph glyph-name="Egrave" unicode="&#xc8;" horiz-adv-x="1053" 
d="M561 -505q-57 0 -96 57q-66 97 -66 318q0 44 3 94q9 113 18 160q5 25 5 38q0 12 -8 12q-10 0 -32 -10q-17 -7 -43 -15q-1 -1 -13 -4.5t-27 -8.5q-48 -15 -57 -15q-7 0 -14.5 6t-7.5 20q0 11 13 19.5t53 20.5q71 20 139 35q9 3 22 64q43 215 181 486l8 14q6 10 6 14t-4 4
q-9 0 -86 -23l-32 -10q-82 -24 -193.5 -64.5t-182.5 -76.5q-32 -17 -32 -22q0 -1 3 -1q8 0 41 10l32 9h1q-93 -81 -142 -81q-40 0 -40 31q0 7 8 35t98 73q55 24 209 72.5t346 88.5q24 44 47 44q26 0 36 -28q287 50 457 50q97 0 142 -20q28 -12 28 -25q0 -8 -10 -8l-6 1
q-66 25 -164 25q-185 0 -445 -54q-2 -25 -11.5 -42t-24.5 -38q-27 -32 -69 -113q-47 -89 -112 -305q-21 -67 -21 -81q0 -9 9 -9q6 0 17 3q25 9 71 9h10q12 0 12 -14q0 -4 -6 -7q-15 -7 -29.5 -11.5t-36.5 -9.5t-59 -14q-53 -257 -53 -414q0 -50 13.5 -153.5t107.5 -103.5
q86 0 214 145.5t271 432.5q3 5 8 5q4 0 6.5 -3.5t2.5 -6.5l-1 -4q-313 -601 -514 -601zM765 938h-10q-8 0 -24 16t-21 52v2q0 25 29 25q25 0 25 -27q0 -12 -1.5 -17t-1.5 -8q0 -8 6 -14q15 -11 15 -18q0 -11 -17 -11z" />
    <glyph glyph-name="Eacute" unicode="&#xc9;" horiz-adv-x="1053" 
d="M561 -505q-57 0 -96 57q-66 97 -66 318q0 44 3 94q9 113 18 160q5 25 5 38q0 12 -8 12q-10 0 -32 -10q-17 -7 -43 -15q-1 -1 -13 -4.5t-27 -8.5q-48 -15 -57 -15q-7 0 -14.5 6t-7.5 20q0 11 13 19.5t53 20.5q71 20 139 35q9 3 22 64q43 215 181 486l8 14q6 10 6 14t-4 4
q-9 0 -86 -23l-32 -10q-82 -24 -193.5 -64.5t-182.5 -76.5q-32 -17 -32 -22q0 -1 3 -1q8 0 41 10l32 9h1q-93 -81 -142 -81q-40 0 -40 31q0 7 8 35t98 73q55 24 209 72.5t346 88.5q24 44 47 44q26 0 36 -28q287 50 457 50q97 0 142 -20q28 -12 28 -25q0 -8 -10 -8l-6 1
q-66 25 -164 25q-185 0 -445 -54q-2 -25 -11.5 -42t-24.5 -38q-27 -32 -69 -113q-47 -89 -112 -305q-21 -67 -21 -81q0 -9 9 -9q6 0 17 3q25 9 71 9h10q12 0 12 -14q0 -4 -6 -7q-15 -7 -29.5 -11.5t-36.5 -9.5t-59 -14q-53 -257 -53 -414q0 -50 13.5 -153.5t107.5 -103.5
q86 0 214 145.5t271 432.5q3 5 8 5q4 0 6.5 -3.5t2.5 -6.5l-1 -4q-313 -601 -514 -601zM710 940q-14 0 -14 8q0 6 9 16q16 16 16 35l-1 17q0 24 26 29q28 0 28 -36q0 -26 -14 -43q-23 -26 -50 -26z" />
    <glyph glyph-name="Ecircumflex" unicode="&#xca;" horiz-adv-x="1053" 
d="M561 -505q-57 0 -96 57q-66 97 -66 318q0 44 3 94q9 113 18 160q5 25 5 38q0 12 -8 12q-10 0 -32 -10q-17 -7 -43 -15q-1 -1 -13 -4.5t-27 -8.5q-48 -15 -57 -15q-7 0 -14.5 6t-7.5 20q0 11 13 19.5t53 20.5q71 20 139 35q9 3 22 64q43 215 181 486l8 14q6 10 6 14t-4 4
q-9 0 -86 -23l-32 -10q-82 -24 -193.5 -64.5t-182.5 -76.5q-32 -17 -32 -22q0 -1 3 -1q8 0 41 10l32 9h1q-93 -81 -142 -81q-40 0 -40 31q0 7 8 35t98 73q55 24 209 72.5t346 88.5q24 44 47 44q26 0 36 -28q287 50 457 50q97 0 142 -20q28 -12 28 -25q0 -8 -10 -8l-6 1
q-66 25 -164 25q-185 0 -445 -54q-2 -25 -11.5 -42t-24.5 -38q-27 -32 -69 -113q-47 -89 -112 -305q-21 -67 -21 -81q0 -9 9 -9q6 0 17 3q25 9 71 9h10q12 0 12 -14q0 -4 -6 -7q-15 -7 -29.5 -11.5t-36.5 -9.5t-59 -14q-53 -257 -53 -414q0 -50 13.5 -153.5t107.5 -103.5
q86 0 214 145.5t271 432.5q3 5 8 5q4 0 6.5 -3.5t2.5 -6.5l-1 -4q-313 -601 -514 -601zM688 934q-6 0 -13 5.5t-7 14.5q0 27 36 59q15 13 25 13q9 0 11 -10q2 -6 6 -11q12 -14 25.5 -20.5t13.5 -13.5q0 -11 -12 -11q-10 0 -32 18q-4 3 -6 5.5t-3 2.5l-1 -2q-3 -12 -20 -36
q-10 -14 -23 -14z" />
    <glyph glyph-name="Edieresis" unicode="&#xcb;" horiz-adv-x="1053" 
d="M561 -505q-57 0 -96 57q-66 97 -66 318q0 44 3 94q9 113 18 160q5 25 5 38q0 12 -8 12q-10 0 -32 -10q-17 -7 -43 -15q-1 -1 -13 -4.5t-27 -8.5q-48 -15 -57 -15q-7 0 -14.5 6t-7.5 20q0 11 13 19.5t53 20.5q71 20 139 35q9 3 22 64q43 215 181 486l8 14q6 10 6 14t-4 4
q-9 0 -86 -23l-32 -10q-82 -24 -193.5 -64.5t-182.5 -76.5q-32 -17 -32 -22q0 -1 3 -1q8 0 41 10l32 9h1q-93 -81 -142 -81q-40 0 -40 31q0 7 8 35t98 73q55 24 209 72.5t346 88.5q24 44 47 44q26 0 36 -28q287 50 457 50q97 0 142 -20q28 -12 28 -25q0 -8 -10 -8l-6 1
q-66 25 -164 25q-185 0 -445 -54q-2 -25 -11.5 -42t-24.5 -38q-27 -32 -69 -113q-47 -89 -112 -305q-21 -67 -21 -81q0 -9 9 -9q6 0 17 3q25 9 71 9h10q12 0 12 -14q0 -4 -6 -7q-15 -7 -29.5 -11.5t-36.5 -9.5t-59 -14q-53 -257 -53 -414q0 -50 13.5 -153.5t107.5 -103.5
q86 0 214 145.5t271 432.5q3 5 8 5q4 0 6.5 -3.5t2.5 -6.5l-1 -4q-313 -601 -514 -601zM768 955q-21 1 -27 19l-2 8q0 14 19 30q10 7 18 7q5 0 13 -4q15 -9 15 -32q0 -28 -36 -28zM680 943h-2q-18 0 -29 23q0 31 14 41.5t28 10.5q29 0 32 -30q0 -20 -12.5 -32.5t-30.5 -12.5
z" />
    <glyph glyph-name="Igrave" unicode="&#xcc;" horiz-adv-x="585" 
d="M248 -561q-2 0 -7 3q-7 5 -7 43q0 136 120 566l2 9q129 446 129 665q0 64 -10 118q-28 122 -106 137q-7 1 -15 1q-72 0 -160 -132q-116 -189 -116 -407q0 -104 18 -146q13 -31 30 -31q7 0 14.5 7.5t7.5 18.5l1 -1q1 -2 2 -6t1 -7q0 -8 -4 -16q-10 -19 -34 -28
q-9 -3 -18 -3q-16 0 -34 9q-58 39 -58 199q0 106 20 188q53 201 146 305.5t190 104.5q91 0 147 -101q46 -83 46 -234q0 -39 -3 -83q-19 -193 -68 -380.5t-98 -342.5q-41 -132 -78 -276q-43 -180 -58 -180zM519 1079h-10q-8 0 -24 16t-21 52v2q0 25 29 25q25 0 25 -27
q0 -12 -1.5 -17t-1.5 -8q0 -8 6 -14q15 -11 15 -18q0 -11 -17 -11z" />
    <glyph glyph-name="Iacute" unicode="&#xcd;" horiz-adv-x="585" 
d="M248 -561q-2 0 -7 3q-7 5 -7 43q0 136 120 566l2 9q129 446 129 665q0 64 -10 118q-28 122 -106 137q-7 1 -15 1q-72 0 -160 -132q-116 -189 -116 -407q0 -104 18 -146q13 -31 30 -31q7 0 14.5 7.5t7.5 18.5l1 -1q1 -2 2 -6t1 -7q0 -8 -4 -16q-10 -19 -34 -28
q-9 -3 -18 -3q-16 0 -34 9q-58 39 -58 199q0 106 20 188q53 201 146 305.5t190 104.5q91 0 147 -101q46 -83 46 -234q0 -39 -3 -83q-19 -193 -68 -380.5t-98 -342.5q-41 -132 -78 -276q-43 -180 -58 -180zM505 1076q-14 0 -14 8q0 6 9 16q16 16 16 35l-1 17q0 24 26 29
q28 0 28 -36q0 -26 -14 -43q-23 -26 -50 -26z" />
    <glyph glyph-name="Icircumflex" unicode="&#xce;" horiz-adv-x="585" 
d="M248 -561q-2 0 -7 3q-7 5 -7 43q0 136 120 566l2 9q129 446 129 665q0 64 -10 118q-28 122 -106 137q-7 1 -15 1q-72 0 -160 -132q-116 -189 -116 -407q0 -104 18 -146q13 -31 30 -31q7 0 14.5 7.5t7.5 18.5l1 -1q1 -2 2 -6t1 -7q0 -8 -4 -16q-10 -19 -34 -28
q-9 -3 -18 -3q-16 0 -34 9q-58 39 -58 199q0 106 20 188q53 201 146 305.5t190 104.5q91 0 147 -101q46 -83 46 -234q0 -39 -3 -83q-19 -193 -68 -380.5t-98 -342.5q-41 -132 -78 -276q-43 -180 -58 -180zM452 1074q-6 0 -13 5.5t-7 14.5q0 27 36 59q15 13 25 13q9 0 11 -10
q2 -6 6 -11q12 -14 25.5 -20.5t13.5 -13.5q0 -11 -12 -11q-10 0 -32 18q-4 3 -6 5.5t-3 2.5l-1 -2q-3 -12 -20 -36q-10 -14 -23 -14z" />
    <glyph glyph-name="Idieresis" unicode="&#xcf;" horiz-adv-x="585" 
d="M248 -561q-2 0 -7 3q-7 5 -7 43q0 136 120 566l2 9q129 446 129 665q0 64 -10 118q-28 122 -106 137q-7 1 -15 1q-72 0 -160 -132q-116 -189 -116 -407q0 -104 18 -146q13 -31 30 -31q7 0 14.5 7.5t7.5 18.5l1 -1q1 -2 2 -6t1 -7q0 -8 -4 -16q-10 -19 -34 -28
q-9 -3 -18 -3q-16 0 -34 9q-58 39 -58 199q0 106 20 188q53 201 146 305.5t190 104.5q91 0 147 -101q46 -83 46 -234q0 -39 -3 -83q-19 -193 -68 -380.5t-98 -342.5q-41 -132 -78 -276q-43 -180 -58 -180zM532 1085q-21 1 -27 19l-2 8q0 14 19 30q10 7 18 7q5 0 13 -4
q15 -9 15 -32q0 -28 -36 -28zM444 1073h-2q-18 0 -29 23q0 31 14 41.5t28 10.5q29 0 32 -30q0 -20 -12.5 -32.5t-30.5 -12.5z" />
    <glyph glyph-name="Eth" unicode="&#xd0;" horiz-adv-x="1276" 
d="M326 -450q-111 0 -205 61q-121 87 -121 224q0 83 51.5 179.5t173.5 176t296 98.5l2 44l1 5q-183 -7 -290 -14q-63 -4 -78 -4q-8 2 -8 8t7 10l91 8q63 4 180 9l95 3q5 0 5 6.5t1 18.5v11q0 83 21 298q6 38 37 38q34 0 37 -38q1 0 1 -5q0 -10 -4 -52.5t-12 -118t-18 -156.5
q147 4 295 4q10 -2 10 -11q0 -8 -10 -10h-60q-119 0 -238 -3l-5 -45q0 -3 27 -3h5q183 0 357 -118q7 -5 7 -12q0 -9 -7 -14q-3 -2 -6 -2q-4 0 -8 3q-167 115 -369 115h-10q-25 -198 -31 -267q-6 -58 -12 -97q-3 -12 -15 -12q-18 0 -18 17q2 60 5 102q8 116 14 254
q-186 -23 -305 -111.5t-162 -201.5q-21 -56 -21 -108q0 -53 32.5 -125t172.5 -108q45 -10 91 -10q95 0 219.5 51.5t262 176t241 283.5t149.5 324q26 95 26 184q0 65 -24 167.5t-161 196.5q-118 75 -255 75q-12 0 -93.5 -4.5t-209 -86.5t-184.5 -225q-26 -66 -26 -128
q0 -54 34 -91q26 -25 52 -25q27 0 55 25q11 8 13 8q3 0 3 -6q-1 -39 -30.5 -58.5t-74.5 -19.5q-27 0 -45 8q-78 43 -78 157q0 91 51 186q84 151 237 229q138 71 290 71q15 0 107 -4.5t222 -112.5q142 -127 163 -299q4 -38 4 -77q0 -135 -62 -298t-192.5 -326.5t-291 -276.5
t-320.5 -143q-43 -8 -84 -8z" />
    <glyph glyph-name="Ntilde" unicode="&#xd1;" horiz-adv-x="949" 
d="M19 -587q-19 0 -19 19q13 431 69.5 789t136.5 615q14 40 39 40q11 0 20 -9t9 -26q0 -5 -1.5 -10.5t-41.5 -176t-89.5 -433t-81.5 -546.5q25 98 54 195q139 434 294.5 710t288.5 404q124 121 194 121h8q76 -10 89 -96q4 -26 4 -58q0 -125 -88 -459q-38 -146 -69 -291
q-37 -173 -37 -316q0 -36 3 -94t22 -108q15 -40 46 -40q8 0 18 3l5 1q11 0 11 -13q0 -11 -9 -14q-18 -6 -34 -6q-33 0 -63.5 32.5t-47.5 102.5q-19 79 -19 172q0 41 9 135q14 167 110 541q74 282 74 371q0 85 -45 85q-33 0 -95 -42q-257 -181 -476 -695
q-99 -231 -168 -463.5t-101 -425.5q-3 -14 -19 -14zM550 1140h-10q-8 1 -18 14q-7 8 -7 18q0 5 2 15.5t29 21.5l1 1l-1 -2l2 1q7 4 15 4q16 0 46.5 -15.5t41.5 -15.5t13 11q1 7 8 8q14 0 14 -9l-2 -5q-11 -23 -28 -23q-20 0 -41.5 8t-26.5 8q-3 0 -6 -1v-1q-1 0 -1 -1
t-1.5 -4t-9.5 -18t-20 -15z" />
    <glyph glyph-name="Ograve" unicode="&#xd2;" horiz-adv-x="1035" 
d="M390 -455h-10q-139 0 -228 141q-80 128 -80 368q0 37 2 76q-61 132 -61 272q0 30 9 132.5t92.5 254.5t212 246t280.5 96q133 -3 239.5 -116.5t140.5 -326.5q9 -58 9 -122q0 -172 -64 -391q-99 -310 -247.5 -467t-294.5 -163zM397 -407q129 0 266 160q112 132 192 324.5
t98 399.5q4 42 4 83q0 160 -59 300q-105 228 -302 228q-59 0 -151 -34t-194.5 -146.5t-155.5 -268.5q-37 -107 -37 -224q0 -54 8 -110l5 -30q8 -48 10 -48t7 27q22 144 102 306q53 99 107 113q16 4 29 4q33 0 54 -21t21 -44q0 -13 -6 -26q-1 -4 -3 -4q-3 0 -9 9t-15 14
q-9 0 -15.5 2.5t-14.5 3.5q-8 0 -20 -5q-49 -29 -105 -180t-65 -336q77 -100 177 -100q123 0 209 151q40 72 57 143q7 29 7 51q0 33 -15 51q-5 5 -5 11q0 3 2 9q4 9 15 9q6 0 12 -5q23 -27 23 -73q0 -32 -19 -101.5t-91 -162t-170 -120.5q-22 -6 -44 -6q-77 0 -158 75
q5 -120 37.5 -223t94.5 -161q49 -45 117 -45zM606 1186h-10q-8 0 -24 16t-21 52v2q0 25 29 25q25 0 25 -27q0 -12 -1.5 -17t-1.5 -8q0 -8 6 -14q15 -11 15 -18q0 -11 -17 -11z" />
    <glyph glyph-name="Oacute" unicode="&#xd3;" horiz-adv-x="1035" 
d="M390 -455h-10q-139 0 -228 141q-80 128 -80 368q0 37 2 76q-61 132 -61 272q0 30 9 132.5t92.5 254.5t212 246t280.5 96q133 -3 239.5 -116.5t140.5 -326.5q9 -58 9 -122q0 -172 -64 -391q-99 -310 -247.5 -467t-294.5 -163zM397 -407q129 0 266 160q112 132 192 324.5
t98 399.5q4 42 4 83q0 160 -59 300q-105 228 -302 228q-59 0 -151 -34t-194.5 -146.5t-155.5 -268.5q-37 -107 -37 -224q0 -54 8 -110l5 -30q8 -48 10 -48t7 27q22 144 102 306q53 99 107 113q16 4 29 4q33 0 54 -21t21 -44q0 -13 -6 -26q-1 -4 -3 -4q-3 0 -9 9t-15 14
q-9 0 -15.5 2.5t-14.5 3.5q-8 0 -20 -5q-49 -29 -105 -180t-65 -336q77 -100 177 -100q123 0 209 151q40 72 57 143q7 29 7 51q0 33 -15 51q-5 5 -5 11q0 3 2 9q4 9 15 9q6 0 12 -5q23 -27 23 -73q0 -32 -19 -101.5t-91 -162t-170 -120.5q-22 -6 -44 -6q-77 0 -158 75
q5 -120 37.5 -223t94.5 -161q49 -45 117 -45zM569 1178q-14 0 -14 8q0 6 9 16q16 16 16 35l-1 17q0 24 26 29q28 0 28 -36q0 -26 -14 -43q-23 -26 -50 -26z" />
    <glyph glyph-name="Ocircumflex" unicode="&#xd4;" horiz-adv-x="1035" 
d="M390 -455h-10q-139 0 -228 141q-80 128 -80 368q0 37 2 76q-61 132 -61 272q0 30 9 132.5t92.5 254.5t212 246t280.5 96q133 -3 239.5 -116.5t140.5 -326.5q9 -58 9 -122q0 -172 -64 -391q-99 -310 -247.5 -467t-294.5 -163zM397 -407q129 0 266 160q112 132 192 324.5
t98 399.5q4 42 4 83q0 160 -59 300q-105 228 -302 228q-59 0 -151 -34t-194.5 -146.5t-155.5 -268.5q-37 -107 -37 -224q0 -54 8 -110l5 -30q8 -48 10 -48t7 27q22 144 102 306q53 99 107 113q16 4 29 4q33 0 54 -21t21 -44q0 -13 -6 -26q-1 -4 -3 -4q-3 0 -9 9t-15 14
q-9 0 -15.5 2.5t-14.5 3.5q-8 0 -20 -5q-49 -29 -105 -180t-65 -336q77 -100 177 -100q123 0 209 151q40 72 57 143q7 29 7 51q0 33 -15 51q-5 5 -5 11q0 3 2 9q4 9 15 9q6 0 12 -5q23 -27 23 -73q0 -32 -19 -101.5t-91 -162t-170 -120.5q-22 -6 -44 -6q-77 0 -158 75
q5 -120 37.5 -223t94.5 -161q49 -45 117 -45zM552 1177q-6 0 -13 5.5t-7 14.5q0 27 36 59q15 13 25 13q9 0 11 -10q2 -6 6 -11q12 -14 25.5 -20.5t13.5 -13.5q0 -11 -12 -11q-10 0 -32 18q-4 3 -6 5.5t-3 2.5l-1 -2q-3 -12 -20 -36q-10 -14 -23 -14z" />
    <glyph glyph-name="Otilde" unicode="&#xd5;" horiz-adv-x="1035" 
d="M390 -455h-10q-139 0 -228 141q-80 128 -80 368q0 37 2 76q-61 132 -61 272q0 30 9 132.5t92.5 254.5t212 246t280.5 96q133 -3 239.5 -116.5t140.5 -326.5q9 -58 9 -122q0 -172 -64 -391q-99 -310 -247.5 -467t-294.5 -163zM397 -407q129 0 266 160q112 132 192 324.5
t98 399.5q4 42 4 83q0 160 -59 300q-105 228 -302 228q-59 0 -151 -34t-194.5 -146.5t-155.5 -268.5q-37 -107 -37 -224q0 -54 8 -110l5 -30q8 -48 10 -48t7 27q22 144 102 306q53 99 107 113q16 4 29 4q33 0 54 -21t21 -44q0 -13 -6 -26q-1 -4 -3 -4q-3 0 -9 9t-15 14
q-9 0 -15.5 2.5t-14.5 3.5q-8 0 -20 -5q-49 -29 -105 -180t-65 -336q77 -100 177 -100q123 0 209 151q40 72 57 143q7 29 7 51q0 33 -15 51q-5 5 -5 11q0 3 2 9q4 9 15 9q6 0 12 -5q23 -27 23 -73q0 -32 -19 -101.5t-91 -162t-170 -120.5q-22 -6 -44 -6q-77 0 -158 75
q5 -120 37.5 -223t94.5 -161q49 -45 117 -45zM552 1178h-10q-8 1 -18 14q-7 8 -7 18q0 5 2 15.5t29 21.5l1 1l-1 -2l2 1q7 4 15 4q16 0 46.5 -15.5t41.5 -15.5t13 11q1 7 8 8q14 0 14 -9l-2 -5q-11 -23 -28 -23q-20 0 -41.5 8t-26.5 8q-3 0 -6 -1v-1q-1 0 -1 -1t-1.5 -4
t-9.5 -18t-20 -15z" />
    <glyph glyph-name="Odieresis" unicode="&#xd6;" horiz-adv-x="1035" 
d="M390 -455h-10q-139 0 -228 141q-80 128 -80 368q0 37 2 76q-61 132 -61 272q0 30 9 132.5t92.5 254.5t212 246t280.5 96q133 -3 239.5 -116.5t140.5 -326.5q9 -58 9 -122q0 -172 -64 -391q-99 -310 -247.5 -467t-294.5 -163zM397 -407q129 0 266 160q112 132 192 324.5
t98 399.5q4 42 4 83q0 160 -59 300q-105 228 -302 228q-59 0 -151 -34t-194.5 -146.5t-155.5 -268.5q-37 -107 -37 -224q0 -54 8 -110l5 -30q8 -48 10 -48t7 27q22 144 102 306q53 99 107 113q16 4 29 4q33 0 54 -21t21 -44q0 -13 -6 -26q-1 -4 -3 -4q-3 0 -9 9t-15 14
q-9 0 -15.5 2.5t-14.5 3.5q-8 0 -20 -5q-49 -29 -105 -180t-65 -336q77 -100 177 -100q123 0 209 151q40 72 57 143q7 29 7 51q0 33 -15 51q-5 5 -5 11q0 3 2 9q4 9 15 9q6 0 12 -5q23 -27 23 -73q0 -32 -19 -101.5t-91 -162t-170 -120.5q-22 -6 -44 -6q-77 0 -158 75
q5 -120 37.5 -223t94.5 -161q49 -45 117 -45zM643 1192q-21 1 -27 19l-2 8q0 14 19 30q10 7 18 7q5 0 13 -4q15 -9 15 -32q0 -28 -36 -28zM555 1180h-2q-18 0 -29 23q0 31 14 41.5t28 10.5q29 0 32 -30q0 -20 -12.5 -32.5t-30.5 -12.5z" />
    <glyph glyph-name="multiply" unicode="&#xd7;" horiz-adv-x="307" 
d="M172 -49q-12 0 -22 10q-41 48 -48 67q-5 10 -8 10t-19 -26q-22 -30 -43 -30q-12 0 -22 10t-10 27q0 19 28 57q20 30 20 36l-1 3q-22 43 -22 59q0 8 5 8q12 0 51 -36q53 57 78 57q18 0 18 -19q0 -20 -28 -63q-17 -24 -17 -30t11 -16q18 -12 59 -74q5 -8 5 -17q0 -7 -6 -17
q-9 -16 -29 -16z" />
    <glyph glyph-name="Oslash" unicode="&#xd8;" horiz-adv-x="987" 
d="M137 -562q-1 0 -5.5 0.5t-8.5 6t-4 11.5q0 11 54 116q28 57 28 69q0 9 -14 22q-10 10 -27 32q-97 144 -97 396q0 34 2 66q-65 140 -65 281q0 38 13.5 146t106 256.5t223.5 235.5q123 82 251 82q151 -5 259 -132q22 45 46 90q11 29 27 29q6 0 10.5 -5t4.5 -11t-42 -101
q-17 -33 -17 -44q0 -5 8 -13q22 -19 45 -77q52 -135 52 -311q0 -80 -21.5 -218.5t-99.5 -314.5t-185.5 -301t-224.5 -165q-40 -13 -78 -13q-77 0 -149 52q-41 -88 -81 -177q-4 -8 -11 -8zM315 17l22 1q16 0 26.5 4t23 23.5t33.5 63.5t57 123q86 194 356 754
q-101 129 -241 129q-99 0 -206.5 -62t-197 -186.5t-124.5 -283.5q-15 -67 -15 -137q0 -94 27 -192q24 170 105 333q54 98 107 112q17 4 31 4q33 0 53.5 -20.5t20.5 -43.5q0 -13 -6 -26q-2 -4 -4 -4t-8 9t-15 14q-9 0 -15.5 2.5t-14.5 3.5q-8 0 -20 -5q-48 -28 -104.5 -179
t-65.5 -337q33 -46 78.5 -73t96.5 -27zM396 -378q38 0 117.5 34t186.5 181t176 345q71 204 71 414q0 194 -88 350q-156 -319 -252 -520q15 -24 15 -60q0 -29 -15.5 -89t-70 -143.5t-127.5 -125.5q-77 -162 -152 -325q66 -61 139 -61zM430 53q58 43 95.5 112.5t53.5 133.5
q12 46 12 72q0 9 -2 16zM234 -291q56 121 86 181q38 81 38 89q0 5 -8 5q-6 0 -15 -2q-15 -5 -37 -5q-18 0 -54 4.5t-104 67.5q5 -219 94 -340z" />
    <glyph glyph-name="Ugrave" unicode="&#xd9;" horiz-adv-x="814" 
d="M770 -571q-10 0 -20 3q-81 30 -104 179q-15 95 -15 214q0 305 100 886q13 74 18 111l5 31q0 5 -1 5q-5 0 -60 -132q-70 -170 -119 -294q-156 -380 -277 -546q-108 -148 -180 -148q-97 11 -112 199q-5 50 -5 111q0 240 66 522q64 270 127 378q25 44 48 44q11 0 21 -9
q31 -33 31 -75q0 -10 -3 -25.5t-8.5 -25t-7.5 -9.5l-2 1q-4 27 -22 46q-102 -261 -139 -494.5t-37 -390.5t8 -189q8 -41 47 -41q48 3 115 86q114 150 194.5 322.5t145.5 346.5q102 258 137 334q36 85 51 131q8 21 30 21q6 0 14 -3q18 -6 18 -76q0 -95 -49 -378
q-82 -461 -82 -722q0 -142 17 -249q11 -72 21 -99q17 -30 42 -30q10 0 20 6.5t10 20t12 13.5t14 -13q0 -34 -29 -50q-19 -12 -40 -12zM532 1045h-10q-8 0 -24 16t-21 52v2q0 25 29 25q25 0 25 -27q0 -12 -1.5 -17t-1.5 -8q0 -8 6 -14q15 -11 15 -18q0 -11 -17 -11z" />
    <glyph glyph-name="Uacute" unicode="&#xda;" horiz-adv-x="814" 
d="M770 -571q-10 0 -20 3q-81 30 -104 179q-15 95 -15 214q0 305 100 886q13 74 18 111l5 31q0 5 -1 5q-5 0 -60 -132q-70 -170 -119 -294q-156 -380 -277 -546q-108 -148 -180 -148q-97 11 -112 199q-5 50 -5 111q0 240 66 522q64 270 127 378q25 44 48 44q11 0 21 -9
q31 -33 31 -75q0 -10 -3 -25.5t-8.5 -25t-7.5 -9.5l-2 1q-4 27 -22 46q-102 -261 -139 -494.5t-37 -390.5t8 -189q8 -41 47 -41q48 3 115 86q114 150 194.5 322.5t145.5 346.5q102 258 137 334q36 85 51 131q8 21 30 21q6 0 14 -3q18 -6 18 -76q0 -95 -49 -378
q-82 -461 -82 -722q0 -142 17 -249q11 -72 21 -99q17 -30 42 -30q10 0 20 6.5t10 20t12 13.5t14 -13q0 -34 -29 -50q-19 -12 -40 -12zM494 1038q-14 0 -14 8q0 6 9 16q16 16 16 35l-1 17q0 24 26 29q28 0 28 -36q0 -26 -14 -43q-23 -26 -50 -26z" />
    <glyph glyph-name="Ucircumflex" unicode="&#xdb;" horiz-adv-x="814" 
d="M770 -571q-10 0 -20 3q-81 30 -104 179q-15 95 -15 214q0 305 100 886q13 74 18 111l5 31q0 5 -1 5q-5 0 -60 -132q-70 -170 -119 -294q-156 -380 -277 -546q-108 -148 -180 -148q-97 11 -112 199q-5 50 -5 111q0 240 66 522q64 270 127 378q25 44 48 44q11 0 21 -9
q31 -33 31 -75q0 -10 -3 -25.5t-8.5 -25t-7.5 -9.5l-2 1q-4 27 -22 46q-102 -261 -139 -494.5t-37 -390.5t8 -189q8 -41 47 -41q48 3 115 86q114 150 194.5 322.5t145.5 346.5q102 258 137 334q36 85 51 131q8 21 30 21q6 0 14 -3q18 -6 18 -76q0 -95 -49 -378
q-82 -461 -82 -722q0 -142 17 -249q11 -72 21 -99q17 -30 42 -30q10 0 20 6.5t10 20t12 13.5t14 -13q0 -34 -29 -50q-19 -12 -40 -12zM484 1053q-6 0 -13 5.5t-7 14.5q0 27 36 59q15 13 25 13q9 0 11 -10q2 -6 6 -11q12 -14 25.5 -20.5t13.5 -13.5q0 -11 -12 -11
q-10 0 -32 18q-4 3 -6 5.5t-3 2.5l-1 -2q-3 -12 -20 -36q-10 -14 -23 -14z" />
    <glyph glyph-name="Udieresis" unicode="&#xdc;" horiz-adv-x="814" 
d="M770 -571q-10 0 -20 3q-81 30 -104 179q-15 95 -15 214q0 305 100 886q13 74 18 111l5 31q0 5 -1 5q-5 0 -60 -132q-70 -170 -119 -294q-156 -380 -277 -546q-108 -148 -180 -148q-97 11 -112 199q-5 50 -5 111q0 240 66 522q64 270 127 378q25 44 48 44q11 0 21 -9
q31 -33 31 -75q0 -10 -3 -25.5t-8.5 -25t-7.5 -9.5l-2 1q-4 27 -22 46q-102 -261 -139 -494.5t-37 -390.5t8 -189q8 -41 47 -41q48 3 115 86q114 150 194.5 322.5t145.5 346.5q102 258 137 334q36 85 51 131q8 21 30 21q6 0 14 -3q18 -6 18 -76q0 -95 -49 -378
q-82 -461 -82 -722q0 -142 17 -249q11 -72 21 -99q17 -30 42 -30q10 0 20 6.5t10 20t12 13.5t14 -13q0 -34 -29 -50q-19 -12 -40 -12zM572 1062q-21 1 -27 19l-2 8q0 14 19 30q10 7 18 7q5 0 13 -4q15 -9 15 -32q0 -28 -36 -28zM484 1050h-2q-18 0 -29 23q0 31 14 41.5
t28 10.5q29 0 32 -30q0 -20 -12.5 -32.5t-30.5 -12.5z" />
    <glyph glyph-name="Yacute" unicode="&#xdd;" horiz-adv-x="1205" 
d="M450 -658q-67 0 -112 40q-53 48 -53 128q23 161 169 291t458 238q113 415 113 868q0 19 -0.5 64t-22.5 57q-3 2 -8 2q-22 0 -67 -56q-57 -72 -142 -196q-241 -352 -403 -511q-126 -124 -225 -124q-85 0 -123 72q-34 66 -34 164q0 29 8 115.5t70 237.5t165 270
q50 51 89 51q4 0 26.5 -3t37.5 -36q6 -12 6 -23q0 -18 -16 -32q-2 -2 -5 -2q-5 0 -5 6l1 8q0 7 -7 14q-11 11 -22 11q-45 0 -139 -167q-36 -65 -49 -95q-97 -211 -97 -375q0 -49 16 -108.5t89 -59.5q72 0 198 113q111 104 208.5 234.5t179.5 254.5q79 118 142 199
q75 96 120 96q36 0 57 -72q11 -37 16 -177q1 -29 1 -61q0 -355 -92 -712q206 59 223 59q11 0 11 -13q0 -9 -9 -12q-117 -29 -233 -65q-96 -329 -222.5 -490t-243.5 -192q-40 -11 -74 -11zM433 -604q24 0 84.5 17t177.5 155q135 171 208 439q-256 -94 -389 -207
q-182 -156 -182 -294q0 -44 23 -74q28 -36 78 -36zM617 1116q-14 0 -14 8q0 6 9 16q16 16 16 35l-1 17q0 24 26 29q28 0 28 -36q0 -26 -14 -43q-23 -26 -50 -26z" />
    <glyph glyph-name="Thorn" unicode="&#xde;" horiz-adv-x="327" 
d="M117 -149q-14 0 -47 23t-58 135q-12 75 -12 144q0 169 60 286q30 52 67 52q26 0 37 -23q4 -9 6 -35l-1 -19q-12 35 -24 35q-30 0 -53 -139q-13 -78 -13 -164q0 -11 0.5 -67t28.5 -125q2 20 2 38q0 23 7 73q-34 24 -34 47q0 8 5 15.5t15 7.5q11 0 15 -13t6 -13q1 0 2 2.5
t2.5 7.5t2.5 11q32 97 87 144q26 23 50 23q26 0 48 -27q11 -17 11 -40q0 -57 -47.5 -119.5t-101.5 -62.5q-12 0 -17 1.5t-7 1.5q-3 -1 -3 -13q0 -24 1 -45q2 -15 2 -32q0 -37 -10 -85q-9 -25 -27 -25zM180 79q13 0 41 17.5t56 67.5q22 44 22 69q0 9 -3 16q-7 17 -24 17
q-7 0 -27 -7.5t-49 -58.5q-36 -69 -36 -98q0 -23 20 -23z" />
    <glyph glyph-name="germandbls" unicode="&#xdf;" horiz-adv-x="517" 
d="M179 -242q-81 0 -120 61q-17 26 -17 56q0 28 15 59q-57 12 -57 134q0 91 35.5 211t110.5 213q72 90 172 90q62 0 89 -51q12 -23 12 -55q0 -36 -15 -85q-32 -90 -67 -117q-5 -4 -5 -6t10 -5l10 -3q108 -40 108 -168q0 -59 -30 -137t-103 -141q-66 -56 -148 -56zM181 -187
q26 0 76 17.5t112 118.5q41 74 41 140q0 7 -3 46.5t-46 70.5q-19 14 -44 14q-29 0 -66 -21q-6 -3 -11 -3t-13 4.5t-8 18.5q0 11 18 23q91 51 130 172q8 33 8 57q0 60 -49 60q-35 0 -93 -47t-111 -173t-54 -322q1 -23 7 -23q5 0 22 16q24 28 83 59q48 26 127 26q17 0 36.5 -2
t19.5 -21q0 -18 -20 -18h-9q-63 0 -122 -25q-116 -53 -116 -119q0 -34 32 -55q23 -14 53 -14z" />
    <glyph glyph-name="agrave" unicode="&#xe0;" 
d="M304 -239q-84 9 -92 140v8q0 85 38 189q8 22 8 27v2q-5 0 -47 -49q-108 -116 -166 -116h-7q-56 9 -56 81q2 87 70 176q64 74 124 81q13 2 25 2q44 0 82.5 -26t50.5 -59q3 -8 3 -15q0 -20 -25 -25q9 -14 9 -36q0 -31 -15 -100q-20 -87 -20 -138q0 -40 13 -75q7 -14 19 -14
q14 0 43 29.5t71 97t73 121.5l22 38q4 5 8 5q9 -2 9 -10l-1 -4q-78 -168 -100 -209q-71 -121 -139 -121zM57 -4l7 1q52 18 147 127q51 60 67 65q0 5 -30 22q-25 13 -49 13q-46 0 -90 -53q-32 -37 -50.5 -79.5t-19.5 -70.5q0 -25 18 -25zM244 343h-10q-8 0 -24 16t-21 52v2
q0 25 29 25q25 0 25 -27q0 -12 -1.5 -17t-1.5 -8q0 -8 6 -14q15 -11 15 -18q0 -11 -17 -11z" />
    <glyph glyph-name="aacute" unicode="&#xe1;" 
d="M304 -239q-84 9 -92 140v8q0 85 38 189q8 22 8 27v2q-5 0 -47 -49q-108 -116 -166 -116h-7q-56 9 -56 81q2 87 70 176q64 74 124 81q13 2 25 2q44 0 82.5 -26t50.5 -59q3 -8 3 -15q0 -20 -25 -25q9 -14 9 -36q0 -31 -15 -100q-20 -87 -20 -138q0 -40 13 -75q7 -14 19 -14
q14 0 43 29.5t71 97t73 121.5l22 38q4 5 8 5q9 -2 9 -10l-1 -4q-78 -168 -100 -209q-71 -121 -139 -121zM57 -4l7 1q52 18 147 127q51 60 67 65q0 5 -30 22q-25 13 -49 13q-46 0 -90 -53q-32 -37 -50.5 -79.5t-19.5 -70.5q0 -25 18 -25zM206 344q-14 0 -14 8q0 6 9 16
q16 16 16 35l-1 17q0 24 26 29q28 0 28 -36q0 -26 -14 -43q-23 -26 -50 -26z" />
    <glyph glyph-name="acircumflex" unicode="&#xe2;" 
d="M304 -239q-84 9 -92 140v8q0 85 38 189q8 22 8 27v2q-5 0 -47 -49q-108 -116 -166 -116h-7q-56 9 -56 81q2 87 70 176q64 74 124 81q13 2 25 2q44 0 82.5 -26t50.5 -59q3 -8 3 -15q0 -20 -25 -25q9 -14 9 -36q0 -31 -15 -100q-20 -87 -20 -138q0 -40 13 -75q7 -14 19 -14
q14 0 43 29.5t71 97t73 121.5l22 38q4 5 8 5q9 -2 9 -10l-1 -4q-78 -168 -100 -209q-71 -121 -139 -121zM57 -4l7 1q52 18 147 127q51 60 67 65q0 5 -30 22q-25 13 -49 13q-46 0 -90 -53q-32 -37 -50.5 -79.5t-19.5 -70.5q0 -25 18 -25zM186 336q-6 0 -13 5.5t-7 14.5
q0 27 36 59q15 13 25 13q9 0 11 -10q2 -6 6 -11q12 -14 25.5 -20.5t13.5 -13.5q0 -11 -12 -11q-10 0 -32 18q-4 3 -6 5.5t-3 2.5l-1 -2q-3 -12 -20 -36q-10 -14 -23 -14z" />
    <glyph glyph-name="atilde" unicode="&#xe3;" 
d="M304 -239q-84 9 -92 140v8q0 85 38 189q8 22 8 27v2q-5 0 -47 -49q-108 -116 -166 -116h-7q-56 9 -56 81q2 87 70 176q64 74 124 81q13 2 25 2q44 0 82.5 -26t50.5 -59q3 -8 3 -15q0 -20 -25 -25q9 -14 9 -36q0 -31 -15 -100q-20 -87 -20 -138q0 -40 13 -75q7 -14 19 -14
q14 0 43 29.5t71 97t73 121.5l22 38q4 5 8 5q9 -2 9 -10l-1 -4q-78 -168 -100 -209q-71 -121 -139 -121zM57 -4l7 1q52 18 147 127q51 60 67 65q0 5 -30 22q-25 13 -49 13q-46 0 -90 -53q-32 -37 -50.5 -79.5t-19.5 -70.5q0 -25 18 -25zM183 333h-10q-8 1 -18 14q-7 8 -7 18
q0 5 2 15.5t29 21.5l1 1l-1 -2l2 1q7 4 15 4q16 0 46.5 -15.5t41.5 -15.5t13 11q1 7 8 8q14 0 14 -9l-2 -5q-11 -23 -28 -23q-20 0 -41.5 8t-26.5 8q-3 0 -6 -1v-1q-1 0 -1 -1t-1.5 -4t-9.5 -18t-20 -15z" />
    <glyph glyph-name="adieresis" unicode="&#xe4;" 
d="M304 -239q-84 9 -92 140v8q0 85 38 189q8 22 8 27v2q-5 0 -47 -49q-108 -116 -166 -116h-7q-56 9 -56 81q2 87 70 176q64 74 124 81q13 2 25 2q44 0 82.5 -26t50.5 -59q3 -8 3 -15q0 -20 -25 -25q9 -14 9 -36q0 -31 -15 -100q-20 -87 -20 -138q0 -40 13 -75q7 -14 19 -14
q14 0 43 29.5t71 97t73 121.5l22 38q4 5 8 5q9 -2 9 -10l-1 -4q-78 -168 -100 -209q-71 -121 -139 -121zM57 -4l7 1q52 18 147 127q51 60 67 65q0 5 -30 22q-25 13 -49 13q-46 0 -90 -53q-32 -37 -50.5 -79.5t-19.5 -70.5q0 -25 18 -25zM270 358q-21 1 -27 19l-2 8
q0 14 19 30q10 7 18 7q5 0 13 -4q15 -9 15 -32q0 -28 -36 -28zM182 346h-2q-18 0 -29 23q0 31 14 41.5t28 10.5q29 0 32 -30q0 -20 -12.5 -32.5t-30.5 -12.5z" />
    <glyph glyph-name="aring" unicode="&#xe5;" 
d="M304 -239q-84 9 -92 140v8q0 85 38 189q8 22 8 27v2q-5 0 -47 -49q-108 -116 -166 -116h-7q-56 9 -56 81q2 87 70 176q64 74 124 81q13 2 25 2q44 0 82.5 -26t50.5 -59q3 -8 3 -15q0 -20 -25 -25q9 -14 9 -36q0 -31 -15 -100q-20 -87 -20 -138q0 -40 13 -75q7 -14 19 -14
q14 0 43 29.5t71 97t73 121.5l22 38q4 5 8 5q9 -2 9 -10l-1 -4q-78 -168 -100 -209q-71 -121 -139 -121zM57 -4l7 1q52 18 147 127q51 60 67 65q0 5 -30 22q-25 13 -49 13q-46 0 -90 -53q-32 -37 -50.5 -79.5t-19.5 -70.5q0 -25 18 -25zM229 336q-25 0 -41 24q-9 14 -9 35
q0 12 3 27q3 8 15 14.5t27 6.5l13 -1q11 0 27 -12q18 -18 18 -39q0 -22 -16 -38.5t-37 -16.5zM240 361q6 0 12.5 5.5t9.5 14t3 14.5q0 17 -17 19q-14 0 -20 -9.5t-6 -20.5q0 -15 13 -22q3 -1 5 -1z" />
    <glyph glyph-name="ae" unicode="&#xe6;" horiz-adv-x="373" 
d="M280 -47q-49 0 -90.5 40t-41.5 129q2 32 4 37v6q-3 8 -6 30q-2 -6 -33 -60q-49 -85 -79 -87q-51 5 -51 86q0 44 18 88q25 59 63 85q22 15 42 15q14 0 36 -13t26 -88q57 142 145 142q22 0 41 -12q35 -23 35 -63q0 -42 -50 -96q-43 -46 -92 -61q-9 -2 -14 -2.5t-7 -2
t-2 -15.5q0 -37 21 -69q18 -27 51 -29q16 -1 23 -14q6 -9 6 -19q0 -4 -3 -13q-3 -14 -42 -14zM227 154q34 5 67 32.5t51 59.5q10 20 10 35q0 10 -4 18q-10 12 -23 12q-71 0 -101 -157zM46 99q0 1 2 3q30 25 80 116q-5 9 -8 16t-8 15q-29 -18 -47.5 -64.5t-18.5 -79.5v-6z
" />
    <glyph glyph-name="ccedilla" unicode="&#xe7;" horiz-adv-x="259" 
d="M66 -181q-24 0 -44 13t-20 36q0 25 25 25q12 0 24 -10q9 -7 18 -7q2 0 8.5 1t12 9t5.5 16v5q-8 24 -26.5 29t-18.5 21q0 17 9 44q-51 20 -71 87q-8 24 -8 51q0 46 24 100q47 90 109 90q44 0 70 -35q15 -19 15 -41t-15 -47q-13 -27 -29 -27q-9 0 -11 11v-2q-9 65 -24 65
q-6 0 -15 -7q-31 -28 -43 -75q-8 -28 -8 -53q0 -17 6.5 -45.5t40.5 -28.5q33 0 88 61q5 5 8 5l5 -2q10 -3 10 -12l-2 -7q-40 -83 -108 -94l-2 -18v-1q48 -25 48 -75q0 -22 -12 -43q-25 -39 -69 -39zM144 194l1 2q-1 0 -1 -2z" />
    <glyph glyph-name="egrave" unicode="&#xe8;" horiz-adv-x="391" 
d="M141 -104h-11q-65 0 -111 63q-34 53 -34 113q0 17 8 65t54 110.5t102 82.5q16 5 30 5q38 0 69 -35q21 -31 21 -65q0 -25 -18.5 -69.5t-76.5 -85.5q-42 -29 -85 -29q-17 0 -34 4q0 -121 95 -121q45 0 111.5 37.5t130.5 140.5q3 4 8 4q8 -1 8 -8l-1 -5q-49 -87 -121 -144.5
t-145 -62.5zM69 100q88 13 126 54t38 78q0 1 -0.5 20.5t-32.5 24.5h-4q-30 0 -79 -58q-15 -18 -30 -46q-24 -47 -24 -64q0 -9 6 -9zM177 374h-10q-8 0 -24 16t-21 52v2q0 25 29 25q25 0 25 -27q0 -12 -1.5 -17t-1.5 -8q0 -8 6 -14q15 -11 15 -18q0 -11 -17 -11z" />
    <glyph glyph-name="eacute" unicode="&#xe9;" horiz-adv-x="391" 
d="M141 -104h-11q-65 0 -111 63q-34 53 -34 113q0 17 8 65t54 110.5t102 82.5q16 5 30 5q38 0 69 -35q21 -31 21 -65q0 -25 -18.5 -69.5t-76.5 -85.5q-42 -29 -85 -29q-17 0 -34 4q0 -121 95 -121q45 0 111.5 37.5t130.5 140.5q3 4 8 4q8 -1 8 -8l-1 -5q-49 -87 -121 -144.5
t-145 -62.5zM69 100q88 13 126 54t38 78q0 1 -0.5 20.5t-32.5 24.5h-4q-30 0 -79 -58q-15 -18 -30 -46q-24 -47 -24 -64q0 -9 6 -9zM149 369q-14 0 -14 8q0 6 9 16q16 16 16 35l-1 17q0 24 26 29q28 0 28 -36q0 -26 -14 -43q-23 -26 -50 -26z" />
    <glyph glyph-name="ecircumflex" unicode="&#xea;" horiz-adv-x="391" 
d="M141 -104h-11q-65 0 -111 63q-34 53 -34 113q0 17 8 65t54 110.5t102 82.5q16 5 30 5q38 0 69 -35q21 -31 21 -65q0 -25 -18.5 -69.5t-76.5 -85.5q-42 -29 -85 -29q-17 0 -34 4q0 -121 95 -121q45 0 111.5 37.5t130.5 140.5q3 4 8 4q8 -1 8 -8l-1 -5q-49 -87 -121 -144.5
t-145 -62.5zM69 100q88 13 126 54t38 78q0 1 -0.5 20.5t-32.5 24.5h-4q-30 0 -79 -58q-15 -18 -30 -46q-24 -47 -24 -64q0 -9 6 -9zM131 363q-6 0 -13 5.5t-7 14.5q0 27 36 59q15 13 25 13q9 0 11 -10q2 -6 6 -11q12 -14 25.5 -20.5t13.5 -13.5q0 -11 -12 -11q-10 0 -32 18
q-4 3 -6 5.5t-3 2.5l-1 -2q-3 -12 -20 -36q-10 -14 -23 -14z" />
    <glyph glyph-name="edieresis" unicode="&#xeb;" horiz-adv-x="391" 
d="M141 -104h-11q-65 0 -111 63q-34 53 -34 113q0 17 8 65t54 110.5t102 82.5q16 5 30 5q38 0 69 -35q21 -31 21 -65q0 -25 -18.5 -69.5t-76.5 -85.5q-42 -29 -85 -29q-17 0 -34 4q0 -121 95 -121q45 0 111.5 37.5t130.5 140.5q3 4 8 4q8 -1 8 -8l-1 -5q-49 -87 -121 -144.5
t-145 -62.5zM69 100q88 13 126 54t38 78q0 1 -0.5 20.5t-32.5 24.5h-4q-30 0 -79 -58q-15 -18 -30 -46q-24 -47 -24 -64q0 -9 6 -9zM208 382q-21 1 -27 19l-2 8q0 14 19 30q10 7 18 7q5 0 13 -4q15 -9 15 -32q0 -28 -36 -28zM120 370h-2q-18 0 -29 23q0 31 14 41.5t28 10.5
q29 0 32 -30q0 -20 -12.5 -32.5t-30.5 -12.5z" />
    <glyph glyph-name="igrave" unicode="&#xec;" horiz-adv-x="259" 
d="M82 -61q-25 0 -50.5 26.5t-35.5 91.5q-6 36 -6 72q0 29 4 57q19 122 70 122q22 0 32 -24q3 -7 3 -14q0 -15 -11 -31q-5 -7 -6 -7t-2 -1q-10 -41 -16 -106q-3 -29 -3 -55q0 -105 42 -105q32 0 88 60q44 47 68 88q3 5 8 5q10 -2 10 -9q0 -3 -2 -6q-87 -123 -145 -151
q-27 -13 -48 -13zM82 352h-10q-8 0 -24 16t-21 52v2q0 25 29 25q25 0 25 -27q0 -12 -1.5 -17t-1.5 -8q0 -8 6 -14q15 -11 15 -18q0 -11 -17 -11z" />
    <glyph glyph-name="iacute" unicode="&#xed;" horiz-adv-x="259" 
d="M82 -61q-25 0 -50.5 26.5t-35.5 91.5q-6 36 -6 72q0 29 4 57q19 122 70 122q22 0 32 -24q3 -7 3 -14q0 -15 -11 -31q-5 -7 -6 -7t-2 -1q-10 -41 -16 -106q-3 -29 -3 -55q0 -105 42 -105q32 0 88 60q44 47 68 88q3 5 8 5q10 -2 10 -9q0 -3 -2 -6q-87 -123 -145 -151
q-27 -13 -48 -13zM50 347q-14 0 -14 8q0 6 9 16q16 16 16 35l-1 17q0 24 26 29q28 0 28 -36q0 -26 -14 -43q-23 -26 -50 -26z" />
    <glyph glyph-name="icircumflex" unicode="&#xee;" horiz-adv-x="259" 
d="M82 -61q-25 0 -50.5 26.5t-35.5 91.5q-6 36 -6 72q0 29 4 57q19 122 70 122q22 0 32 -24q3 -7 3 -14q0 -15 -11 -31q-5 -7 -6 -7t-2 -1q-10 -41 -16 -106q-3 -29 -3 -55q0 -105 42 -105q32 0 88 60q44 47 68 88q3 5 8 5q10 -2 10 -9q0 -3 -2 -6q-87 -123 -145 -151
q-27 -13 -48 -13zM25 343q-6 0 -13 5.5t-7 14.5q0 27 36 59q15 13 25 13q9 0 11 -10q2 -6 6 -11q12 -14 25.5 -20.5t13.5 -13.5q0 -11 -12 -11q-10 0 -32 18q-4 3 -6 5.5t-3 2.5l-1 -2q-3 -12 -20 -36q-10 -14 -23 -14z" />
    <glyph glyph-name="idieresis" unicode="&#xef;" horiz-adv-x="259" 
d="M82 -61q-25 0 -50.5 26.5t-35.5 91.5q-6 36 -6 72q0 29 4 57q19 122 70 122q22 0 32 -24q3 -7 3 -14q0 -15 -11 -31q-5 -7 -6 -7t-2 -1q-10 -41 -16 -106q-3 -29 -3 -55q0 -105 42 -105q32 0 88 60q44 47 68 88q3 5 8 5q10 -2 10 -9q0 -3 -2 -6q-87 -123 -145 -151
q-27 -13 -48 -13zM114 376q-21 1 -27 19l-2 8q0 14 19 30q10 7 18 7q5 0 13 -4q15 -9 15 -32q0 -28 -36 -28zM26 364h-2q-18 0 -29 23q0 31 14 41.5t28 10.5q29 0 32 -30q0 -20 -12.5 -32.5t-30.5 -12.5z" />
    <glyph glyph-name="eth" unicode="&#xf0;" horiz-adv-x="608" 
d="M150 -316h-11q-66 0 -102.5 53.5t-36.5 128.5q7 110 73 190.5t204 116.5q-27 130 -66 218q-69 -10 -109 -31.5t-73 -87.5l-3 -5h4q0 -2 -5 -7t-12 -5q-12 0 -12 27q0 54 49 102q56 51 115 51q21 1 21 9q0 14 -45 90l-32 57q-16 27 -16 41q0 15 15 15q18 0 55.5 -43.5
t88.5 -150.5q53 16 67 52q11 26 11 63l-1 28q0 14 15 14q14 0 18 -12q9 -25 9 -50q0 -98 -99 -141q50 -130 56 -176q5 -24 11 -35.5t34 -11.5l24 1q20 2 53 2q53 0 141 -5q17 -3 17 -20q0 -16 -17 -16q-76 10 -152 10q-47 0 -95 -4q9 -58 9 -115q0 -47 -9.5 -121.5
t-57.5 -147t-136 -84.5zM134 -264q16 0 56 14.5t79 113.5q24 60 24 149q0 58 -10 129q-118 -31 -175 -99q-65 -79 -65 -169q0 -59 28 -103q26 -35 63 -35z" />
    <glyph glyph-name="ntilde" unicode="&#xf1;" horiz-adv-x="498" 
d="M72 -131q-40 4 -60 60q-23 63 -23 167q0 59 10 120q16 107 63 107q17 0 28 -17q13 -22 13 -33q-1 -11 -9 -23q-32 -48 -32 -160q0 -21 1.5 -57.5t6 -74t10.5 -41.5h1q16 0 66 121q42 104 105 222q20 31 41 31q10 0 32 -16q27 -22 38 -145q14 -164 48 -164q10 0 26.5 17
t35 55.5t26.5 68.5q3 7 9 7q10 0 10 -12q-19 -114 -69 -156q-24 -21 -49 -21q-24 0 -60 32q-48 41 -56 233q-3 33 -5 46q-35 -35 -59 -90.5t-43 -113.5q-22 -68 -46 -115.5t-59 -47.5zM159 359h-10q-8 1 -18 14q-7 8 -7 18q0 5 2 15.5t29 21.5l1 1l-1 -2l2 1q7 4 15 4
q16 0 46.5 -15.5t41.5 -15.5t13 11q1 7 8 8q14 0 14 -9l-2 -5q-11 -23 -28 -23q-20 0 -41.5 8t-26.5 8q-3 0 -6 -1v-1q-1 0 -1 -1t-1.5 -4t-9.5 -18t-20 -15z" />
    <glyph glyph-name="ograve" unicode="&#xf2;" horiz-adv-x="388" 
d="M112 -60h-4q-67 0 -104 64q-19 34 -19 78q0 41 16 89q19 45 43 67q19 19 28 36q39 69 89 69q82 -14 109 -93q13 -31 13 -67q0 -53 -27 -117q74 1 135 45l4 1q7 0 7 -9q0 -4 -3 -6q-69 -50 -154 -53q-63 -102 -133 -104zM230 69q29 56 29 104q0 97 -67 128q-12 6 -23 6
q-31 0 -56 -41q35 -8 35 -31q0 -10 -8.5 -21.5t-24.5 -13.5h3l-1 -1q-11 0 -11 -17q0 -9 8.5 -29.5t39.5 -48t76 -35.5zM119 -16q35 0 79 41q14 14 14 20q0 5 -18 7q-65 6 -111 76q-8 17 -9 17q-2 0 -4 -6q-10 -31 -10 -73q0 -56 32 -75q13 -7 27 -7zM185 391h-10
q-8 0 -24 16t-21 52v2q0 25 29 25q25 0 25 -27q0 -12 -1.5 -17t-1.5 -8q0 -8 6 -14q15 -11 15 -18q0 -11 -17 -11z" />
    <glyph glyph-name="oacute" unicode="&#xf3;" horiz-adv-x="388" 
d="M112 -60h-4q-67 0 -104 64q-19 34 -19 78q0 41 16 89q19 45 43 67q19 19 28 36q39 69 89 69q82 -14 109 -93q13 -31 13 -67q0 -53 -27 -117q74 1 135 45l4 1q7 0 7 -9q0 -4 -3 -6q-69 -50 -154 -53q-63 -102 -133 -104zM230 69q29 56 29 104q0 97 -67 128q-12 6 -23 6
q-31 0 -56 -41q35 -8 35 -31q0 -10 -8.5 -21.5t-24.5 -13.5h3l-1 -1q-11 0 -11 -17q0 -9 8.5 -29.5t39.5 -48t76 -35.5zM119 -16q35 0 79 41q14 14 14 20q0 5 -18 7q-65 6 -111 76q-8 17 -9 17q-2 0 -4 -6q-10 -31 -10 -73q0 -56 32 -75q13 -7 27 -7zM166 392q-14 0 -14 8
q0 6 9 16q16 16 16 35l-1 17q0 24 26 29q28 0 28 -36q0 -26 -14 -43q-23 -26 -50 -26z" />
    <glyph glyph-name="ocircumflex" unicode="&#xf4;" horiz-adv-x="388" 
d="M112 -60h-4q-67 0 -104 64q-19 34 -19 78q0 41 16 89q19 45 43 67q19 19 28 36q39 69 89 69q82 -14 109 -93q13 -31 13 -67q0 -53 -27 -117q74 1 135 45l4 1q7 0 7 -9q0 -4 -3 -6q-69 -50 -154 -53q-63 -102 -133 -104zM230 69q29 56 29 104q0 97 -67 128q-12 6 -23 6
q-31 0 -56 -41q35 -8 35 -31q0 -10 -8.5 -21.5t-24.5 -13.5h3l-1 -1q-11 0 -11 -17q0 -9 8.5 -29.5t39.5 -48t76 -35.5zM119 -16q35 0 79 41q14 14 14 20q0 5 -18 7q-65 6 -111 76q-8 17 -9 17q-2 0 -4 -6q-10 -31 -10 -73q0 -56 32 -75q13 -7 27 -7zM145 383q-6 0 -13 5.5
t-7 14.5q0 27 36 59q15 13 25 13q9 0 11 -10q2 -6 6 -11q12 -14 25.5 -20.5t13.5 -13.5q0 -11 -12 -11q-10 0 -32 18q-4 3 -6 5.5t-3 2.5l-1 -2q-3 -12 -20 -36q-10 -14 -23 -14z" />
    <glyph glyph-name="otilde" unicode="&#xf5;" horiz-adv-x="388" 
d="M112 -60h-4q-67 0 -104 64q-19 34 -19 78q0 41 16 89q19 45 43 67q19 19 28 36q39 69 89 69q82 -14 109 -93q13 -31 13 -67q0 -53 -27 -117q74 1 135 45l4 1q7 0 7 -9q0 -4 -3 -6q-69 -50 -154 -53q-63 -102 -133 -104zM230 69q29 56 29 104q0 97 -67 128q-12 6 -23 6
q-31 0 -56 -41q35 -8 35 -31q0 -10 -8.5 -21.5t-24.5 -13.5h3l-1 -1q-11 0 -11 -17q0 -9 8.5 -29.5t39.5 -48t76 -35.5zM119 -16q35 0 79 41q14 14 14 20q0 5 -18 7q-65 6 -111 76q-8 17 -9 17q-2 0 -4 -6q-10 -31 -10 -73q0 -56 32 -75q13 -7 27 -7zM133 377h-10
q-8 1 -18 14q-7 8 -7 18q0 5 2 15.5t29 21.5l1 1l-1 -2l2 1q7 4 15 4q16 0 46.5 -15.5t41.5 -15.5t13 11q1 7 8 8q14 0 14 -9l-2 -5q-11 -23 -28 -23q-20 0 -41.5 8t-26.5 8q-3 0 -6 -1v-1q-1 0 -1 -1t-1.5 -4t-9.5 -18t-20 -15z" />
    <glyph glyph-name="odieresis" unicode="&#xf6;" horiz-adv-x="388" 
d="M112 -60h-4q-67 0 -104 64q-19 34 -19 78q0 41 16 89q19 45 43 67q19 19 28 36q39 69 89 69q82 -14 109 -93q13 -31 13 -67q0 -53 -27 -117q74 1 135 45l4 1q7 0 7 -9q0 -4 -3 -6q-69 -50 -154 -53q-63 -102 -133 -104zM230 69q29 56 29 104q0 97 -67 128q-12 6 -23 6
q-31 0 -56 -41q35 -8 35 -31q0 -10 -8.5 -21.5t-24.5 -13.5h3l-1 -1q-11 0 -11 -17q0 -9 8.5 -29.5t39.5 -48t76 -35.5zM119 -16q35 0 79 41q14 14 14 20q0 5 -18 7q-65 6 -111 76q-8 17 -9 17q-2 0 -4 -6q-10 -31 -10 -73q0 -56 32 -75q13 -7 27 -7zM228 385q-21 1 -27 19
l-2 8q0 14 19 30q10 7 18 7q5 0 13 -4q15 -9 15 -32q0 -28 -36 -28zM140 373h-2q-18 0 -29 23q0 31 14 41.5t28 10.5q29 0 32 -30q0 -20 -12.5 -32.5t-30.5 -12.5z" />
    <glyph glyph-name="divide" unicode="&#xf7;" horiz-adv-x="483" 
d="M225 194q-19 0 -30 11t-11 25q0 4 2.5 16t20.5 19q8 4 15 4q9 0 20.5 -8t15.5 -25q0 -21 -13 -34q-7 -8 -20 -8zM18 58q-18 2 -18 20q0 4 2 11q5 11 115.5 17.5t177.5 6.5q53 0 76 -3q12 -3 12 -16q0 -14 -12 -17zM199 -73h-9q-30 9 -30 37q0 15 9.5 27t26.5 12l12 -1
q29 -11 29 -40q0 -12 -8 -23.5t-30 -11.5z" />
    <glyph glyph-name="oslash" unicode="&#xf8;" horiz-adv-x="182" 
d="M-10 -90q-7 0 -11 4.5t-4 10.5v2q22 68 49 132q-48 22 -48 82q0 33 16.5 73t52.5 64q-17 0 -32 -10q-4 -2 -8 -2q-17 0 -17 18q0 6 4 11q25 21 54 21q6 0 27.5 -3t48.5 -28q37 78 49 78q4 0 4 -8q0 -22 -30 -101q12 -28 12 -57t-18 -74t-69 -65q-8 -3 -15.5 -26.5
t-52.5 -113.5q-4 -8 -12 -8zM41 102q4 0 12 23q14 35 30 71q21 44 21 55q0 5 -14 14q0 -6 -4 -10q-1 0 -1 2v6q0 4 -2 4q-16 0 -39 -49q-22 -45 -22 -75q0 -17 7.5 -29t11.5 -12zM93 115q2 0 21 42q8 19 8 40q-30 -76 -30 -81q0 -1 1 -1z" />
    <glyph glyph-name="ugrave" unicode="&#xf9;" horiz-adv-x="511" 
d="M329 -208q-67 1 -89 132q-7 39 -7 82q0 60 13 128q-42 -69 -103 -137q-39 -39 -72 -39q-19 0 -36 14q-45 38 -45 152q0 72 20 117q23 53 57 53q9 0 16 -4q14 -9 14 -28q0 -13 -12 -44q-27 -71 -27 -133q0 -86 25 -86t72 57q66 78 112 163q13 42 24 63q16 30 32 30
q10 0 16 -10.5t6 -23.5q0 -34 -12 -84q-33 -152 -33 -249q0 -47 9 -74q15 -44 42 -44q8 0 33 11.5t65.5 85t60.5 181.5q1 6 6 7q5 0 8.5 -2.5t3.5 -7.5v-2q-101 -308 -199 -308zM183 340h-10q-8 0 -24 16t-21 52v2q0 25 29 25q25 0 25 -27q0 -12 -1.5 -17t-1.5 -8
q0 -8 6 -14q15 -11 15 -18q0 -11 -17 -11z" />
    <glyph glyph-name="uacute" unicode="&#xfa;" horiz-adv-x="511" 
d="M329 -208q-67 1 -89 132q-7 39 -7 82q0 60 13 128q-42 -69 -103 -137q-39 -39 -72 -39q-19 0 -36 14q-45 38 -45 152q0 72 20 117q23 53 57 53q9 0 16 -4q14 -9 14 -28q0 -13 -12 -44q-27 -71 -27 -133q0 -86 25 -86t72 57q66 78 112 163q13 42 24 63q16 30 32 30
q10 0 16 -10.5t6 -23.5q0 -34 -12 -84q-33 -152 -33 -249q0 -47 9 -74q15 -44 42 -44q8 0 33 11.5t65.5 85t60.5 181.5q1 6 6 7q5 0 8.5 -2.5t3.5 -7.5v-2q-101 -308 -199 -308zM160 340q-14 0 -14 8q0 6 9 16q16 16 16 35l-1 17q0 24 26 29q28 0 28 -36q0 -26 -14 -43
q-23 -26 -50 -26z" />
    <glyph glyph-name="ucircumflex" unicode="&#xfb;" horiz-adv-x="511" 
d="M329 -208q-67 1 -89 132q-7 39 -7 82q0 60 13 128q-42 -69 -103 -137q-39 -39 -72 -39q-19 0 -36 14q-45 38 -45 152q0 72 20 117q23 53 57 53q9 0 16 -4q14 -9 14 -28q0 -13 -12 -44q-27 -71 -27 -133q0 -86 25 -86t72 57q66 78 112 163q13 42 24 63q16 30 32 30
q10 0 16 -10.5t6 -23.5q0 -34 -12 -84q-33 -152 -33 -249q0 -47 9 -74q15 -44 42 -44q8 0 33 11.5t65.5 85t60.5 181.5q1 6 6 7q5 0 8.5 -2.5t3.5 -7.5v-2q-101 -308 -199 -308zM146 327q-6 0 -13 5.5t-7 14.5q0 27 36 59q15 13 25 13q9 0 11 -10q2 -6 6 -11
q12 -14 25.5 -20.5t13.5 -13.5q0 -11 -12 -11q-10 0 -32 18q-4 3 -6 5.5t-3 2.5l-1 -2q-3 -12 -20 -36q-10 -14 -23 -14z" />
    <glyph glyph-name="udieresis" unicode="&#xfc;" horiz-adv-x="511" 
d="M329 -208q-67 1 -89 132q-7 39 -7 82q0 60 13 128q-42 -69 -103 -137q-39 -39 -72 -39q-19 0 -36 14q-45 38 -45 152q0 72 20 117q23 53 57 53q9 0 16 -4q14 -9 14 -28q0 -13 -12 -44q-27 -71 -27 -133q0 -86 25 -86t72 57q66 78 112 163q13 42 24 63q16 30 32 30
q10 0 16 -10.5t6 -23.5q0 -34 -12 -84q-33 -152 -33 -249q0 -47 9 -74q15 -44 42 -44q8 0 33 11.5t65.5 85t60.5 181.5q1 6 6 7q5 0 8.5 -2.5t3.5 -7.5v-2q-101 -308 -199 -308zM230 349q-21 1 -27 19l-2 8q0 14 19 30q10 7 18 7q5 0 13 -4q15 -9 15 -32q0 -28 -36 -28z
M142 337h-2q-18 0 -29 23q0 31 14 41.5t28 10.5q29 0 32 -30q0 -20 -12.5 -32.5t-30.5 -12.5z" />
    <glyph glyph-name="yacute" unicode="&#xfd;" horiz-adv-x="542" 
d="M175 -621q-96 5 -122 104q-9 29 -9 62q0 77 59.5 199.5t276.5 281.5v29q0 43 -2 84l-3 58q0 43 -10 43q-4 0 -14 -8q-17 -12 -79 -98q-43 -60 -90 -115q-60 -69 -106 -69q-37 0 -59 36q-29 46 -29 127q0 45 10 93q16 78 57 78q5 0 16 -2t18 -23q2 -10 2 -18q0 -6 -2 -14
l-10 -19q-19 -63 -19 -130q0 -80 30 -80q22 0 68 48q74 78 136 174q33 49 54 68q14 12 31 12q50 0 67 -74q12 -58 12 -151q74 43 86 43q13 0 13 -13q0 -4 -6 -8q-54 -21 -73 -34q-14 -10 -18 -25.5t-4 -48.5q-1 -38 -10 -117q-36 -272 -119 -386q-78 -107 -152 -107z
M159 -561q41 0 95.5 63.5t96.5 250.5q24 121 29 244q-173 -131 -240 -251q-61 -108 -61 -186q0 -8 4 -53.5t54 -63.5q11 -4 22 -4zM184 328q-14 0 -14 8q0 6 9 16q16 16 16 35l-1 17q0 24 26 29q28 0 28 -36q0 -26 -14 -43q-23 -26 -50 -26z" />
    <glyph glyph-name="thorn" unicode="&#xfe;" horiz-adv-x="538" 
d="M-103 -651q-6 0 -14 4.5t-8 33.5q0 86 17.5 234.5t52.5 314t81 282.5q263 648 312 648q15 0 23.5 -10.5t8.5 -24.5q0 -18 -19 -33q-265 -572 -355 -982q-36 -164 -53 -275q53 160 84 276q34 130 79 248.5t141 273.5q42 62 90 62q64 -9 90 -87q11 -33 11 -79
q0 -61 -20 -144l20 -1q52 0 101 22l6 2q6 0 6 -7q0 -9 -17 -17q-26 -13 -85 -13l-35 1q-69 -217 -184 -217q-92 13 -109 94q-3 12 -3 24q0 42 39 77q45 41 164 41l27 -1q22 78 22 154l-1 38q-9 68 -39 68q-54 0 -142 -168q-42 -83 -66 -152t-52 -173q-39 -145 -152 -499
q-6 -15 -21 -15zM212 -90q33 0 75 53q37 54 57 119h-10q-101 0 -140 -37q-36 -33 -36 -70q0 -6 4 -30.5t41 -33.5z" />
    <glyph glyph-name="ydieresis" unicode="&#xff;" horiz-adv-x="542" 
d="M175 -621q-96 5 -122 104q-9 29 -9 62q0 77 59.5 199.5t276.5 281.5v29q0 43 -2 84l-3 58q0 43 -10 43q-4 0 -14 -8q-17 -12 -79 -98q-43 -60 -90 -115q-60 -69 -106 -69q-37 0 -59 36q-29 46 -29 127q0 45 10 93q16 78 57 78q5 0 16 -2t18 -23q2 -10 2 -18q0 -6 -2 -14
l-10 -19q-19 -63 -19 -130q0 -80 30 -80q22 0 68 48q74 78 136 174q33 49 54 68q14 12 31 12q50 0 67 -74q12 -58 12 -151q74 43 86 43q13 0 13 -13q0 -4 -6 -8q-54 -21 -73 -34q-14 -10 -18 -25.5t-4 -48.5q-1 -38 -10 -117q-36 -272 -119 -386q-78 -107 -152 -107z
M159 -561q41 0 95.5 63.5t96.5 250.5q24 121 29 244q-173 -131 -240 -251q-61 -108 -61 -186q0 -8 4 -53.5t54 -63.5q11 -4 22 -4zM260 337q-21 1 -27 19l-2 8q0 14 19 30q10 7 18 7q5 0 13 -4q15 -9 15 -32q0 -28 -36 -28zM172 325h-2q-18 0 -29 23q0 31 14 41.5t28 10.5
q29 0 32 -30q0 -20 -12.5 -32.5t-30.5 -12.5z" />
    <glyph glyph-name="dotlessi" unicode="&#x131;" horiz-adv-x="259" 
d="M82 -61q-25 0 -50.5 26.5t-35.5 91.5q-6 36 -6 72q0 29 4 57q19 122 70 122q22 0 32 -24q3 -7 3 -14q0 -15 -11 -31q-5 -7 -6 -7t-2 -1q-10 -41 -16 -106q-3 -29 -3 -55q0 -105 42 -105q32 0 88 60q44 47 68 88q3 5 8 5q10 -2 10 -9q0 -3 -2 -6q-87 -123 -145 -151
q-27 -13 -48 -13z" />
    <glyph glyph-name="OE" unicode="&#x152;" horiz-adv-x="1615" 
d="M978 219q-16 -92 -46 -194q-99 -310 -247.5 -467t-294.5 -163h-10q-139 0 -228 141q-80 128 -80 368q0 37 2 76q-61 132 -61 272q0 30 9 132.5t92.5 254.5t212 246t280.5 96q133 -3 240 -116q26 -28 47 -62q6 2 11 4q154 48 346 88q25 44 48 44q25 0 35 -28
q287 50 457 50q97 0 142 -20q28 -12 28 -25q0 -8 -9 -8l-7 1q-65 25 -164 25q-185 0 -445 -54q-2 -25 -11.5 -42t-24.5 -38q-27 -32 -69 -113q-47 -89 -112 -305q-21 -67 -21 -81q0 -9 9 -9q7 0 17 3q25 9 72 9h9q12 0 12 -14q0 -4 -6 -7q-15 -7 -29.5 -11.5t-36.5 -9.5
t-59 -14q-53 -257 -53 -414q0 -50 14 -153.5t107 -103.5q87 0 214.5 145.5t270.5 432.5q3 5 8 5q4 0 6.5 -3.5t2.5 -6.5l-1 -4q-313 -601 -514 -601q-57 0 -96 57q-65 97 -65 318q0 44 2 94q9 113 18 160q5 25 5 38q0 12 -8 12q-6 0 -19 -5zM854 790q-99 148 -258 148
q-59 0 -151 -34t-194.5 -146.5t-155.5 -268.5q-37 -107 -37 -224q0 -54 8 -110l5 -30q8 -48 10 -48t7 27q22 144 102 306q53 99 107 113q16 4 29 4q33 0 54 -21t21 -44q0 -13 -6 -26q-1 -4 -3 -4q-3 0 -9 9t-15 14q-9 0 -15.5 2.5t-14.5 3.5q-8 0 -20 -5q-49 -29 -105 -180
t-65 -336q77 -100 177 -100q123 0 209 151q40 72 57 143q7 29 7 51q0 33 -15 51q-5 5 -5 11q0 3 2 9q4 9 15 9q6 0 12 -5q23 -27 23 -73q0 -32 -19 -101.5t-91 -162t-170 -120.5q-22 -6 -44 -6q-77 0 -158 75q5 -120 37.5 -223t94.5 -161q49 -45 117 -45q129 0 266 160
q112 132 192 325q56 134 82 276q-7 -3 -15 -5q-1 -1 -13 -4.5t-27 -8.5q-48 -15 -57 -15q-7 0 -14.5 6t-7.5 20q0 11 13 19.5t53 20.5q38 11 76 20q5 35 8 70q4 42 4 83q0 160 -59 300q-9 19 -18 36q-92 -35 -153 -66q-31 -17 -31 -22q0 -1 2 -1q8 0 41 10l33 9
q-92 -81 -141 -81q-40 0 -40 31q0 7 7.5 35t97.5 73q45 20 158 56zM919 760q47 -93 68 -222q9 -58 9 -122q0 -71 -11 -149q12 2 23 5q9 3 22 64q43 215 181 486l8 14q7 10 7 14t-4 4q-9 0 -87 -23l-32 -10q-78 -23 -184 -61z" />
    <glyph glyph-name="oe" unicode="&#x153;" horiz-adv-x="650" 
d="M282 208q10 17 24 36q46 62 102 82q15 5 30 5q38 0 69 -35q21 -31 21 -65q0 -25 -18.5 -69.5t-76.5 -85.5q-43 -29 -86 -29q-16 0 -33 4q0 -121 95 -121q44 0 111 37.5t131 140.5q3 4 7 4q9 -1 9 -8l-1 -5q-49 -87 -121 -144.5t-145 -62.5h-12q-64 0 -110 63
q-33 51 -34 109q-63 -102 -133 -104h-4q-67 0 -104 64q-19 34 -19 78q0 41 16 89q19 45 43 67q19 19 28 36q39 69 89 69q82 -14 109 -93q12 -29 13 -62zM229 89q29 56 29 104q0 97 -67 128q-12 6 -23 6q-31 0 -56 -41q35 -8 35 -31q0 -10 -8.5 -21.5t-24.5 -13.5h3l-1 -1
q-11 0 -11 -17q0 -9 8.5 -29.5t39.5 -48t76 -35.5zM328 96q88 13 126 54t38 78q0 1 -0.5 20.5t-32.5 24.5h-4q-30 0 -79 -58q-15 -18 -30 -46q-24 -47 -24 -64q0 -9 6 -9zM118 4q35 0 79 41q14 14 14 20q0 5 -18 7q-65 6 -111 76q-8 17 -9 17q-2 0 -4 -6q-10 -31 -10 -73
q0 -56 32 -75q13 -7 27 -7z" />
    <glyph glyph-name="Scaron" unicode="&#x160;" horiz-adv-x="628" 
d="M272 -524q-74 0 -144 41.5t-106 125.5q-22 51 -22 104q0 101 43 101q15 0 26.5 -10t11.5 -26l-1 -10q-6 -32 -6 -61q0 -76 54 -132.5t149 -56.5q92 0 160 74q59 64 59 190q0 119 -62 258q-48 107 -110 218q-53 97 -100 198q-93 194 -93 339q0 24 5 80t48.5 117t124.5 75
q16 2 31 2q82 0 157 -54t117 -142q29 -61 29 -116q0 -42 -13 -62q-10 -16 -18 -16q-4 0 -6 5q-27 50 -34 84q-12 49 -39 95q-41 68 -101 103q-46 27 -90 27q-13 0 -48.5 -7t-67.5 -78q-20 -54 -20 -114q0 -33 12 -99q22 -120 166 -384q52 -98 98 -194q87 -188 87 -333
q0 -160 -96 -258q-83 -84 -201 -84zM360 1233q6 0 13 -5t7 -15q0 -26 -36 -58q-14 -14 -25 -14q-9 0 -11 11q-2 5 -6 10q-12 14 -25.5 21t-13.5 13q0 11 12 12q10 0 32 -18q5 -4 6.5 -6t2.5 -2l1 2q3 11 20 35q10 14 23 14z" />
    <glyph glyph-name="scaron" unicode="&#x161;" horiz-adv-x="228" 
d="M-9 -261h-3q-50 0 -56 56v8q0 59 93 168l-13 47q-43 127 -43 204q0 6 1 35.5t33 60.5q21 16 42 16q11 0 22 -5q28 -11 28 -43q0 -34 -30 -34q-7 0 -14 4q-6 -24 -6 -48q0 -22 7 -55.5t37 -122.5q60 48 134 73l4 1q7 0 7 -10q0 -7 -6 -9q-74 -26 -134 -74q14 -59 14 -105
q0 -59 -32 -111.5t-85 -55.5zM-21 -233q25 0 46 42q13 25 13 68q0 32 -7 72q-22 -27 -44 -65q-31 -53 -31 -85t23 -32zM74 461q6 0 13 -5t7 -15q0 -26 -36 -58q-14 -14 -25 -14q-9 0 -11 11q-2 5 -6 10q-12 14 -25.5 21t-13.5 13q0 11 12 12q10 0 32 -18q5 -4 6.5 -6t2.5 -2
l1 2q3 11 20 35q10 14 23 14z" />
    <glyph glyph-name="Ydieresis" unicode="&#x178;" horiz-adv-x="1205" 
d="M450 -658q-67 0 -112 40q-53 48 -53 128q23 161 169 291t458 238q113 415 113 868q0 19 -0.5 64t-22.5 57q-3 2 -8 2q-22 0 -67 -56q-57 -72 -142 -196q-241 -352 -403 -511q-126 -124 -225 -124q-85 0 -123 72q-34 66 -34 164q0 29 8 115.5t70 237.5t165 270
q50 51 89 51q4 0 26.5 -3t37.5 -36q6 -12 6 -23q0 -18 -16 -32q-2 -2 -5 -2q-5 0 -5 6l1 8q0 7 -7 14q-11 11 -22 11q-45 0 -139 -167q-36 -65 -49 -95q-97 -211 -97 -375q0 -49 16 -108.5t89 -59.5q72 0 198 113q111 104 208.5 234.5t179.5 254.5q79 118 142 199
q75 96 120 96q36 0 57 -72q11 -37 16 -177q1 -29 1 -61q0 -355 -92 -712q206 59 223 59q11 0 11 -13q0 -9 -9 -12q-117 -29 -233 -65q-96 -329 -222.5 -490t-243.5 -192q-40 -11 -74 -11zM433 -604q24 0 84.5 17t177.5 155q135 171 208 439q-256 -94 -389 -207
q-182 -156 -182 -294q0 -44 23 -74q28 -36 78 -36zM697 1114q-21 1 -27 19l-2 8q0 14 19 30q10 7 18 7q5 0 13 -4q15 -9 15 -32q0 -28 -36 -28zM609 1102h-2q-18 0 -29 23q0 31 14 41.5t28 10.5q29 0 32 -30q0 -20 -12.5 -32.5t-30.5 -12.5z" />
    <glyph glyph-name="Zcaron" unicode="&#x17d;" horiz-adv-x="816" 
d="M25 -488q-15 0 -23 13q-2 4 -2 8q0 6 4 14q22 37 411 557q407 544 565 730q129 143 174 176q22 18 22 23q0 2 -6 2l-18 -2q-21 -3 -60 -3q-66 0 -99 3q-223 19 -311 19q-152 0 -212 -83q-26 -36 -26 -74q0 -78 78 -104q9 -2 9 -4q0 -4 -27 -4q-48 0 -83 40t-35 96
q0 12 5 54t95 100q63 34 155 34q99 0 258 -27q146 -24 227 -24q76 0 119 28q5 3 10 3q2 0 7.5 -2.5t8 -8t2.5 -8.5q0 -4 -3 -8q-43 -57 -93 -109q-82 -86 -200 -236q-88 -111 -257 -329q-545 -706 -593 -761q-18 -21 -18 -24q0 -1 2 -1q3 0 15 5q27 12 97 24q41 5 78 5
q85 0 205 -37q108 -34 174 -34q171 0 208 126q5 12 16 12q7 0 12.5 -5t5.5 -12v-5q-23 -83 -102 -121q-66 -32 -140 -32q-45 0 -138 25q-152 42 -255 42q-39 0 -103 -8.5t-142 -66.5q-8 -6 -17 -6zM928 1235q6 0 13 -5t7 -15q0 -26 -36 -58q-14 -14 -25 -14q-9 0 -11 11
q-2 5 -6 10q-12 14 -25.5 21t-13.5 13q0 11 12 12q10 0 32 -18q5 -4 6.5 -6t2.5 -2l1 2q3 11 20 35q10 14 23 14z" />
    <glyph glyph-name="zcaron" unicode="&#x17e;" horiz-adv-x="322" 
d="M-100 -196q-12 0 -19 7t-7 15q0 12 45 113q118 269 170 321l8 7l-92 2q-112 0 -123 -24q14 -7 14 -11v-1q-12 -28 -35 -28q-4 0 -20 3.5t-30 31.5q-4 9 -4 18q0 21 22 45q31 27 85 27q58 0 154 -24q43 -10 69 -13q25 11 42 11q14 0 14 -10q0 -9 -7 -14
q-46 -31 -87.5 -105t-82.5 -165q-13 -29 -27 -57v-1h5q9 3 28 3q5 0 22 -0.5t62 -24.5q31 -22 59 -22q3 0 19.5 0.5t60.5 50.5q59 60 77 142q1 7 8 8q6 0 10 -3.5t4 -6.5t-2 -7q-104 -215 -183 -215q-34 0 -70 20q-39 22 -68 22q-26 0 -57 -19q-41 -96 -64 -96zM41 465
q6 0 13 -5t7 -15q0 -26 -36 -58q-14 -14 -25 -14q-9 0 -11 11q-2 5 -6 10q-12 14 -25.5 21t-13.5 13q0 11 12 12q10 0 32 -18q5 -4 6.5 -6t2.5 -2l1 2q3 11 20 35q10 14 23 14z" />
    <glyph glyph-name="gravecomb" unicode="&#x300;" horiz-adv-x="172" 
d="M55 1146h-10q-8 0 -24 16t-21 52v2q0 25 29 25q25 0 25 -27q0 -12 -1.5 -17t-1.5 -8q0 -8 6 -14q15 -11 15 -18q0 -11 -17 -11z" />
    <glyph glyph-name="acutecomb" unicode="&#x301;" horiz-adv-x="178" 
d="M14 1143q-14 0 -14 8q0 6 9 16q16 16 16 35l-1 17q0 24 26 29q28 0 28 -36q0 -26 -14 -43q-23 -26 -50 -26z" />
    <glyph glyph-name="uni0302" unicode="&#x302;" horiz-adv-x="217" 
d="M20 1126q-6 0 -13 5.5t-7 14.5q0 27 36 59q15 13 25 13q9 0 11 -10q2 -6 6 -11q12 -14 25.5 -20.5t13.5 -13.5q0 -11 -12 -11q-10 0 -32 18q-4 3 -6 5.5t-3 2.5l-1 -2q-3 -12 -20 -36q-10 -14 -23 -14z" />
    <glyph glyph-name="tildecomb" unicode="&#x303;" horiz-adv-x="271" 
d="M35 1149h-10q-8 1 -18 14q-7 8 -7 18q0 5 2 15.5t29 21.5l1 1l-1 -2l2 1q7 4 15 4q16 0 46.5 -15.5t41.5 -15.5t13 11q1 7 8 8q14 0 14 -9l-2 -5q-11 -23 -28 -23q-20 0 -41.5 8t-26.5 8q-3 0 -6 -1v-1q-1 0 -1 -1t-1.5 -4t-9.5 -18t-20 -15z" />
    <glyph glyph-name="uni0304" unicode="&#x304;" horiz-adv-x="0" 
d="M-696 640q-12 0 -28 11t-16 31q0 12 8 23.5t26 11.5q21 -1 41 -4q50 -6 142 -11l57 -4q41 -4 41 -23q0 -5 -12 -10t-90 -5h-37q-47 -2 -73 -7t-38.5 -9t-20.5 -4z" />
    <glyph glyph-name="uni0307" unicode="&#x307;" horiz-adv-x="175" 
d="M36 30q-5 0 -16.5 2.5t-18.5 24.5l-1 12q0 21 15 30q10 6 22 6q37 0 38 -37q-1 -21 -16 -31q-11 -7 -23 -7z" />
    <glyph glyph-name="uni0308" unicode="&#x308;" horiz-adv-x="255" 
d="M119 1184q-21 1 -27 19l-2 8q0 14 19 30q10 7 18 7q5 0 13 -4q15 -9 15 -32q0 -28 -36 -28zM31 1172h-2q-18 0 -29 23q0 31 14 41.5t28 10.5q29 0 32 -30q0 -20 -12.5 -32.5t-30.5 -12.5z" />
    <glyph glyph-name="uni030A" unicode="&#x30a;" horiz-adv-x="203" 
d="M50 1137q-25 0 -41 24q-9 14 -9 35q0 12 3 27q3 8 15 14.5t27 6.5l13 -1q11 0 27 -12q18 -18 18 -39q0 -22 -16 -38.5t-37 -16.5zM61 1162q6 0 12.5 5.5t9.5 14t3 14.5q0 17 -17 19q-14 0 -20 -9.5t-6 -20.5q0 -15 13 -22q3 -1 5 -1z" />
    <glyph glyph-name="uni030C" unicode="&#x30c;" horiz-adv-x="217" 
d="M97 1218q6 0 13 -5t7 -15q0 -26 -36 -58q-14 -14 -25 -14q-9 0 -11 11q-2 5 -6 10q-12 14 -25.5 21t-13.5 13q0 11 12 12q10 0 32 -18q5 -4 6.5 -6t2.5 -2l1 2q3 11 20 35q10 14 23 14z" />
    <glyph glyph-name="uni0327" unicode="&#x327;" horiz-adv-x="252" 
d="M56 -214q-23 0 -46 11q-14 10 -14 26q0 25 21 29q79 12 79 23q0 3 -16 7.5t-36 16.5q-26 15 -26 52q0 52 32 52h4q26 -4 26 -36l-1 -18q0 -20 9 -25q60 -32 60 -66q0 -3 -3.5 -23.5t-47.5 -39.5q-20 -9 -41 -9z" />
    <glyph glyph-name="endash" unicode="&#x2013;" horiz-adv-x="394" 
d="M32 438q-5 0 -15.5 1.5t-15.5 24.5l-1 12q0 29 33 35l24 3q65 6 101 6q26 0 62 -2q74 -5 74 -32q0 -30 -48 -30q-97 0 -167 -13q-30 -5 -47 -5z" />
    <glyph glyph-name="emdash" unicode="&#x2014;" horiz-adv-x="690" 
d="M65 438q-10 0 -31.5 1.5t-30.5 24.5l-3 12q0 29 67 35l48 3q130 6 202 6q53 0 124 -2q149 -5 149 -32q0 -30 -96 -30q-196 0 -335 -13q-59 -5 -94 -5z" />
    <glyph glyph-name="quoteleft" unicode="&#x2018;" horiz-adv-x="183" 
d="M64 687q-30 0 -46 30q-18 34 -18 75q0 65 37 65q23 0 31 -22q5 -16 5 -28q0 -29 -7 -44q-6 -19 -6 -32t11.5 -15.5t11.5 -14.5q0 -14 -19 -14z" />
    <glyph glyph-name="quoteright" unicode="&#x2019;" horiz-adv-x="183" 
d="M19 687q-19 0 -19 14q0 12 11.5 14.5t11.5 15.5t-6 32q-7 15 -7 44q0 12 5 28q8 22 31 22q37 0 37 -65q0 -41 -18 -75q-16 -30 -46 -30z" />
    <glyph glyph-name="quotesinglbase" unicode="&#x201a;" horiz-adv-x="183" 
d="M19 -85q-19 0 -19 14q0 12 11.5 14.5t11.5 15.5t-6 32q-7 15 -7 44q0 12 5 28q8 22 31 22q37 0 37 -65q0 -41 -18 -75q-16 -30 -46 -30z" />
    <glyph glyph-name="quotedblleft" unicode="&#x201c;" horiz-adv-x="299" 
d="M64 687q-30 0 -46 30q-18 34 -18 75q0 65 37 65q23 0 31 -22q5 -16 5 -28q0 -29 -7 -44q-6 -19 -6 -32t11.5 -15.5t11.5 -14.5q0 -14 -19 -14zM180 687q-30 0 -46 30q-18 34 -18 75q0 65 37 65q23 0 31 -22q5 -16 5 -28q0 -29 -7 -44q-6 -19 -6 -32t11.5 -15.5
t11.5 -14.5q0 -14 -19 -14z" />
    <glyph glyph-name="quotedblright" unicode="&#x201d;" horiz-adv-x="299" 
d="M19 687q-19 0 -19 14q0 12 11.5 14.5t11.5 15.5t-6 32q-7 15 -7 44q0 12 5 28q8 22 31 22q37 0 37 -65q0 -41 -18 -75q-16 -30 -46 -30zM135 687q-19 0 -19 14q0 12 11.5 14.5t11.5 15.5t-6 32q-7 15 -7 44q0 12 5 28q8 22 31 22q37 0 37 -65q0 -41 -18 -75
q-16 -30 -46 -30z" />
    <glyph glyph-name="quotedblbase" unicode="&#x201e;" horiz-adv-x="299" 
d="M19 -85q-19 0 -19 14q0 12 11.5 14.5t11.5 15.5t-6 32q-7 15 -7 44q0 12 5 28q8 22 31 22q37 0 37 -65q0 -41 -18 -75q-16 -30 -46 -30zM135 -85q-19 0 -19 14q0 12 11.5 14.5t11.5 15.5t-6 32q-7 15 -7 44q0 12 5 28q8 22 31 22q37 0 37 -65q0 -41 -18 -75
q-16 -30 -46 -30z" />
    <glyph glyph-name="dagger" unicode="&#x2020;" horiz-adv-x="525" 
d="M247 550l4 -783q-3 -27 -28 -27q-6 0 -16 5q-17 7 -17 180q0 101 -16 568q-1 28 -2 53q-103 -5 -137 -5q-35 0 -35 28q0 27 26 30q2 4 54 4q34 0 91 -2q-3 101 -3 132q0 92 9.5 111.5t31.5 19.5q14 0 23 -16q13 -23 13 -108q0 -10 1 -18l1 -124q127 -5 168 -11
q10 -2 10 -14q0 -11 -12 -13z" />
    <glyph glyph-name="daggerdbl" unicode="&#x2021;" 
d="M223 -260q-6 0 -16 5q-17 7 -17 180q0 44 -3 158q-116 -7 -151 -7t-35 29q0 25 26 29q2 5 67 5l91 -2q-9 299 -13 409q-103 -5 -137 -5q-35 0 -35 28q0 27 26 30q2 4 54 4q34 0 91 -2q-3 101 -3 132q0 92 9.5 111.5t31.5 19.5q14 0 23 -16q13 -23 13 -108q0 -10 1 -18
l1 -124q127 -5 168 -11q10 -2 10 -14q0 -11 -12 -13l-166 -10l2 -414q127 -4 167 -10q11 -1 11 -13q0 -11 -13 -14l-165 -12l2 -320q-3 -27 -28 -27z" />
    <glyph glyph-name="bullet" unicode="&#x2022;" horiz-adv-x="353" 
d="M71 641q-5 0 -26 2t-45 56v11q0 83 75 83l17 -1q61 -30 61 -70q0 -33 -26 -57t-56 -24z" />
    <glyph glyph-name="ellipsis" unicode="&#x2026;" horiz-adv-x="1643" 
d="M36 -146q-3 0 -13.5 1t-22.5 28v6q0 41 38 41h8q31 -15 31 -35q0 -17 -13 -29t-28 -12zM1402 -146q-3 0 -13.5 1t-22.5 28v6q0 41 38 41h8q31 -15 31 -35q0 -17 -13 -29t-28 -12zM719 -146q-3 0 -13.5 1t-22.5 28v6q0 41 38 41h8q31 -15 31 -35q0 -17 -13 -29t-28 -12z
" />
    <glyph glyph-name="guilsinglleft" unicode="&#x2039;" horiz-adv-x="387" 
d="M260 -85q-19 0 -65 72q-85 109 -126 109q-20 0 -32.5 -6.5t-19.5 -6.5q-17 0 -17 20q0 15 65 82q50 51 104 95q50 40 73 40h3q18 -4 18 -21q0 -2 -0.5 -5.5t-21.5 -28.5q-9 -10 -16.5 -19t-11.5 -12q-77 -78 -103 -97q-18 -14 -18 -18q0 -3 12 -7q42 -16 115 -86
q68 -65 68 -86q0 -6 -5 -13q-6 -12 -22 -12z" />
    <glyph glyph-name="guilsinglright" unicode="&#x203a;" horiz-adv-x="387" 
d="M27 -85q-16 0 -22 12q-5 7 -5 13q0 21 68 86q73 70 115 86q12 4 12 7q0 4 -18 18q-26 19 -103 97q-4 3 -11.5 12t-15.5 19q-22 25 -22 28.5v5.5q0 17 17 21h3q24 0 73 -40q54 -44 104 -95q65 -67 65 -82q0 -20 -17 -20q-6 0 -19 6.5t-32 6.5q-42 0 -127 -109
q-45 -72 -65 -72z" />
    <glyph glyph-name="fraction" unicode="&#x2044;" horiz-adv-x="618" 
d="M20 -216q-9 0 -14.5 6t-5.5 14q0 19 202 534q193 493 256 588q13 16 28 16q16 0 26 -15q6 -8 6 -17q0 -18 -20 -64l-87 -189q-282 -613 -341 -783l-17 -44q-20 -46 -33 -46z" />
    <glyph glyph-name="fraction" unicode="&#x2215;" horiz-adv-x="618" 
d="M20 -216q-9 0 -14.5 6t-5.5 14q0 19 202 534q193 493 256 588q13 16 28 16q16 0 26 -15q6 -8 6 -17q0 -18 -20 -64l-87 -189q-282 -613 -341 -783l-17 -44q-20 -46 -33 -46z" />
    <glyph glyph-name="franc" unicode="&#x20a3;" horiz-adv-x="1056" 
d="M727 -97q-76 -273 -76 -395q0 -66 30 -77q14 -4 14 -11q0 -12 -21 -17l-6 -1q-72 0 -72 156q0 14 2 61.5t30 177.5q10 47 24 102q-23 -2 -44 -5q-30 -5 -47 -5q-6 0 -16.5 1.5t-14.5 19.5l-2 8q0 23 34 28l24 2q49 4 81 5q22 74 51 162l3 10q0 2 -3 2q-6 0 -22 -2
q-106 -4 -106 -8q0 -1 16 -7l1 -2q0 -2 -3 -2l-19 1q-15 0 -23.5 -3t-14.5 -3t-10 5q-9 10 -9 20q0 23 31 33q35 7 176 7l10 32q51 145 98 308q66 228 66 379q0 159 -69 223q-58 55 -141 55q-34 0 -118.5 -20t-216 -131.5t-215.5 -277.5q-74 -146 -74 -313l1 -44
q7 -59 39 -90q38 -37 79 -37q30 0 49 21q4 4 5 4t1 -2q0 -14 -25 -41q-30 -31 -73 -31q-151 11 -151 211q0 143 71 302q71 153 190 269t252 172q94 41 177 41q180 -14 233 -153q33 -74 33 -193q0 -237 -129 -619q-19 -57 -19 -66v-1h13q37 0 37 -17q0 -12 -22 -14
q-18 -2 -41 -2q-30 -96 -54 -180h8q75 -4 75 -25q0 -22 -48 -22q-26 0 -49 -1z" />
    <glyph glyph-name="lira" unicode="&#x20a4;" horiz-adv-x="526" 
d="M145 -41l-29 -117q29 19 55 19q31 0 77 -25q40 -19 69 -19q53 0 75 54q3 5 7 5q7 0 10.5 -4t3.5 -8v-3q-10 -51 -50 -82q-31 -23 -67 -23q-44 0 -91 33q-29 20 -53 20t-57 -37q-6 -7 -13 -7q-1 0 -5.5 1.5t-9.5 8t-5 14.5q0 3 27 158l6 34q-29 13 -36 13q-8 0 -17 -7
q-6 -6 -14.5 -11t-13.5 -5q-14 0 -14 18q0 5 4 16t23 21q12 5 25 5q17 0 48 -15l10 59q-26 15 -55 16q-5 0 -16.5 -3.5t-20.5 -3.5t-9 6q0 3 2 7q12 21 39 21q34 0 65 -15q46 290 135 376q43 33 80 33q11 0 40 -7.5t48 -48.5q8 -15 8 -31q0 -32 -20 -53q-17 -25 -35 -25
l-9 1l1 5q1 5 3 10.5t3.5 10.5t2.5 6.5t1 4.5q0 11 -8 25q-12 23 -35 23q-40 0 -74 -87q-52 -140 -81 -274q24 -11 48 -11t42 23q3 4 7 4h4q8 0 8 -11l-1 -5q-20 -38 -67 -38q-25 0 -48 11q-8 -28 -15 -58q38 -21 61 -21t41 24q3 3 7 3h3q11 -2 11 -12l-1 -2
q-18 -33 -60 -33q-33 0 -70 13z" />
    <glyph glyph-name="Euro" unicode="&#x20ac;" horiz-adv-x="573" 
d="M149 -246q-35 0 -61 45q-35 61 -35 206q0 50 6 95q-4 0 -9 -1t-11 -1q-21 0 -23 12q0 7 5 11q12 7 25.5 7t15 1t2.5 4q0 8 6 36l-49 -2q-21 0 -21 8q0 11 16 14q11 2 47 6q10 1 14.5 10t9.5 28q8 40 54 135q101 186 215 186q88 0 112 -100q5 -20 5 -41q0 -49 -27 -108
q-2 -3 -7 -3t-7 5q-24 141 -68 161q-12 6 -25 6q-33 0 -75 -43.5t-81 -115.5t-54 -115q17 0 17 -11q0 -12 -26 -16l-9 -34q1 -3 8 -3l8 1q9 2 24 3q7 0 11 -5t4 -10q0 -6 -4.5 -10.5t-24.5 -6.5q-24 -4 -34 -4q-13 -62 -13 -130l1 -34q7 -123 41 -145q14 -8 27 -8
q23 0 53.5 28.5t51.5 77.5q6 12 16 13q10 0 17 -8q3 -4 3 -9t-2 -10q-37 -74 -108 -115q-22 -10 -41 -10z" />
    <glyph glyph-name="uni2116" unicode="&#x2116;" horiz-adv-x="1273" 
d="M19 -587q-19 0 -19 19q13 431 69.5 789t136.5 615q14 40 39 40q11 0 20 -9t9 -26q0 -5 -1.5 -10.5t-41.5 -176t-89.5 -433t-81.5 -546.5q25 98 54 195q139 434 294.5 710t288.5 404q124 121 194 121h8q76 -10 89 -96q4 -26 4 -58q0 -125 -88 -459q-38 -146 -69 -291
q-37 -173 -37 -316q0 -36 3 -94t22 -108q15 -40 46 -40q8 0 18 3l5 1q11 0 11 -13q0 -11 -9 -14q-18 -6 -34 -6q-33 0 -63.5 32.5t-47.5 102.5q-19 79 -19 172q0 41 9 135q14 167 110 541q74 282 74 371q0 85 -45 85q-33 0 -95 -42q-257 -181 -476 -695
q-99 -231 -168 -463.5t-101 -425.5q-3 -14 -19 -14zM1102 934l-12 1q-43 19 -43 75q0 24 11.5 51t38.5 29q7 9 18 9q35 0 53 -50q4 -15 4 -29q0 -32 -19 -57q-23 -29 -51 -29zM1114 971q5 0 13 7.5t13 20t5 24.5q0 11 -6.5 26.5t-20.5 19.5q0 -6 -4.5 -14.5t-8.5 -23
t-4 -35.5q2 -25 13 -25zM1062 835h-2q-6 4 -6 29t7 29q1 6 21 6l29 -2q45 -4 59 -10q3 -1 3 -13q0 -11 -4 -14l-51 -14q-47 -11 -56 -11z" />
    <glyph glyph-name="minus" unicode="&#x2212;" horiz-adv-x="526" 
d="M412 83l-184 2q-182 3 -207 6q-21 6 -21 25q0 31 29 33q1 2 15 2q35 0 163 -13q162 -18 209 -28q10 -2 10 -12q0 -13 -14 -15z" />
    <glyph glyph-name="approxequal" unicode="&#x2248;" horiz-adv-x="597" 
d="M25 129q-12 0 -18.5 11t-6.5 24q0 11 5.5 32.5t37.5 49.5q30 22 65 22q44 0 130 -37q79 -36 134 -36q53 0 87 66q6 10 16 10t16 -6.5t6 -14.5v-5q-31 -83 -120 -93q-23 -2 -45 -2q-67 0 -137 23q-66 22 -81 22q-19 0 -38 -22l-1 -2q-9 -13 -24.5 -27.5t-25.5 -14.5z
M25 -13q-12 0 -18.5 10.5t-6.5 24.5q0 11 5.5 32.5t37.5 49.5q30 22 65 22q44 0 130 -37q79 -36 134 -36q53 0 87 66q6 10 16 10t16 -6.5t6 -14.5v-5q-31 -83 -120 -93q-23 -3 -45 -3q-67 0 -137 24q-66 22 -81 22q-19 0 -38 -22l-1 -2q-9 -13 -24.5 -27.5t-25.5 -14.5z" />
    <glyph glyph-name="lessequal" unicode="&#x2264;" horiz-adv-x="387" 
d="M260 -48q-19 0 -65 72q-85 109 -126 109q-20 0 -32.5 -6.5t-19.5 -6.5q-17 0 -17 19q0 16 65 82q50 52 104 96q50 40 73 40h3q18 -4 18 -21q0 -3 -0.5 -6t-21.5 -28q-9 -10 -16.5 -19t-11.5 -12q-77 -78 -103 -97q-18 -14 -18 -18t12 -7q42 -16 115 -86q68 -65 68 -87
q0 -5 -5 -13q-6 -11 -22 -11zM277 -150l-124 2q-122 3 -139 6q-14 6 -14 25q0 31 19 33q1 2 11 2q23 0 109 -13q109 -18 140 -28q7 -2 7 -12q0 -13 -9 -15z" />
    <glyph glyph-name="greaterequal" unicode="&#x2265;" horiz-adv-x="416" 
d="M26 -128h-2q-12 0 -18 7.5t-6 18.5q0 7 4 23.5t33.5 57.5t93.5 102q44 40 65 53t21 20t-27 28q-34 26 -121 117q-39 39 -61 76q-4 9 -4 16q0 9 7.5 18.5t25.5 9.5q13 0 21 -9q13 -10 54 -49.5t89 -87t80.5 -82t33.5 -39t1 -10.5q0 -18 -14 -25q-4 -2 -9 -2q-12 0 -26 11
q-9 6 -15 6q-13 0 -49 -39q-63 -70 -100 -131q-56 -88 -77 -90zM303 -230l-135 2q-134 3 -153 6q-15 6 -15 25q0 31 21 33q1 2 11 2q26 0 120 -13q119 -18 154 -28q7 -2 7 -12q0 -13 -10 -15z" />
    </font>
</defs>
</svg>
